M48
; DRILL file {KiCad 5.1.3-ffb9f22~84~ubuntu18.10.1} date Sat 16 Nov 2019 03:14:39 PM CST
; FORMAT={2:4/ absolute / inch / suppress trailing zeros}
; #@! TF.CreationDate,2019-11-16T15:14:39-06:00
; #@! TF.GenerationSoftware,Kicad,Pcbnew,5.1.3-ffb9f22~84~ubuntu18.10.1
; #@! TF.FileFunction,Plated,1,4,PTH
FMAT,2
INCH,LZ
T1C0.0100
T2C0.0150
T3C0.0197
T4C0.0250
T5C0.0354
T6C0.0394
T7C0.0591
%
G90
G05
T1
X061594Y-065861
X061994Y-065861
X062014Y-061221
X063861Y-062048
X064151Y-065829
X064407Y-068794
X065666Y-061335
X065674Y-064921
X066076Y-064697
X06624Y-057504
X066638Y-06564
X067181Y-063857
X067288Y-066719
X067614Y-066274
X067854Y-058694
X067905Y-068345
X068246Y-064721
X06825Y-065086
X068307Y-060094
X068619Y-064721
X068619Y-06509
X068717Y-061882
X068926Y-05808
X069563Y-066492
X070069Y-061907
X071152Y-061084
X071305Y-062894
X072316Y-059043
X072323Y-057536
X07252Y-057102
X072794Y-060824
X073262Y-066294
X073313Y-062738
X073778Y-071387
X073863Y-05786
X073969Y-058583
X074205Y-067606
X074232Y-066981
X074308Y-069457
X074376Y-066645
X074403Y-069893
X074471Y-067363
X074556Y-069577
X074848Y-061745
X074973Y-062189
X075057Y-061918
X075248Y-062365
X075415Y-062611
X075582Y-068417
X075669Y-062866
X07584Y-071033
X075843Y-068482
X075931Y-063128
X075936Y-06284
X07616Y-06935
X076177Y-069642
X076337Y-064315
X076382Y-066667
X076398Y-069245
X076772Y-060847
X076919Y-064932
X076922Y-060584
X076931Y-065613
X076952Y-056435
X077163Y-061661
X077179Y-0614
X0775Y-060938
X077529Y-065295
X077618Y-061547
X077684Y-061217
X077914Y-061069
X077922Y-069869
X077928Y-065079
X078008Y-066644
X078067Y-062282
X078266Y-058912
X078274Y-059172
X078321Y-062537
X078506Y-063057
X078516Y-065924
X078546Y-058853
X078621Y-062814
X078701Y-057731
X078943Y-061524
X078971Y-057726
X079046Y-062352
X079187Y-056142
X079234Y-056454
X07924Y-06663
X07945Y-065458
X079592Y-062908
X079659Y-057012
X079708Y-066374
X079715Y-060534
X079739Y-056761
X079754Y-065468
X079823Y-06509
X079854Y-057637
X079873Y-06967
X079874Y-06941
X079914Y-056962
X079929Y-061896
X079931Y-066197
X079937Y-067735
X08012Y-067501
X080126Y-064639
X080163Y-067917
X080177Y-062521
X080212Y-057711
X080214Y-066223
X080218Y-062264
X08024Y-064873
X080269Y-066819
X080384Y-060322
X080441Y-060019
X080517Y-069332
X080579Y-057742
X080784Y-05879
X080795Y-060466
X080799Y-069328
X080817Y-059815
X08087Y-059416
X080927Y-06069
X081005Y-070084
X081008Y-059021
X081187Y-060683
X081188Y-065637
X081239Y-06791
X08124Y-066894
X081242Y-067615
X081264Y-058852
X081323Y-059111
X081338Y-056114
X081339Y-064666
X081381Y-057823
X081462Y-06558
X081525Y-063839
X081545Y-064286
X081551Y-065005
X081554Y-062015
X081607Y-065903
X081611Y-064731
X081633Y-057753
X081653Y-061775
X081916Y-061809
X081967Y-066442
X08198Y-06044
X082127Y-060138
X082193Y-065582
X08221Y-065302
X082307Y-064698
X082314Y-057627
X08235Y-064982
X082524Y-058033
X082538Y-056847
X082717Y-057608
X082733Y-057869
X082736Y-070904
X082806Y-056811
X082981Y-060721
X083022Y-070881
X083115Y-070617
X083279Y-062588
X083309Y-065526
X083314Y-062917
X083315Y-064669
X083317Y-065229
X083317Y-064949
X083324Y-058877
X083327Y-063276
X083357Y-061823
X083384Y-065974
X083399Y-060589
X083416Y-066555
X08344Y-066276
X0835Y-058676
X083534Y-060845
X083615Y-06918
X083711Y-065921
X083723Y-060622
X083787Y-070312
X083791Y-058621
X083866Y-056305
X083879Y-064595
X083897Y-064874
X084013Y-065865
X084126Y-058166
X084168Y-056305
X084205Y-062496
X084224Y-058771
X084247Y-068498
X08426Y-066245
X084297Y-066523
X0843Y-064462
X084357Y-058505
X084393Y-068169
X08442Y-060727
X084537Y-06907
X084578Y-066534
X084581Y-059928
X084592Y-056359
X084629Y-058632
X08463Y-068793
X084652Y-068056
X084664Y-060587
X08467Y-058175
X084726Y-068514
X084848Y-06077
X084929Y-06622
X085002Y-066525
X085027Y-06272
X085184Y-070584
X085198Y-061883
X0852Y-058203
X085256Y-059835
X085262Y-062875
X085267Y-062154
X085276Y-060479
X085284Y-066443
X085288Y-058457
X085459Y-058666
X085468Y-06084
X085531Y-062365
X085597Y-069273
X085762Y-068529
X085846Y-070268
X08587Y-057744
X085961Y-058177
X086017Y-068409
X08602Y-069161
X0861Y-057956
X086141Y-067979
X08617Y-068723
X08636Y-057951
X086374Y-067593
X086519Y-068982
X086604Y-063181
X086621Y-068681
X086662Y-067587
X086666Y-061769
X086673Y-06726
X086722Y-065831
X086758Y-065548
X086767Y-063959
X086775Y-06911
X086782Y-062188
X08687Y-057149
X08688Y-056551
X086917Y-070291
X087177Y-070235
X087194Y-060197
X0873Y-056539
X087533Y-070516
X087725Y-06861
X087732Y-068924
X087742Y-067039
X087749Y-065134
X087762Y-066748
X087836Y-070265
X08784Y-062644
X087897Y-066467
X087921Y-056708
X088148Y-069214
X088156Y-057056
X088193Y-070157
X088232Y-056784
X088315Y-062644
X088537Y-070563
X088575Y-069996
X088618Y-068056
X088783Y-059002
X088801Y-070581
X089055Y-060078
X08906Y-059306
X089068Y-070583
X089297Y-060976
X089384Y-056883
X089484Y-071129
X089488Y-070587
X089508Y-069225
X089563Y-060727
X089603Y-064935
X089614Y-066176
X089755Y-064374
X089765Y-068986
X089792Y-069245
X089794Y-06102
X08983Y-06248
X089856Y-068072
X089859Y-068412
X089881Y-066198
X089951Y-071124
X089974Y-070585
X090025Y-064312
X090052Y-06923
X090216Y-060069
X090232Y-068685
X090386Y-065568
X090399Y-070583
X090424Y-071124
X090523Y-065235
X090552Y-065895
X090815Y-066177
X090945Y-060858
X09139Y-056642
X091544Y-069687
X091564Y-068193
X091574Y-068494
X091807Y-06502
X091852Y-061777
X09246Y-069731
X0925Y-066848
X092668Y-06952
X092889Y-062233
X093026Y-067061
X093026Y-067782
X093088Y-064764
X093117Y-064018
X093161Y-062315
X093677Y-068267
X093733Y-067801
X093802Y-059447
X093944Y-06797
X094138Y-056669
X094174Y-067774
X094454Y-06814
X094567Y-068854
X094757Y-067869
X094844Y-068129
X095058Y-068927
X095104Y-068137
X095178Y-059461
X095216Y-068715
X095502Y-068605
X095933Y-066856
X095933Y-056669
X095934Y-066474
X096313Y-066856
X096317Y-066469
X096387Y-067489
X096396Y-059418
X096476Y-063697
X097391Y-063001
X097396Y-063834
X097566Y-058165
X0976Y-059432
X097928Y-069539
X098437Y-060581
X0989Y-069716
X098948Y-070852
X099493Y-058262
X099571Y-067287
X100525Y-062508
X101354Y-062346
X101456Y-061606
X101492Y-064177
X101508Y-063283
X101512Y-063744
X101575Y-062122
X101582Y-061104
X101641Y-063516
X101644Y-061357
X101674Y-064399
X102031Y-060398
X103244Y-057476
X103366Y-064894
X103732Y-060779
X107323Y-06773
X107325Y-070835
X107807Y-060772
X107981Y-065259
T2
X065887Y-065262
T3
X061701Y-067473
X061701Y-067965
T4
X062278Y-067479
X063185Y-062698
X069246Y-058463
T5
X062439Y-07044
X063226Y-07044
X064014Y-07044
T6
X097482Y-066345
X098482Y-066345
T7
X061612Y-07044
X064841Y-07044
T0
M30
