G04 #@! TF.GenerationSoftware,KiCad,Pcbnew,5.1.3-ffb9f22~84~ubuntu18.10.1*
G04 #@! TF.CreationDate,2019-11-16T15:14:42-06:00*
G04 #@! TF.ProjectId,BurnedHead,4275726e-6564-4486-9561-642e6b696361,rev?*
G04 #@! TF.SameCoordinates,Original*
G04 #@! TF.FileFunction,Legend,Bot*
G04 #@! TF.FilePolarity,Positive*
%FSLAX46Y46*%
G04 Gerber Fmt 4.6, Leading zero omitted, Abs format (unit mm)*
G04 Created by KiCad (PCBNEW 5.1.3-ffb9f22~84~ubuntu18.10.1) date 2019-11-16 15:14:42*
%MOMM*%
%LPD*%
G04 APERTURE LIST*
%ADD10C,0.127000*%
%ADD11C,0.120000*%
%ADD12C,0.150000*%
%ADD13C,0.050000*%
%ADD14C,0.101600*%
G04 APERTURE END LIST*
D10*
X156995585Y-170386828D02*
X156415014Y-170386828D01*
X157015905Y-173747248D02*
X156435334Y-173747248D01*
X156725620Y-174037534D02*
X156725620Y-173456962D01*
X193282058Y-144673320D02*
G75*
G03X193282058Y-144673320I-209038J0D01*
G01*
X255176020Y-156862780D02*
X254855980Y-157096460D01*
X256697480Y-160916620D02*
X256451100Y-160594040D01*
D11*
X251407200Y-176928561D02*
X251407200Y-177254119D01*
X252427200Y-176928561D02*
X252427200Y-177254119D01*
X239717799Y-177594800D02*
X239392241Y-177594800D01*
X239717799Y-178614800D02*
X239392241Y-178614800D01*
X244632261Y-172666120D02*
X244957819Y-172666120D01*
X244632261Y-171646120D02*
X244957819Y-171646120D01*
X214705981Y-143480060D02*
X215031539Y-143480060D01*
X214705981Y-144500060D02*
X215031539Y-144500060D01*
X176667740Y-149462240D02*
X176667740Y-145462240D01*
X180867740Y-149462240D02*
X180867740Y-145462240D01*
D12*
X246030880Y-177981740D02*
X244780880Y-177981740D01*
X246030880Y-174806740D02*
X249380880Y-174806740D01*
X246030880Y-178156740D02*
X249380880Y-178156740D01*
X246030880Y-174806740D02*
X246030880Y-175056740D01*
X249380880Y-174806740D02*
X249380880Y-175056740D01*
X249380880Y-178156740D02*
X249380880Y-177906740D01*
X246030880Y-178156740D02*
X246030880Y-177981740D01*
D11*
X242823781Y-177577020D02*
X243149339Y-177577020D01*
X242823781Y-178597020D02*
X243149339Y-178597020D01*
X244962899Y-174294260D02*
X244637341Y-174294260D01*
X244962899Y-173274260D02*
X244637341Y-173274260D01*
X251474280Y-169846300D02*
X251474280Y-168516300D01*
X250144280Y-169846300D02*
X251474280Y-169846300D01*
X248874280Y-169846300D02*
X248874280Y-167186300D01*
X248874280Y-167186300D02*
X246274280Y-167186300D01*
X248874280Y-169846300D02*
X246274280Y-169846300D01*
X246274280Y-169846300D02*
X246274280Y-167186300D01*
X202789347Y-157040529D02*
X202789347Y-157366087D01*
X201769347Y-157040529D02*
X201769347Y-157366087D01*
X201662760Y-166133661D02*
X201662760Y-166459219D01*
X200642760Y-166133661D02*
X200642760Y-166459219D01*
X201515593Y-176781847D02*
X201515593Y-176456289D01*
X202535593Y-176781847D02*
X202535593Y-176456289D01*
X206022159Y-179432680D02*
X205696601Y-179432680D01*
X206022159Y-178412680D02*
X205696601Y-178412680D01*
X212583294Y-178805706D02*
X212908852Y-178805706D01*
X212583294Y-179825706D02*
X212908852Y-179825706D01*
X217870821Y-178773360D02*
X218196379Y-178773360D01*
X217870821Y-179793360D02*
X218196379Y-179793360D01*
X230649240Y-174297121D02*
X230649240Y-174622679D01*
X229629240Y-174297121D02*
X229629240Y-174622679D01*
X233203492Y-171257097D02*
X232877934Y-171257097D01*
X233203492Y-170237097D02*
X232877934Y-170237097D01*
X236224726Y-167431364D02*
X236224726Y-167756922D01*
X235204726Y-167431364D02*
X235204726Y-167756922D01*
X232894762Y-163751057D02*
X233220320Y-163751057D01*
X232894762Y-164771057D02*
X233220320Y-164771057D01*
X228968426Y-163793289D02*
X228968426Y-163467731D01*
X229988426Y-163793289D02*
X229988426Y-163467731D01*
X228394800Y-158875125D02*
X228394800Y-158549567D01*
X229414800Y-158875125D02*
X229414800Y-158549567D01*
X253898181Y-164503640D02*
X254223739Y-164503640D01*
X253898181Y-165523640D02*
X254223739Y-165523640D01*
X253901345Y-162776440D02*
X254226903Y-162776440D01*
X253901345Y-163796440D02*
X254226903Y-163796440D01*
X253900721Y-161092420D02*
X254226279Y-161092420D01*
X253900721Y-162112420D02*
X254226279Y-162112420D01*
X254078783Y-159026408D02*
X254078783Y-158700850D01*
X255098783Y-159026408D02*
X255098783Y-158700850D01*
X255776552Y-159064994D02*
X255776552Y-158739436D01*
X256796552Y-159064994D02*
X256796552Y-158739436D01*
X253750861Y-154602720D02*
X254076419Y-154602720D01*
X253750861Y-155622720D02*
X254076419Y-155622720D01*
X253758704Y-153032051D02*
X254084262Y-153032051D01*
X253758704Y-154052051D02*
X254084262Y-154052051D01*
X222921100Y-152931079D02*
X222921100Y-152605521D01*
X223941100Y-152931079D02*
X223941100Y-152605521D01*
X221269020Y-152775701D02*
X221269020Y-153101259D01*
X220249020Y-152775701D02*
X220249020Y-153101259D01*
X216819699Y-153390060D02*
X216494141Y-153390060D01*
X216819699Y-152370060D02*
X216494141Y-152370060D01*
X212021639Y-153587506D02*
X211696081Y-153587506D01*
X212021639Y-152567506D02*
X211696081Y-152567506D01*
X218678541Y-144715960D02*
X219004099Y-144715960D01*
X218678541Y-143695960D02*
X219004099Y-143695960D01*
X208134680Y-143080521D02*
X208134680Y-143406079D01*
X207114680Y-143080521D02*
X207114680Y-143406079D01*
X202808621Y-141986540D02*
X203134179Y-141986540D01*
X202808621Y-143006540D02*
X203134179Y-143006540D01*
X200722960Y-143238001D02*
X200722960Y-143563559D01*
X199702960Y-143238001D02*
X199702960Y-143563559D01*
X198046880Y-143553299D02*
X198046880Y-143227741D01*
X199066880Y-143553299D02*
X199066880Y-143227741D01*
X196322220Y-143543239D02*
X196322220Y-143217681D01*
X197342220Y-143543239D02*
X197342220Y-143217681D01*
X194274980Y-143550859D02*
X194274980Y-143225301D01*
X195294980Y-143550859D02*
X195294980Y-143225301D01*
X183423561Y-150282542D02*
X183940717Y-150282542D01*
X183423561Y-151702542D02*
X183940717Y-151702542D01*
X187192290Y-147729609D02*
X187192290Y-148055167D01*
X186172290Y-147729609D02*
X186172290Y-148055167D01*
X185152989Y-144606162D02*
X184827431Y-144606162D01*
X185152989Y-143586162D02*
X184827431Y-143586162D01*
X161943320Y-169250579D02*
X161943320Y-168925021D01*
X162963320Y-169250579D02*
X162963320Y-168925021D01*
X157159245Y-166998681D02*
X157159245Y-167515837D01*
X155739245Y-166998681D02*
X155739245Y-167515837D01*
X163421935Y-173356325D02*
X163747493Y-173356325D01*
X163421935Y-174376325D02*
X163747493Y-174376325D01*
X168545778Y-171292250D02*
X168545778Y-171617808D01*
X167525778Y-171292250D02*
X167525778Y-171617808D01*
X169594400Y-173285520D02*
X172144400Y-173285520D01*
X169594400Y-171585520D02*
X172144400Y-171585520D01*
X169594400Y-173285520D02*
X169594400Y-171585520D01*
X170690321Y-169667460D02*
X171015879Y-169667460D01*
X170690321Y-170687460D02*
X171015879Y-170687460D01*
X171940439Y-167949340D02*
X171614881Y-167949340D01*
X171940439Y-166929340D02*
X171614881Y-166929340D01*
X165514889Y-165086392D02*
X165514889Y-164760834D01*
X166534889Y-165086392D02*
X166534889Y-164760834D01*
X166599740Y-162650540D02*
X169149740Y-162650540D01*
X166599740Y-160950540D02*
X169149740Y-160950540D01*
X166599740Y-162650540D02*
X166599740Y-160950540D01*
X163443446Y-162895489D02*
X162239318Y-162895489D01*
X163443446Y-161075489D02*
X162239318Y-161075489D01*
X162592601Y-157816190D02*
X162075445Y-157816190D01*
X162592601Y-156396190D02*
X162075445Y-156396190D01*
X162454767Y-155638199D02*
X162129209Y-155638199D01*
X162454767Y-154618199D02*
X162129209Y-154618199D01*
X157653368Y-153938671D02*
X157327810Y-153938671D01*
X157653368Y-152918671D02*
X157327810Y-152918671D01*
X157672661Y-155438426D02*
X157347103Y-155438426D01*
X157672661Y-154418426D02*
X157347103Y-154418426D01*
X233413980Y-176164156D02*
X233413980Y-177368284D01*
X231593980Y-176164156D02*
X231593980Y-177368284D01*
X234705160Y-165589200D02*
X234705160Y-169589200D01*
X231405160Y-165589200D02*
X234705160Y-165589200D01*
X253507920Y-158910104D02*
X253507920Y-157705976D01*
X251687920Y-158910104D02*
X251687920Y-157705976D01*
D13*
X222335000Y-148305000D02*
X222335000Y-145205000D01*
X222335000Y-145205000D02*
X220435000Y-145205000D01*
X220735000Y-150005000D02*
X192935000Y-150005000D01*
X191335000Y-148305000D02*
X191335000Y-145205000D01*
X191335000Y-145205000D02*
X193235000Y-145205000D01*
D11*
X197026800Y-166100404D02*
X197026800Y-164896276D01*
X198846800Y-166100404D02*
X198846800Y-164896276D01*
X261144840Y-143272853D02*
X261945914Y-143735353D01*
X259294840Y-146477147D02*
X263365160Y-148827147D01*
X264239262Y-147513157D02*
X264514262Y-147036843D01*
X259995738Y-145063157D02*
X260270738Y-144586843D01*
X264414086Y-145160353D02*
X265215160Y-145622853D01*
X165314840Y-145622853D02*
X166115914Y-145160353D01*
X167164840Y-148827147D02*
X171235160Y-146477147D01*
X170534262Y-145063157D02*
X170259262Y-144586843D01*
X166290738Y-147513157D02*
X166015738Y-147036843D01*
X168584086Y-143735353D02*
X169385160Y-143272853D01*
X259020000Y-165260000D02*
X259020000Y-167180000D01*
X259020000Y-167180000D02*
X273030000Y-167180000D01*
X259020000Y-153660000D02*
X259020000Y-153210000D01*
X259020000Y-153210000D02*
X262630000Y-153210000D01*
X275290000Y-165500000D02*
X275290000Y-163190000D01*
X275290000Y-154240000D02*
X275290000Y-156100000D01*
X275290000Y-154240000D02*
X275090000Y-154040000D01*
X264330000Y-153210000D02*
X269030000Y-153210000D01*
X270330000Y-153210000D02*
X272130000Y-153210000D01*
X274940000Y-156310000D02*
X274940000Y-162680000D01*
X274940000Y-156310000D02*
X275090000Y-156310000D01*
X275290000Y-156100000D02*
X275090000Y-156310000D01*
X275290000Y-165500000D02*
X275090000Y-165700000D01*
X275090000Y-165700000D02*
X275090000Y-165960000D01*
X275290000Y-163190000D02*
X274940000Y-162680000D01*
X166556000Y-172015000D02*
X166556000Y-170555000D01*
X163396000Y-172015000D02*
X163396000Y-169855000D01*
X163396000Y-172015000D02*
X164326000Y-172015000D01*
X166556000Y-172015000D02*
X165626000Y-172015000D01*
X158615000Y-165835000D02*
X160415000Y-165835000D01*
X160415000Y-169055000D02*
X157965000Y-169055000D01*
X155571000Y-171132000D02*
X155271000Y-171132000D01*
X155271000Y-171132000D02*
X155271000Y-170632000D01*
X155861000Y-172007000D02*
X155861000Y-170842000D01*
X155861000Y-170842000D02*
X155561000Y-170842000D01*
X155561000Y-170842000D02*
X155561000Y-169772000D01*
X155561000Y-169772000D02*
X161281000Y-169772000D01*
X161281000Y-169772000D02*
X161281000Y-172007000D01*
X155861000Y-172007000D02*
X155861000Y-173172000D01*
X155861000Y-173172000D02*
X155561000Y-173172000D01*
X155561000Y-173172000D02*
X155561000Y-174242000D01*
X155561000Y-174242000D02*
X161281000Y-174242000D01*
X161281000Y-174242000D02*
X161281000Y-172007000D01*
X187261800Y-181041120D02*
X187261800Y-181106120D01*
X190791800Y-181041120D02*
X190791800Y-181106120D01*
X187261800Y-174636120D02*
X187261800Y-174701120D01*
X190791800Y-174636120D02*
X190791800Y-174701120D01*
X192116800Y-174701120D02*
X190791800Y-174701120D01*
X190791800Y-181106120D02*
X187261800Y-181106120D01*
X190791800Y-174636120D02*
X187261800Y-174636120D01*
X166541000Y-158317000D02*
X162691000Y-158317000D01*
X166541000Y-160317000D02*
X162691000Y-160317000D01*
X166541000Y-158317000D02*
X166541000Y-160317000D01*
X164992000Y-167080000D02*
X168192000Y-167080000D01*
X168192000Y-169080000D02*
X164992000Y-169080000D01*
X168192000Y-169080000D02*
X168192000Y-167080000D01*
X181255000Y-142375000D02*
X182955000Y-142375000D01*
X182955000Y-142375000D02*
X182955000Y-144925000D01*
X181255000Y-142375000D02*
X181255000Y-144925000D01*
X159320000Y-156650000D02*
X159320000Y-157030000D01*
X155270000Y-156650000D02*
X155010000Y-156650000D01*
X159320000Y-156650000D02*
X157550000Y-156650000D01*
X159320000Y-164270000D02*
X159320000Y-163890000D01*
X157550000Y-164270000D02*
X159320000Y-164270000D01*
X155010000Y-164270000D02*
X155270000Y-164270000D01*
X170829000Y-166261000D02*
X168379000Y-166261000D01*
X169029000Y-163041000D02*
X170829000Y-163041000D01*
X182535000Y-148575000D02*
X182535000Y-146675000D01*
X184855000Y-147175000D02*
X184855000Y-148575000D01*
D12*
X225850000Y-157215000D02*
X227150000Y-157215000D01*
X205500000Y-156240000D02*
X206550000Y-156240000D01*
X205500000Y-176590000D02*
X206550000Y-176590000D01*
X225850000Y-176590000D02*
X224800000Y-176590000D01*
X225850000Y-156240000D02*
X224800000Y-156240000D01*
X225850000Y-176590000D02*
X225850000Y-175540000D01*
X205500000Y-176590000D02*
X205500000Y-175540000D01*
X205500000Y-156240000D02*
X205500000Y-157290000D01*
X225850000Y-156240000D02*
X225850000Y-157215000D01*
X253930422Y-176529762D02*
X253978041Y-176482143D01*
X254025660Y-176339286D01*
X254025660Y-176244048D01*
X253978041Y-176101191D01*
X253882803Y-176005953D01*
X253787565Y-175958334D01*
X253597089Y-175910715D01*
X253454232Y-175910715D01*
X253263756Y-175958334D01*
X253168518Y-176005953D01*
X253073280Y-176101191D01*
X253025660Y-176244048D01*
X253025660Y-176339286D01*
X253073280Y-176482143D01*
X253120899Y-176529762D01*
X253025660Y-176863096D02*
X253025660Y-177482143D01*
X253406613Y-177148810D01*
X253406613Y-177291667D01*
X253454232Y-177386905D01*
X253501851Y-177434524D01*
X253597089Y-177482143D01*
X253835184Y-177482143D01*
X253930422Y-177434524D01*
X253978041Y-177386905D01*
X254025660Y-177291667D01*
X254025660Y-177005953D01*
X253978041Y-176910715D01*
X253930422Y-176863096D01*
X253358994Y-178339286D02*
X254025660Y-178339286D01*
X252978041Y-178101191D02*
X253692327Y-177863096D01*
X253692327Y-178482143D01*
X240223277Y-179968162D02*
X240270896Y-180015781D01*
X240413753Y-180063400D01*
X240508991Y-180063400D01*
X240651848Y-180015781D01*
X240747086Y-179920543D01*
X240794705Y-179825305D01*
X240842324Y-179634829D01*
X240842324Y-179491972D01*
X240794705Y-179301496D01*
X240747086Y-179206258D01*
X240651848Y-179111020D01*
X240508991Y-179063400D01*
X240413753Y-179063400D01*
X240270896Y-179111020D01*
X240223277Y-179158639D01*
X239889943Y-179063400D02*
X239270896Y-179063400D01*
X239604229Y-179444353D01*
X239461372Y-179444353D01*
X239366134Y-179491972D01*
X239318515Y-179539591D01*
X239270896Y-179634829D01*
X239270896Y-179872924D01*
X239318515Y-179968162D01*
X239366134Y-180015781D01*
X239461372Y-180063400D01*
X239747086Y-180063400D01*
X239842324Y-180015781D01*
X239889943Y-179968162D01*
X238937562Y-179063400D02*
X238318515Y-179063400D01*
X238651848Y-179444353D01*
X238508991Y-179444353D01*
X238413753Y-179491972D01*
X238366134Y-179539591D01*
X238318515Y-179634829D01*
X238318515Y-179872924D01*
X238366134Y-179968162D01*
X238413753Y-180015781D01*
X238508991Y-180063400D01*
X238794705Y-180063400D01*
X238889943Y-180015781D01*
X238937562Y-179968162D01*
X248574797Y-172622482D02*
X248622416Y-172670101D01*
X248765273Y-172717720D01*
X248860511Y-172717720D01*
X249003368Y-172670101D01*
X249098606Y-172574863D01*
X249146225Y-172479625D01*
X249193844Y-172289149D01*
X249193844Y-172146292D01*
X249146225Y-171955816D01*
X249098606Y-171860578D01*
X249003368Y-171765340D01*
X248860511Y-171717720D01*
X248765273Y-171717720D01*
X248622416Y-171765340D01*
X248574797Y-171812959D01*
X248241463Y-171717720D02*
X247622416Y-171717720D01*
X247955749Y-172098673D01*
X247812892Y-172098673D01*
X247717654Y-172146292D01*
X247670035Y-172193911D01*
X247622416Y-172289149D01*
X247622416Y-172527244D01*
X247670035Y-172622482D01*
X247717654Y-172670101D01*
X247812892Y-172717720D01*
X248098606Y-172717720D01*
X248193844Y-172670101D01*
X248241463Y-172622482D01*
X247241463Y-171812959D02*
X247193844Y-171765340D01*
X247098606Y-171717720D01*
X246860511Y-171717720D01*
X246765273Y-171765340D01*
X246717654Y-171812959D01*
X246670035Y-171908197D01*
X246670035Y-172003435D01*
X246717654Y-172146292D01*
X247289082Y-172717720D01*
X246670035Y-172717720D01*
X215567497Y-142858762D02*
X215615116Y-142906381D01*
X215757973Y-142954000D01*
X215853211Y-142954000D01*
X215996068Y-142906381D01*
X216091306Y-142811143D01*
X216138925Y-142715905D01*
X216186544Y-142525429D01*
X216186544Y-142382572D01*
X216138925Y-142192096D01*
X216091306Y-142096858D01*
X215996068Y-142001620D01*
X215853211Y-141954000D01*
X215757973Y-141954000D01*
X215615116Y-142001620D01*
X215567497Y-142049239D01*
X215234163Y-141954000D02*
X214615116Y-141954000D01*
X214948449Y-142334953D01*
X214805592Y-142334953D01*
X214710354Y-142382572D01*
X214662735Y-142430191D01*
X214615116Y-142525429D01*
X214615116Y-142763524D01*
X214662735Y-142858762D01*
X214710354Y-142906381D01*
X214805592Y-142954000D01*
X215091306Y-142954000D01*
X215186544Y-142906381D01*
X215234163Y-142858762D01*
X213710354Y-141954000D02*
X214186544Y-141954000D01*
X214234163Y-142430191D01*
X214186544Y-142382572D01*
X214091306Y-142334953D01*
X213853211Y-142334953D01*
X213757973Y-142382572D01*
X213710354Y-142430191D01*
X213662735Y-142525429D01*
X213662735Y-142763524D01*
X213710354Y-142858762D01*
X213757973Y-142906381D01*
X213853211Y-142954000D01*
X214091306Y-142954000D01*
X214186544Y-142906381D01*
X214234163Y-142858762D01*
X178919166Y-144947900D02*
X179395357Y-144947900D01*
X179395357Y-143947900D01*
X178062023Y-144947900D02*
X178633452Y-144947900D01*
X178347738Y-144947900D02*
X178347738Y-143947900D01*
X178442976Y-144090758D01*
X178538214Y-144185996D01*
X178633452Y-144233615D01*
X248467784Y-178534120D02*
X248467784Y-179343644D01*
X248420165Y-179438882D01*
X248372546Y-179486501D01*
X248277308Y-179534120D01*
X248086832Y-179534120D01*
X247991594Y-179486501D01*
X247943975Y-179438882D01*
X247896356Y-179343644D01*
X247896356Y-178534120D01*
X247277308Y-178962692D02*
X247372546Y-178915073D01*
X247420165Y-178867454D01*
X247467784Y-178772216D01*
X247467784Y-178724597D01*
X247420165Y-178629359D01*
X247372546Y-178581740D01*
X247277308Y-178534120D01*
X247086832Y-178534120D01*
X246991594Y-178581740D01*
X246943975Y-178629359D01*
X246896356Y-178724597D01*
X246896356Y-178772216D01*
X246943975Y-178867454D01*
X246991594Y-178915073D01*
X247086832Y-178962692D01*
X247277308Y-178962692D01*
X247372546Y-179010311D01*
X247420165Y-179057930D01*
X247467784Y-179153168D01*
X247467784Y-179343644D01*
X247420165Y-179438882D01*
X247372546Y-179486501D01*
X247277308Y-179534120D01*
X247086832Y-179534120D01*
X246991594Y-179486501D01*
X246943975Y-179438882D01*
X246896356Y-179343644D01*
X246896356Y-179153168D01*
X246943975Y-179057930D01*
X246991594Y-179010311D01*
X247086832Y-178962692D01*
X243629417Y-179969400D02*
X243962750Y-179493210D01*
X244200845Y-179969400D02*
X244200845Y-178969400D01*
X243819893Y-178969400D01*
X243724655Y-179017020D01*
X243677036Y-179064639D01*
X243629417Y-179159877D01*
X243629417Y-179302734D01*
X243677036Y-179397972D01*
X243724655Y-179445591D01*
X243819893Y-179493210D01*
X244200845Y-179493210D01*
X242677036Y-179969400D02*
X243248464Y-179969400D01*
X242962750Y-179969400D02*
X242962750Y-178969400D01*
X243057988Y-179112258D01*
X243153226Y-179207496D01*
X243248464Y-179255115D01*
X242200845Y-179969400D02*
X242010369Y-179969400D01*
X241915131Y-179921781D01*
X241867512Y-179874162D01*
X241772274Y-179731305D01*
X241724655Y-179540829D01*
X241724655Y-179159877D01*
X241772274Y-179064639D01*
X241819893Y-179017020D01*
X241915131Y-178969400D01*
X242105607Y-178969400D01*
X242200845Y-179017020D01*
X242248464Y-179064639D01*
X242296083Y-179159877D01*
X242296083Y-179397972D01*
X242248464Y-179493210D01*
X242200845Y-179540829D01*
X242105607Y-179588448D01*
X241915131Y-179588448D01*
X241819893Y-179540829D01*
X241772274Y-179493210D01*
X241724655Y-179397972D01*
X248483357Y-174239180D02*
X248816690Y-173762990D01*
X249054785Y-174239180D02*
X249054785Y-173239180D01*
X248673833Y-173239180D01*
X248578595Y-173286800D01*
X248530976Y-173334419D01*
X248483357Y-173429657D01*
X248483357Y-173572514D01*
X248530976Y-173667752D01*
X248578595Y-173715371D01*
X248673833Y-173762990D01*
X249054785Y-173762990D01*
X247530976Y-174239180D02*
X248102404Y-174239180D01*
X247816690Y-174239180D02*
X247816690Y-173239180D01*
X247911928Y-173382038D01*
X248007166Y-173477276D01*
X248102404Y-173524895D01*
X246959547Y-173667752D02*
X247054785Y-173620133D01*
X247102404Y-173572514D01*
X247150023Y-173477276D01*
X247150023Y-173429657D01*
X247102404Y-173334419D01*
X247054785Y-173286800D01*
X246959547Y-173239180D01*
X246769071Y-173239180D01*
X246673833Y-173286800D01*
X246626214Y-173334419D01*
X246578595Y-173429657D01*
X246578595Y-173477276D01*
X246626214Y-173572514D01*
X246673833Y-173620133D01*
X246769071Y-173667752D01*
X246959547Y-173667752D01*
X247054785Y-173715371D01*
X247102404Y-173762990D01*
X247150023Y-173858228D01*
X247150023Y-174048704D01*
X247102404Y-174143942D01*
X247054785Y-174191561D01*
X246959547Y-174239180D01*
X246769071Y-174239180D01*
X246673833Y-174191561D01*
X246626214Y-174143942D01*
X246578595Y-174048704D01*
X246578595Y-173858228D01*
X246626214Y-173762990D01*
X246673833Y-173715371D01*
X246769071Y-173667752D01*
X252926660Y-167873442D02*
X252926660Y-167397252D01*
X251926660Y-167397252D01*
X252879041Y-168159157D02*
X252926660Y-168302014D01*
X252926660Y-168540109D01*
X252879041Y-168635347D01*
X252831422Y-168682966D01*
X252736184Y-168730585D01*
X252640946Y-168730585D01*
X252545708Y-168682966D01*
X252498089Y-168635347D01*
X252450470Y-168540109D01*
X252402851Y-168349633D01*
X252355232Y-168254395D01*
X252307613Y-168206776D01*
X252212375Y-168159157D01*
X252117137Y-168159157D01*
X252021899Y-168206776D01*
X251974280Y-168254395D01*
X251926660Y-168349633D01*
X251926660Y-168587728D01*
X251974280Y-168730585D01*
X252926660Y-169682966D02*
X252926660Y-169111538D01*
X252926660Y-169397252D02*
X251926660Y-169397252D01*
X252069518Y-169302014D01*
X252164756Y-169206776D01*
X252212375Y-169111538D01*
D10*
X202831337Y-155334062D02*
X202867622Y-155370348D01*
X202976480Y-155406634D01*
X203049051Y-155406634D01*
X203157908Y-155370348D01*
X203230480Y-155297777D01*
X203266765Y-155225205D01*
X203303051Y-155080062D01*
X203303051Y-154971205D01*
X203266765Y-154826062D01*
X203230480Y-154753491D01*
X203157908Y-154680920D01*
X203049051Y-154644634D01*
X202976480Y-154644634D01*
X202867622Y-154680920D01*
X202831337Y-154717205D01*
X202105622Y-155406634D02*
X202541051Y-155406634D01*
X202323337Y-155406634D02*
X202323337Y-154644634D01*
X202395908Y-154753491D01*
X202468480Y-154826062D01*
X202541051Y-154862348D01*
X201670194Y-154971205D02*
X201742765Y-154934920D01*
X201779051Y-154898634D01*
X201815337Y-154826062D01*
X201815337Y-154789777D01*
X201779051Y-154717205D01*
X201742765Y-154680920D01*
X201670194Y-154644634D01*
X201525051Y-154644634D01*
X201452480Y-154680920D01*
X201416194Y-154717205D01*
X201379908Y-154789777D01*
X201379908Y-154826062D01*
X201416194Y-154898634D01*
X201452480Y-154934920D01*
X201525051Y-154971205D01*
X201670194Y-154971205D01*
X201742765Y-155007491D01*
X201779051Y-155043777D01*
X201815337Y-155116348D01*
X201815337Y-155261491D01*
X201779051Y-155334062D01*
X201742765Y-155370348D01*
X201670194Y-155406634D01*
X201525051Y-155406634D01*
X201452480Y-155370348D01*
X201416194Y-155334062D01*
X201379908Y-155261491D01*
X201379908Y-155116348D01*
X201416194Y-155043777D01*
X201452480Y-155007491D01*
X201525051Y-154971205D01*
X201693417Y-164450222D02*
X201729702Y-164486508D01*
X201838560Y-164522794D01*
X201911131Y-164522794D01*
X202019988Y-164486508D01*
X202092560Y-164413937D01*
X202128845Y-164341365D01*
X202165131Y-164196222D01*
X202165131Y-164087365D01*
X202128845Y-163942222D01*
X202092560Y-163869651D01*
X202019988Y-163797080D01*
X201911131Y-163760794D01*
X201838560Y-163760794D01*
X201729702Y-163797080D01*
X201693417Y-163833365D01*
X201403131Y-163833365D02*
X201366845Y-163797080D01*
X201294274Y-163760794D01*
X201112845Y-163760794D01*
X201040274Y-163797080D01*
X201003988Y-163833365D01*
X200967702Y-163905937D01*
X200967702Y-163978508D01*
X201003988Y-164087365D01*
X201439417Y-164522794D01*
X200967702Y-164522794D01*
X200713702Y-163760794D02*
X200241988Y-163760794D01*
X200495988Y-164051080D01*
X200387131Y-164051080D01*
X200314560Y-164087365D01*
X200278274Y-164123651D01*
X200241988Y-164196222D01*
X200241988Y-164377651D01*
X200278274Y-164450222D01*
X200314560Y-164486508D01*
X200387131Y-164522794D01*
X200604845Y-164522794D01*
X200677417Y-164486508D01*
X200713702Y-164450222D01*
X200853402Y-176096022D02*
X200889688Y-176059737D01*
X200925974Y-175950880D01*
X200925974Y-175878308D01*
X200889688Y-175769451D01*
X200817117Y-175696880D01*
X200744545Y-175660594D01*
X200599402Y-175624308D01*
X200490545Y-175624308D01*
X200345402Y-175660594D01*
X200272831Y-175696880D01*
X200200260Y-175769451D01*
X200163974Y-175878308D01*
X200163974Y-175950880D01*
X200200260Y-176059737D01*
X200236545Y-176096022D01*
X200236545Y-176386308D02*
X200200260Y-176422594D01*
X200163974Y-176495165D01*
X200163974Y-176676594D01*
X200200260Y-176749165D01*
X200236545Y-176785451D01*
X200309117Y-176821737D01*
X200381688Y-176821737D01*
X200490545Y-176785451D01*
X200925974Y-176350022D01*
X200925974Y-176821737D01*
X200925974Y-177547451D02*
X200925974Y-177112022D01*
X200925974Y-177329737D02*
X200163974Y-177329737D01*
X200272831Y-177257165D01*
X200345402Y-177184594D01*
X200381688Y-177112022D01*
X206321297Y-180497842D02*
X206357582Y-180534128D01*
X206466440Y-180570414D01*
X206539011Y-180570414D01*
X206647868Y-180534128D01*
X206720440Y-180461557D01*
X206756725Y-180388985D01*
X206793011Y-180243842D01*
X206793011Y-180134985D01*
X206756725Y-179989842D01*
X206720440Y-179917271D01*
X206647868Y-179844700D01*
X206539011Y-179808414D01*
X206466440Y-179808414D01*
X206357582Y-179844700D01*
X206321297Y-179880985D01*
X205595582Y-180570414D02*
X206031011Y-180570414D01*
X205813297Y-180570414D02*
X205813297Y-179808414D01*
X205885868Y-179917271D01*
X205958440Y-179989842D01*
X206031011Y-180026128D01*
X204869868Y-180570414D02*
X205305297Y-180570414D01*
X205087582Y-180570414D02*
X205087582Y-179808414D01*
X205160154Y-179917271D01*
X205232725Y-179989842D01*
X205305297Y-180026128D01*
X213259857Y-181012142D02*
X213296142Y-181048428D01*
X213405000Y-181084714D01*
X213477571Y-181084714D01*
X213586428Y-181048428D01*
X213659000Y-180975857D01*
X213695285Y-180903285D01*
X213731571Y-180758142D01*
X213731571Y-180649285D01*
X213695285Y-180504142D01*
X213659000Y-180431571D01*
X213586428Y-180359000D01*
X213477571Y-180322714D01*
X213405000Y-180322714D01*
X213296142Y-180359000D01*
X213259857Y-180395285D01*
X212969571Y-180395285D02*
X212933285Y-180359000D01*
X212860714Y-180322714D01*
X212679285Y-180322714D01*
X212606714Y-180359000D01*
X212570428Y-180395285D01*
X212534142Y-180467857D01*
X212534142Y-180540428D01*
X212570428Y-180649285D01*
X213005857Y-181084714D01*
X212534142Y-181084714D01*
X211844714Y-180322714D02*
X212207571Y-180322714D01*
X212243857Y-180685571D01*
X212207571Y-180649285D01*
X212135000Y-180613000D01*
X211953571Y-180613000D01*
X211881000Y-180649285D01*
X211844714Y-180685571D01*
X211808428Y-180758142D01*
X211808428Y-180939571D01*
X211844714Y-181012142D01*
X211881000Y-181048428D01*
X211953571Y-181084714D01*
X212135000Y-181084714D01*
X212207571Y-181048428D01*
X212243857Y-181012142D01*
X218428277Y-181084860D02*
X218464562Y-181121146D01*
X218573420Y-181157432D01*
X218645991Y-181157432D01*
X218754848Y-181121146D01*
X218827420Y-181048575D01*
X218863705Y-180976003D01*
X218899991Y-180830860D01*
X218899991Y-180722003D01*
X218863705Y-180576860D01*
X218827420Y-180504289D01*
X218754848Y-180431718D01*
X218645991Y-180395432D01*
X218573420Y-180395432D01*
X218464562Y-180431718D01*
X218428277Y-180468003D01*
X218137991Y-180468003D02*
X218101705Y-180431718D01*
X218029134Y-180395432D01*
X217847705Y-180395432D01*
X217775134Y-180431718D01*
X217738848Y-180468003D01*
X217702562Y-180540575D01*
X217702562Y-180613146D01*
X217738848Y-180722003D01*
X218174277Y-181157432D01*
X217702562Y-181157432D01*
X217230848Y-180395432D02*
X217158277Y-180395432D01*
X217085705Y-180431718D01*
X217049420Y-180468003D01*
X217013134Y-180540575D01*
X216976848Y-180685718D01*
X216976848Y-180867146D01*
X217013134Y-181012289D01*
X217049420Y-181084860D01*
X217085705Y-181121146D01*
X217158277Y-181157432D01*
X217230848Y-181157432D01*
X217303420Y-181121146D01*
X217339705Y-181084860D01*
X217375991Y-181012289D01*
X217412277Y-180867146D01*
X217412277Y-180685718D01*
X217375991Y-180540575D01*
X217339705Y-180468003D01*
X217303420Y-180431718D01*
X217230848Y-180395432D01*
X231722022Y-173530260D02*
X231758308Y-173493974D01*
X231794594Y-173385117D01*
X231794594Y-173312545D01*
X231758308Y-173203688D01*
X231685737Y-173131117D01*
X231613165Y-173094831D01*
X231468022Y-173058545D01*
X231359165Y-173058545D01*
X231214022Y-173094831D01*
X231141451Y-173131117D01*
X231068880Y-173203688D01*
X231032594Y-173312545D01*
X231032594Y-173385117D01*
X231068880Y-173493974D01*
X231105165Y-173530260D01*
X231359165Y-173965688D02*
X231322880Y-173893117D01*
X231286594Y-173856831D01*
X231214022Y-173820545D01*
X231177737Y-173820545D01*
X231105165Y-173856831D01*
X231068880Y-173893117D01*
X231032594Y-173965688D01*
X231032594Y-174110831D01*
X231068880Y-174183402D01*
X231105165Y-174219688D01*
X231177737Y-174255974D01*
X231214022Y-174255974D01*
X231286594Y-174219688D01*
X231322880Y-174183402D01*
X231359165Y-174110831D01*
X231359165Y-173965688D01*
X231395451Y-173893117D01*
X231431737Y-173856831D01*
X231504308Y-173820545D01*
X231649451Y-173820545D01*
X231722022Y-173856831D01*
X231758308Y-173893117D01*
X231794594Y-173965688D01*
X231794594Y-174110831D01*
X231758308Y-174183402D01*
X231722022Y-174219688D01*
X231649451Y-174255974D01*
X231504308Y-174255974D01*
X231431737Y-174219688D01*
X231395451Y-174183402D01*
X231359165Y-174110831D01*
X233473897Y-172443502D02*
X233510182Y-172479788D01*
X233619040Y-172516074D01*
X233691611Y-172516074D01*
X233800468Y-172479788D01*
X233873040Y-172407217D01*
X233909325Y-172334645D01*
X233945611Y-172189502D01*
X233945611Y-172080645D01*
X233909325Y-171935502D01*
X233873040Y-171862931D01*
X233800468Y-171790360D01*
X233691611Y-171754074D01*
X233619040Y-171754074D01*
X233510182Y-171790360D01*
X233473897Y-171826645D01*
X232748182Y-172516074D02*
X233183611Y-172516074D01*
X232965897Y-172516074D02*
X232965897Y-171754074D01*
X233038468Y-171862931D01*
X233111040Y-171935502D01*
X233183611Y-171971788D01*
X232494182Y-171754074D02*
X232022468Y-171754074D01*
X232276468Y-172044360D01*
X232167611Y-172044360D01*
X232095040Y-172080645D01*
X232058754Y-172116931D01*
X232022468Y-172189502D01*
X232022468Y-172370931D01*
X232058754Y-172443502D01*
X232095040Y-172479788D01*
X232167611Y-172516074D01*
X232385325Y-172516074D01*
X232457897Y-172479788D01*
X232494182Y-172443502D01*
X237331794Y-167132362D02*
X236968937Y-166878362D01*
X237331794Y-166696934D02*
X236569794Y-166696934D01*
X236569794Y-166987220D01*
X236606080Y-167059791D01*
X236642365Y-167096077D01*
X236714937Y-167132362D01*
X236823794Y-167132362D01*
X236896365Y-167096077D01*
X236932651Y-167059791D01*
X236968937Y-166987220D01*
X236968937Y-166696934D01*
X237331794Y-167858077D02*
X237331794Y-167422648D01*
X237331794Y-167640362D02*
X236569794Y-167640362D01*
X236678651Y-167567791D01*
X236751222Y-167495220D01*
X236787508Y-167422648D01*
X236642365Y-168148362D02*
X236606080Y-168184648D01*
X236569794Y-168257220D01*
X236569794Y-168438648D01*
X236606080Y-168511220D01*
X236642365Y-168547505D01*
X236714937Y-168583791D01*
X236787508Y-168583791D01*
X236896365Y-168547505D01*
X237331794Y-168112077D01*
X237331794Y-168583791D01*
X233258360Y-163322362D02*
X233294645Y-163358648D01*
X233403502Y-163394934D01*
X233476074Y-163394934D01*
X233584931Y-163358648D01*
X233657502Y-163286077D01*
X233693788Y-163213505D01*
X233730074Y-163068362D01*
X233730074Y-162959505D01*
X233693788Y-162814362D01*
X233657502Y-162741791D01*
X233584931Y-162669220D01*
X233476074Y-162632934D01*
X233403502Y-162632934D01*
X233294645Y-162669220D01*
X233258360Y-162705505D01*
X232895502Y-163394934D02*
X232750360Y-163394934D01*
X232677788Y-163358648D01*
X232641502Y-163322362D01*
X232568931Y-163213505D01*
X232532645Y-163068362D01*
X232532645Y-162778077D01*
X232568931Y-162705505D01*
X232605217Y-162669220D01*
X232677788Y-162632934D01*
X232822931Y-162632934D01*
X232895502Y-162669220D01*
X232931788Y-162705505D01*
X232968074Y-162778077D01*
X232968074Y-162959505D01*
X232931788Y-163032077D01*
X232895502Y-163068362D01*
X232822931Y-163104648D01*
X232677788Y-163104648D01*
X232605217Y-163068362D01*
X232568931Y-163032077D01*
X232532645Y-162959505D01*
X231106702Y-162911942D02*
X231142988Y-162875657D01*
X231179274Y-162766800D01*
X231179274Y-162694228D01*
X231142988Y-162585371D01*
X231070417Y-162512800D01*
X230997845Y-162476514D01*
X230852702Y-162440228D01*
X230743845Y-162440228D01*
X230598702Y-162476514D01*
X230526131Y-162512800D01*
X230453560Y-162585371D01*
X230417274Y-162694228D01*
X230417274Y-162766800D01*
X230453560Y-162875657D01*
X230489845Y-162911942D01*
X230489845Y-163202228D02*
X230453560Y-163238514D01*
X230417274Y-163311085D01*
X230417274Y-163492514D01*
X230453560Y-163565085D01*
X230489845Y-163601371D01*
X230562417Y-163637657D01*
X230634988Y-163637657D01*
X230743845Y-163601371D01*
X231179274Y-163165942D01*
X231179274Y-163637657D01*
X230743845Y-164073085D02*
X230707560Y-164000514D01*
X230671274Y-163964228D01*
X230598702Y-163927942D01*
X230562417Y-163927942D01*
X230489845Y-163964228D01*
X230453560Y-164000514D01*
X230417274Y-164073085D01*
X230417274Y-164218228D01*
X230453560Y-164290800D01*
X230489845Y-164327085D01*
X230562417Y-164363371D01*
X230598702Y-164363371D01*
X230671274Y-164327085D01*
X230707560Y-164290800D01*
X230743845Y-164218228D01*
X230743845Y-164073085D01*
X230780131Y-164000514D01*
X230816417Y-163964228D01*
X230888988Y-163927942D01*
X231034131Y-163927942D01*
X231106702Y-163964228D01*
X231142988Y-164000514D01*
X231179274Y-164073085D01*
X231179274Y-164218228D01*
X231142988Y-164290800D01*
X231106702Y-164327085D01*
X231034131Y-164363371D01*
X230888988Y-164363371D01*
X230816417Y-164327085D01*
X230780131Y-164290800D01*
X230743845Y-164218228D01*
X230542502Y-158202282D02*
X230578788Y-158165997D01*
X230615074Y-158057140D01*
X230615074Y-157984568D01*
X230578788Y-157875711D01*
X230506217Y-157803140D01*
X230433645Y-157766854D01*
X230288502Y-157730568D01*
X230179645Y-157730568D01*
X230034502Y-157766854D01*
X229961931Y-157803140D01*
X229889360Y-157875711D01*
X229853074Y-157984568D01*
X229853074Y-158057140D01*
X229889360Y-158165997D01*
X229925645Y-158202282D01*
X230615074Y-158927997D02*
X230615074Y-158492568D01*
X230615074Y-158710282D02*
X229853074Y-158710282D01*
X229961931Y-158637711D01*
X230034502Y-158565140D01*
X230070788Y-158492568D01*
X230615074Y-159290854D02*
X230615074Y-159435997D01*
X230578788Y-159508568D01*
X230542502Y-159544854D01*
X230433645Y-159617425D01*
X230288502Y-159653711D01*
X229998217Y-159653711D01*
X229925645Y-159617425D01*
X229889360Y-159581140D01*
X229853074Y-159508568D01*
X229853074Y-159363425D01*
X229889360Y-159290854D01*
X229925645Y-159254568D01*
X229998217Y-159218282D01*
X230179645Y-159218282D01*
X230252217Y-159254568D01*
X230288502Y-159290854D01*
X230324788Y-159363425D01*
X230324788Y-159508568D01*
X230288502Y-159581140D01*
X230252217Y-159617425D01*
X230179645Y-159653711D01*
X251767370Y-165249357D02*
X252021370Y-164886500D01*
X252202798Y-165249357D02*
X252202798Y-164487357D01*
X251912513Y-164487357D01*
X251839941Y-164523643D01*
X251803655Y-164559928D01*
X251767370Y-164632500D01*
X251767370Y-164741357D01*
X251803655Y-164813928D01*
X251839941Y-164850214D01*
X251912513Y-164886500D01*
X252202798Y-164886500D01*
X251477084Y-164559928D02*
X251440798Y-164523643D01*
X251368227Y-164487357D01*
X251186798Y-164487357D01*
X251114227Y-164523643D01*
X251077941Y-164559928D01*
X251041655Y-164632500D01*
X251041655Y-164705071D01*
X251077941Y-164813928D01*
X251513370Y-165249357D01*
X251041655Y-165249357D01*
X250388513Y-164487357D02*
X250533655Y-164487357D01*
X250606227Y-164523643D01*
X250642513Y-164559928D01*
X250715084Y-164668785D01*
X250751370Y-164813928D01*
X250751370Y-165104214D01*
X250715084Y-165176785D01*
X250678798Y-165213071D01*
X250606227Y-165249357D01*
X250461084Y-165249357D01*
X250388513Y-165213071D01*
X250352227Y-165176785D01*
X250315941Y-165104214D01*
X250315941Y-164922785D01*
X250352227Y-164850214D01*
X250388513Y-164813928D01*
X250461084Y-164777643D01*
X250606227Y-164777643D01*
X250678798Y-164813928D01*
X250715084Y-164850214D01*
X250751370Y-164922785D01*
X251838097Y-163511564D02*
X252092097Y-163148707D01*
X252273525Y-163511564D02*
X252273525Y-162749564D01*
X251983240Y-162749564D01*
X251910668Y-162785850D01*
X251874382Y-162822135D01*
X251838097Y-162894707D01*
X251838097Y-163003564D01*
X251874382Y-163076135D01*
X251910668Y-163112421D01*
X251983240Y-163148707D01*
X252273525Y-163148707D01*
X251547811Y-162822135D02*
X251511525Y-162785850D01*
X251438954Y-162749564D01*
X251257525Y-162749564D01*
X251184954Y-162785850D01*
X251148668Y-162822135D01*
X251112382Y-162894707D01*
X251112382Y-162967278D01*
X251148668Y-163076135D01*
X251584097Y-163511564D01*
X251112382Y-163511564D01*
X250422954Y-162749564D02*
X250785811Y-162749564D01*
X250822097Y-163112421D01*
X250785811Y-163076135D01*
X250713240Y-163039850D01*
X250531811Y-163039850D01*
X250459240Y-163076135D01*
X250422954Y-163112421D01*
X250386668Y-163184992D01*
X250386668Y-163366421D01*
X250422954Y-163438992D01*
X250459240Y-163475278D01*
X250531811Y-163511564D01*
X250713240Y-163511564D01*
X250785811Y-163475278D01*
X250822097Y-163438992D01*
X251741786Y-162099557D02*
X251995786Y-161736700D01*
X252177214Y-162099557D02*
X252177214Y-161337557D01*
X251886929Y-161337557D01*
X251814357Y-161373843D01*
X251778071Y-161410128D01*
X251741786Y-161482700D01*
X251741786Y-161591557D01*
X251778071Y-161664128D01*
X251814357Y-161700414D01*
X251886929Y-161736700D01*
X252177214Y-161736700D01*
X251451500Y-161410128D02*
X251415214Y-161373843D01*
X251342643Y-161337557D01*
X251161214Y-161337557D01*
X251088643Y-161373843D01*
X251052357Y-161410128D01*
X251016071Y-161482700D01*
X251016071Y-161555271D01*
X251052357Y-161664128D01*
X251487786Y-162099557D01*
X251016071Y-162099557D01*
X250362929Y-161591557D02*
X250362929Y-162099557D01*
X250544357Y-161301271D02*
X250725786Y-161845557D01*
X250254071Y-161845557D01*
D14*
X255688374Y-156650145D02*
X255718612Y-156680383D01*
X255809326Y-156710621D01*
X255869802Y-156710621D01*
X255960517Y-156680383D01*
X256020993Y-156619907D01*
X256051231Y-156559431D01*
X256081469Y-156438479D01*
X256081469Y-156347764D01*
X256051231Y-156226812D01*
X256020993Y-156166336D01*
X255960517Y-156105860D01*
X255869802Y-156075621D01*
X255809326Y-156075621D01*
X255718612Y-156105860D01*
X255688374Y-156136098D01*
X255446469Y-156136098D02*
X255416231Y-156105860D01*
X255355755Y-156075621D01*
X255204564Y-156075621D01*
X255144088Y-156105860D01*
X255113850Y-156136098D01*
X255083612Y-156196574D01*
X255083612Y-156257050D01*
X255113850Y-156347764D01*
X255476707Y-156710621D01*
X255083612Y-156710621D01*
X254781231Y-156710621D02*
X254660279Y-156710621D01*
X254599802Y-156680383D01*
X254569564Y-156650145D01*
X254509088Y-156559431D01*
X254478850Y-156438479D01*
X254478850Y-156196574D01*
X254509088Y-156136098D01*
X254539326Y-156105860D01*
X254599802Y-156075621D01*
X254720755Y-156075621D01*
X254781231Y-156105860D01*
X254811469Y-156136098D01*
X254841707Y-156196574D01*
X254841707Y-156347764D01*
X254811469Y-156408240D01*
X254781231Y-156438479D01*
X254720755Y-156468717D01*
X254599802Y-156468717D01*
X254539326Y-156438479D01*
X254509088Y-156408240D01*
X254478850Y-156347764D01*
X256911565Y-161443125D02*
X256941803Y-161412887D01*
X256972041Y-161322173D01*
X256972041Y-161261697D01*
X256941803Y-161170982D01*
X256881327Y-161110506D01*
X256820851Y-161080268D01*
X256699899Y-161050030D01*
X256609184Y-161050030D01*
X256488232Y-161080268D01*
X256427756Y-161110506D01*
X256367280Y-161170982D01*
X256337041Y-161261697D01*
X256337041Y-161322173D01*
X256367280Y-161412887D01*
X256397518Y-161443125D01*
X256337041Y-161654792D02*
X256337041Y-162047887D01*
X256578946Y-161836220D01*
X256578946Y-161926935D01*
X256609184Y-161987411D01*
X256639422Y-162017649D01*
X256699899Y-162047887D01*
X256851089Y-162047887D01*
X256911565Y-162017649D01*
X256941803Y-161987411D01*
X256972041Y-161926935D01*
X256972041Y-161745506D01*
X256941803Y-161685030D01*
X256911565Y-161654792D01*
X256337041Y-162440982D02*
X256337041Y-162501459D01*
X256367280Y-162561935D01*
X256397518Y-162592173D01*
X256457994Y-162622411D01*
X256578946Y-162652649D01*
X256730137Y-162652649D01*
X256851089Y-162622411D01*
X256911565Y-162592173D01*
X256941803Y-162561935D01*
X256972041Y-162501459D01*
X256972041Y-162440982D01*
X256941803Y-162380506D01*
X256911565Y-162350268D01*
X256851089Y-162320030D01*
X256730137Y-162289792D01*
X256578946Y-162289792D01*
X256457994Y-162320030D01*
X256397518Y-162350268D01*
X256367280Y-162380506D01*
X256337041Y-162440982D01*
D10*
X251823807Y-155506252D02*
X252077807Y-155143395D01*
X252259235Y-155506252D02*
X252259235Y-154744252D01*
X251968950Y-154744252D01*
X251896378Y-154780538D01*
X251860092Y-154816823D01*
X251823807Y-154889395D01*
X251823807Y-154998252D01*
X251860092Y-155070823D01*
X251896378Y-155107109D01*
X251968950Y-155143395D01*
X252259235Y-155143395D01*
X251533521Y-154816823D02*
X251497235Y-154780538D01*
X251424664Y-154744252D01*
X251243235Y-154744252D01*
X251170664Y-154780538D01*
X251134378Y-154816823D01*
X251098092Y-154889395D01*
X251098092Y-154961966D01*
X251134378Y-155070823D01*
X251569807Y-155506252D01*
X251098092Y-155506252D01*
X250844092Y-154744252D02*
X250372378Y-154744252D01*
X250626378Y-155034538D01*
X250517521Y-155034538D01*
X250444950Y-155070823D01*
X250408664Y-155107109D01*
X250372378Y-155179680D01*
X250372378Y-155361109D01*
X250408664Y-155433680D01*
X250444950Y-155469966D01*
X250517521Y-155506252D01*
X250735235Y-155506252D01*
X250807807Y-155469966D01*
X250844092Y-155433680D01*
X251893977Y-153897874D02*
X252147977Y-153535017D01*
X252329405Y-153897874D02*
X252329405Y-153135874D01*
X252039120Y-153135874D01*
X251966548Y-153172160D01*
X251930262Y-153208445D01*
X251893977Y-153281017D01*
X251893977Y-153389874D01*
X251930262Y-153462445D01*
X251966548Y-153498731D01*
X252039120Y-153535017D01*
X252329405Y-153535017D01*
X251603691Y-153208445D02*
X251567405Y-153172160D01*
X251494834Y-153135874D01*
X251313405Y-153135874D01*
X251240834Y-153172160D01*
X251204548Y-153208445D01*
X251168262Y-153281017D01*
X251168262Y-153353588D01*
X251204548Y-153462445D01*
X251639977Y-153897874D01*
X251168262Y-153897874D01*
X250877977Y-153208445D02*
X250841691Y-153172160D01*
X250769120Y-153135874D01*
X250587691Y-153135874D01*
X250515120Y-153172160D01*
X250478834Y-153208445D01*
X250442548Y-153281017D01*
X250442548Y-153353588D01*
X250478834Y-153462445D01*
X250914262Y-153897874D01*
X250442548Y-153897874D01*
X225168590Y-152425911D02*
X224805733Y-152171911D01*
X225168590Y-151990483D02*
X224406590Y-151990483D01*
X224406590Y-152280769D01*
X224442876Y-152353340D01*
X224479161Y-152389626D01*
X224551733Y-152425911D01*
X224660590Y-152425911D01*
X224733161Y-152389626D01*
X224769447Y-152353340D01*
X224805733Y-152280769D01*
X224805733Y-151990483D01*
X225168590Y-153151626D02*
X225168590Y-152716197D01*
X225168590Y-152933911D02*
X224406590Y-152933911D01*
X224515447Y-152861340D01*
X224588018Y-152788769D01*
X224624304Y-152716197D01*
X224660590Y-153804769D02*
X225168590Y-153804769D01*
X224370304Y-153623340D02*
X224914590Y-153441911D01*
X224914590Y-153913626D01*
X219673444Y-152515842D02*
X219310587Y-152261842D01*
X219673444Y-152080414D02*
X218911444Y-152080414D01*
X218911444Y-152370700D01*
X218947730Y-152443271D01*
X218984015Y-152479557D01*
X219056587Y-152515842D01*
X219165444Y-152515842D01*
X219238015Y-152479557D01*
X219274301Y-152443271D01*
X219310587Y-152370700D01*
X219310587Y-152080414D01*
X219673444Y-153241557D02*
X219673444Y-152806128D01*
X219673444Y-153023842D02*
X218911444Y-153023842D01*
X219020301Y-152951271D01*
X219092872Y-152878700D01*
X219129158Y-152806128D01*
X218911444Y-153495557D02*
X218911444Y-153967271D01*
X219201730Y-153713271D01*
X219201730Y-153822128D01*
X219238015Y-153894700D01*
X219274301Y-153930985D01*
X219346872Y-153967271D01*
X219528301Y-153967271D01*
X219600872Y-153930985D01*
X219637158Y-153894700D01*
X219673444Y-153822128D01*
X219673444Y-153604414D01*
X219637158Y-153531842D01*
X219600872Y-153495557D01*
X217160903Y-151765865D02*
X217197188Y-151802151D01*
X217306046Y-151838437D01*
X217378617Y-151838437D01*
X217487474Y-151802151D01*
X217560046Y-151729580D01*
X217596331Y-151657008D01*
X217632617Y-151511865D01*
X217632617Y-151403008D01*
X217596331Y-151257865D01*
X217560046Y-151185294D01*
X217487474Y-151112723D01*
X217378617Y-151076437D01*
X217306046Y-151076437D01*
X217197188Y-151112723D01*
X217160903Y-151149008D01*
X216435188Y-151838437D02*
X216870617Y-151838437D01*
X216652903Y-151838437D02*
X216652903Y-151076437D01*
X216725474Y-151185294D01*
X216798046Y-151257865D01*
X216870617Y-151294151D01*
X215745760Y-151076437D02*
X216108617Y-151076437D01*
X216144903Y-151439294D01*
X216108617Y-151403008D01*
X216036046Y-151366723D01*
X215854617Y-151366723D01*
X215782046Y-151403008D01*
X215745760Y-151439294D01*
X215709474Y-151511865D01*
X215709474Y-151693294D01*
X215745760Y-151765865D01*
X215782046Y-151802151D01*
X215854617Y-151838437D01*
X216036046Y-151838437D01*
X216108617Y-151802151D01*
X216144903Y-151765865D01*
X212315697Y-151869522D02*
X212351982Y-151905808D01*
X212460840Y-151942094D01*
X212533411Y-151942094D01*
X212642268Y-151905808D01*
X212714840Y-151833237D01*
X212751125Y-151760665D01*
X212787411Y-151615522D01*
X212787411Y-151506665D01*
X212751125Y-151361522D01*
X212714840Y-151288951D01*
X212642268Y-151216380D01*
X212533411Y-151180094D01*
X212460840Y-151180094D01*
X212351982Y-151216380D01*
X212315697Y-151252665D01*
X211589982Y-151942094D02*
X212025411Y-151942094D01*
X211807697Y-151942094D02*
X211807697Y-151180094D01*
X211880268Y-151288951D01*
X211952840Y-151361522D01*
X212025411Y-151397808D01*
X210936840Y-151180094D02*
X211081982Y-151180094D01*
X211154554Y-151216380D01*
X211190840Y-151252665D01*
X211263411Y-151361522D01*
X211299697Y-151506665D01*
X211299697Y-151796951D01*
X211263411Y-151869522D01*
X211227125Y-151905808D01*
X211154554Y-151942094D01*
X211009411Y-151942094D01*
X210936840Y-151905808D01*
X210900554Y-151869522D01*
X210864268Y-151796951D01*
X210864268Y-151615522D01*
X210900554Y-151542951D01*
X210936840Y-151506665D01*
X211009411Y-151470380D01*
X211154554Y-151470380D01*
X211227125Y-151506665D01*
X211263411Y-151542951D01*
X211299697Y-151615522D01*
X219079187Y-143172510D02*
X219333187Y-142809653D01*
X219514615Y-143172510D02*
X219514615Y-142410510D01*
X219224330Y-142410510D01*
X219151758Y-142446796D01*
X219115472Y-142483081D01*
X219079187Y-142555653D01*
X219079187Y-142664510D01*
X219115472Y-142737081D01*
X219151758Y-142773367D01*
X219224330Y-142809653D01*
X219514615Y-142809653D01*
X218353472Y-143172510D02*
X218788901Y-143172510D01*
X218571187Y-143172510D02*
X218571187Y-142410510D01*
X218643758Y-142519367D01*
X218716330Y-142591938D01*
X218788901Y-142628224D01*
X217627758Y-143172510D02*
X218063187Y-143172510D01*
X217845472Y-143172510D02*
X217845472Y-142410510D01*
X217918044Y-142519367D01*
X217990615Y-142591938D01*
X218063187Y-142628224D01*
X208028177Y-141350274D02*
X208282177Y-140987417D01*
X208463605Y-141350274D02*
X208463605Y-140588274D01*
X208173320Y-140588274D01*
X208100748Y-140624560D01*
X208064462Y-140660845D01*
X208028177Y-140733417D01*
X208028177Y-140842274D01*
X208064462Y-140914845D01*
X208100748Y-140951131D01*
X208173320Y-140987417D01*
X208463605Y-140987417D01*
X207302462Y-141350274D02*
X207737891Y-141350274D01*
X207520177Y-141350274D02*
X207520177Y-140588274D01*
X207592748Y-140697131D01*
X207665320Y-140769702D01*
X207737891Y-140805988D01*
X207048462Y-140588274D02*
X206540462Y-140588274D01*
X206867034Y-141350274D01*
X203425697Y-141563634D02*
X203679697Y-141200777D01*
X203861125Y-141563634D02*
X203861125Y-140801634D01*
X203570840Y-140801634D01*
X203498268Y-140837920D01*
X203461982Y-140874205D01*
X203425697Y-140946777D01*
X203425697Y-141055634D01*
X203461982Y-141128205D01*
X203498268Y-141164491D01*
X203570840Y-141200777D01*
X203861125Y-141200777D01*
X202699982Y-141563634D02*
X203135411Y-141563634D01*
X202917697Y-141563634D02*
X202917697Y-140801634D01*
X202990268Y-140910491D01*
X203062840Y-140983062D01*
X203135411Y-141019348D01*
X202046840Y-140801634D02*
X202191982Y-140801634D01*
X202264554Y-140837920D01*
X202300840Y-140874205D01*
X202373411Y-140983062D01*
X202409697Y-141128205D01*
X202409697Y-141418491D01*
X202373411Y-141491062D01*
X202337125Y-141527348D01*
X202264554Y-141563634D01*
X202119411Y-141563634D01*
X202046840Y-141527348D01*
X202010554Y-141491062D01*
X201974268Y-141418491D01*
X201974268Y-141237062D01*
X202010554Y-141164491D01*
X202046840Y-141128205D01*
X202119411Y-141091920D01*
X202264554Y-141091920D01*
X202337125Y-141128205D01*
X202373411Y-141164491D01*
X202409697Y-141237062D01*
X200674877Y-141614434D02*
X200928877Y-141251577D01*
X201110305Y-141614434D02*
X201110305Y-140852434D01*
X200820020Y-140852434D01*
X200747448Y-140888720D01*
X200711162Y-140925005D01*
X200674877Y-140997577D01*
X200674877Y-141106434D01*
X200711162Y-141179005D01*
X200747448Y-141215291D01*
X200820020Y-141251577D01*
X201110305Y-141251577D01*
X199949162Y-141614434D02*
X200384591Y-141614434D01*
X200166877Y-141614434D02*
X200166877Y-140852434D01*
X200239448Y-140961291D01*
X200312020Y-141033862D01*
X200384591Y-141070148D01*
X199259734Y-140852434D02*
X199622591Y-140852434D01*
X199658877Y-141215291D01*
X199622591Y-141179005D01*
X199550020Y-141142720D01*
X199368591Y-141142720D01*
X199296020Y-141179005D01*
X199259734Y-141215291D01*
X199223448Y-141287862D01*
X199223448Y-141469291D01*
X199259734Y-141541862D01*
X199296020Y-141578148D01*
X199368591Y-141614434D01*
X199550020Y-141614434D01*
X199622591Y-141578148D01*
X199658877Y-141541862D01*
X198973077Y-140583194D02*
X199227077Y-140220337D01*
X199408505Y-140583194D02*
X199408505Y-139821194D01*
X199118220Y-139821194D01*
X199045648Y-139857480D01*
X199009362Y-139893765D01*
X198973077Y-139966337D01*
X198973077Y-140075194D01*
X199009362Y-140147765D01*
X199045648Y-140184051D01*
X199118220Y-140220337D01*
X199408505Y-140220337D01*
X198247362Y-140583194D02*
X198682791Y-140583194D01*
X198465077Y-140583194D02*
X198465077Y-139821194D01*
X198537648Y-139930051D01*
X198610220Y-140002622D01*
X198682791Y-140038908D01*
X197775648Y-139821194D02*
X197703077Y-139821194D01*
X197630505Y-139857480D01*
X197594220Y-139893765D01*
X197557934Y-139966337D01*
X197521648Y-140111480D01*
X197521648Y-140292908D01*
X197557934Y-140438051D01*
X197594220Y-140510622D01*
X197630505Y-140546908D01*
X197703077Y-140583194D01*
X197775648Y-140583194D01*
X197848220Y-140546908D01*
X197884505Y-140510622D01*
X197920791Y-140438051D01*
X197957077Y-140292908D01*
X197957077Y-140111480D01*
X197920791Y-139966337D01*
X197884505Y-139893765D01*
X197848220Y-139857480D01*
X197775648Y-139821194D01*
X196954140Y-141558554D02*
X197208140Y-141195697D01*
X197389568Y-141558554D02*
X197389568Y-140796554D01*
X197099282Y-140796554D01*
X197026711Y-140832840D01*
X196990425Y-140869125D01*
X196954140Y-140941697D01*
X196954140Y-141050554D01*
X196990425Y-141123125D01*
X197026711Y-141159411D01*
X197099282Y-141195697D01*
X197389568Y-141195697D01*
X196591282Y-141558554D02*
X196446140Y-141558554D01*
X196373568Y-141522268D01*
X196337282Y-141485982D01*
X196264711Y-141377125D01*
X196228425Y-141231982D01*
X196228425Y-140941697D01*
X196264711Y-140869125D01*
X196300997Y-140832840D01*
X196373568Y-140796554D01*
X196518711Y-140796554D01*
X196591282Y-140832840D01*
X196627568Y-140869125D01*
X196663854Y-140941697D01*
X196663854Y-141123125D01*
X196627568Y-141195697D01*
X196591282Y-141231982D01*
X196518711Y-141268268D01*
X196373568Y-141268268D01*
X196300997Y-141231982D01*
X196264711Y-141195697D01*
X196228425Y-141123125D01*
X194830700Y-141485982D02*
X194866985Y-141522268D01*
X194975842Y-141558554D01*
X195048414Y-141558554D01*
X195157271Y-141522268D01*
X195229842Y-141449697D01*
X195266128Y-141377125D01*
X195302414Y-141231982D01*
X195302414Y-141123125D01*
X195266128Y-140977982D01*
X195229842Y-140905411D01*
X195157271Y-140832840D01*
X195048414Y-140796554D01*
X194975842Y-140796554D01*
X194866985Y-140832840D01*
X194830700Y-140869125D01*
X194576700Y-140796554D02*
X194068700Y-140796554D01*
X194395271Y-141558554D01*
X183822340Y-152766122D02*
X183858625Y-152802408D01*
X183967482Y-152838694D01*
X184040054Y-152838694D01*
X184148911Y-152802408D01*
X184221482Y-152729837D01*
X184257768Y-152657265D01*
X184294054Y-152512122D01*
X184294054Y-152403265D01*
X184257768Y-152258122D01*
X184221482Y-152185551D01*
X184148911Y-152112980D01*
X184040054Y-152076694D01*
X183967482Y-152076694D01*
X183858625Y-152112980D01*
X183822340Y-152149265D01*
X183169197Y-152076694D02*
X183314340Y-152076694D01*
X183386911Y-152112980D01*
X183423197Y-152149265D01*
X183495768Y-152258122D01*
X183532054Y-152403265D01*
X183532054Y-152693551D01*
X183495768Y-152766122D01*
X183459482Y-152802408D01*
X183386911Y-152838694D01*
X183241768Y-152838694D01*
X183169197Y-152802408D01*
X183132911Y-152766122D01*
X183096625Y-152693551D01*
X183096625Y-152512122D01*
X183132911Y-152439551D01*
X183169197Y-152403265D01*
X183241768Y-152366980D01*
X183386911Y-152366980D01*
X183459482Y-152403265D01*
X183495768Y-152439551D01*
X183532054Y-152512122D01*
X188761914Y-147698460D02*
X188399057Y-147444460D01*
X188761914Y-147263031D02*
X187999914Y-147263031D01*
X187999914Y-147553317D01*
X188036200Y-147625888D01*
X188072485Y-147662174D01*
X188145057Y-147698460D01*
X188253914Y-147698460D01*
X188326485Y-147662174D01*
X188362771Y-147625888D01*
X188399057Y-147553317D01*
X188399057Y-147263031D01*
X187999914Y-147952460D02*
X187999914Y-148460460D01*
X188761914Y-148133888D01*
X185092340Y-143054614D02*
X185346340Y-142691757D01*
X185527768Y-143054614D02*
X185527768Y-142292614D01*
X185237482Y-142292614D01*
X185164911Y-142328900D01*
X185128625Y-142365185D01*
X185092340Y-142437757D01*
X185092340Y-142546614D01*
X185128625Y-142619185D01*
X185164911Y-142655471D01*
X185237482Y-142691757D01*
X185527768Y-142691757D01*
X184656911Y-142619185D02*
X184729482Y-142582900D01*
X184765768Y-142546614D01*
X184802054Y-142474042D01*
X184802054Y-142437757D01*
X184765768Y-142365185D01*
X184729482Y-142328900D01*
X184656911Y-142292614D01*
X184511768Y-142292614D01*
X184439197Y-142328900D01*
X184402911Y-142365185D01*
X184366625Y-142437757D01*
X184366625Y-142474042D01*
X184402911Y-142546614D01*
X184439197Y-142582900D01*
X184511768Y-142619185D01*
X184656911Y-142619185D01*
X184729482Y-142655471D01*
X184765768Y-142691757D01*
X184802054Y-142764328D01*
X184802054Y-142909471D01*
X184765768Y-142982042D01*
X184729482Y-143018328D01*
X184656911Y-143054614D01*
X184511768Y-143054614D01*
X184439197Y-143018328D01*
X184402911Y-142982042D01*
X184366625Y-142909471D01*
X184366625Y-142764328D01*
X184402911Y-142691757D01*
X184439197Y-142655471D01*
X184511768Y-142619185D01*
X162519360Y-171550874D02*
X162773360Y-171188017D01*
X162954788Y-171550874D02*
X162954788Y-170788874D01*
X162664502Y-170788874D01*
X162591931Y-170825160D01*
X162555645Y-170861445D01*
X162519360Y-170934017D01*
X162519360Y-171042874D01*
X162555645Y-171115445D01*
X162591931Y-171151731D01*
X162664502Y-171188017D01*
X162954788Y-171188017D01*
X162229074Y-170861445D02*
X162192788Y-170825160D01*
X162120217Y-170788874D01*
X161938788Y-170788874D01*
X161866217Y-170825160D01*
X161829931Y-170861445D01*
X161793645Y-170934017D01*
X161793645Y-171006588D01*
X161829931Y-171115445D01*
X162265360Y-171550874D01*
X161793645Y-171550874D01*
D14*
X156623173Y-165428385D02*
X156653411Y-165458623D01*
X156744125Y-165488861D01*
X156804601Y-165488861D01*
X156895316Y-165458623D01*
X156955792Y-165398147D01*
X156986030Y-165337671D01*
X157016268Y-165216719D01*
X157016268Y-165126004D01*
X156986030Y-165005052D01*
X156955792Y-164944576D01*
X156895316Y-164884100D01*
X156804601Y-164853861D01*
X156744125Y-164853861D01*
X156653411Y-164884100D01*
X156623173Y-164914338D01*
X156078887Y-165065528D02*
X156078887Y-165488861D01*
X156230078Y-164823623D02*
X156381268Y-165277195D01*
X155988173Y-165277195D01*
D10*
X164787580Y-175500574D02*
X165041580Y-175137717D01*
X165223008Y-175500574D02*
X165223008Y-174738574D01*
X164932722Y-174738574D01*
X164860151Y-174774860D01*
X164823865Y-174811145D01*
X164787580Y-174883717D01*
X164787580Y-174992574D01*
X164823865Y-175065145D01*
X164860151Y-175101431D01*
X164932722Y-175137717D01*
X165223008Y-175137717D01*
X164098151Y-174738574D02*
X164461008Y-174738574D01*
X164497294Y-175101431D01*
X164461008Y-175065145D01*
X164388437Y-175028860D01*
X164207008Y-175028860D01*
X164134437Y-175065145D01*
X164098151Y-175101431D01*
X164061865Y-175174002D01*
X164061865Y-175355431D01*
X164098151Y-175428002D01*
X164134437Y-175464288D01*
X164207008Y-175500574D01*
X164388437Y-175500574D01*
X164461008Y-175464288D01*
X164497294Y-175428002D01*
X168148000Y-173867354D02*
X168402000Y-173504497D01*
X168583428Y-173867354D02*
X168583428Y-173105354D01*
X168293142Y-173105354D01*
X168220571Y-173141640D01*
X168184285Y-173177925D01*
X168148000Y-173250497D01*
X168148000Y-173359354D01*
X168184285Y-173431925D01*
X168220571Y-173468211D01*
X168293142Y-173504497D01*
X168583428Y-173504497D01*
X167494857Y-173359354D02*
X167494857Y-173867354D01*
X167676285Y-173069068D02*
X167857714Y-173613354D01*
X167386000Y-173613354D01*
X172103639Y-174320031D02*
X172103639Y-173558031D01*
X171922211Y-173558031D01*
X171813353Y-173594317D01*
X171740782Y-173666888D01*
X171704496Y-173739459D01*
X171668211Y-173884602D01*
X171668211Y-173993459D01*
X171704496Y-174138602D01*
X171740782Y-174211174D01*
X171813353Y-174283745D01*
X171922211Y-174320031D01*
X172103639Y-174320031D01*
X171377925Y-173630602D02*
X171341639Y-173594317D01*
X171269068Y-173558031D01*
X171087639Y-173558031D01*
X171015068Y-173594317D01*
X170978782Y-173630602D01*
X170942496Y-173703174D01*
X170942496Y-173775745D01*
X170978782Y-173884602D01*
X171414211Y-174320031D01*
X170942496Y-174320031D01*
X173359354Y-170032680D02*
X172996497Y-169778680D01*
X173359354Y-169597251D02*
X172597354Y-169597251D01*
X172597354Y-169887537D01*
X172633640Y-169960108D01*
X172669925Y-169996394D01*
X172742497Y-170032680D01*
X172851354Y-170032680D01*
X172923925Y-169996394D01*
X172960211Y-169960108D01*
X172996497Y-169887537D01*
X172996497Y-169597251D01*
X172597354Y-170286680D02*
X172597354Y-170758394D01*
X172887640Y-170504394D01*
X172887640Y-170613251D01*
X172923925Y-170685822D01*
X172960211Y-170722108D01*
X173032782Y-170758394D01*
X173214211Y-170758394D01*
X173286782Y-170722108D01*
X173323068Y-170685822D01*
X173359354Y-170613251D01*
X173359354Y-170395537D01*
X173323068Y-170322965D01*
X173286782Y-170286680D01*
X174150382Y-167406320D02*
X174186668Y-167370034D01*
X174222954Y-167261177D01*
X174222954Y-167188605D01*
X174186668Y-167079748D01*
X174114097Y-167007177D01*
X174041525Y-166970891D01*
X173896382Y-166934605D01*
X173787525Y-166934605D01*
X173642382Y-166970891D01*
X173569811Y-167007177D01*
X173497240Y-167079748D01*
X173460954Y-167188605D01*
X173460954Y-167261177D01*
X173497240Y-167370034D01*
X173533525Y-167406320D01*
X173460954Y-168095748D02*
X173460954Y-167732891D01*
X173823811Y-167696605D01*
X173787525Y-167732891D01*
X173751240Y-167805462D01*
X173751240Y-167986891D01*
X173787525Y-168059462D01*
X173823811Y-168095748D01*
X173896382Y-168132034D01*
X174077811Y-168132034D01*
X174150382Y-168095748D01*
X174186668Y-168059462D01*
X174222954Y-167986891D01*
X174222954Y-167805462D01*
X174186668Y-167732891D01*
X174150382Y-167696605D01*
X164867142Y-164778000D02*
X164903428Y-164741714D01*
X164939714Y-164632857D01*
X164939714Y-164560285D01*
X164903428Y-164451428D01*
X164830857Y-164378857D01*
X164758285Y-164342571D01*
X164613142Y-164306285D01*
X164504285Y-164306285D01*
X164359142Y-164342571D01*
X164286571Y-164378857D01*
X164214000Y-164451428D01*
X164177714Y-164560285D01*
X164177714Y-164632857D01*
X164214000Y-164741714D01*
X164250285Y-164778000D01*
X164177714Y-165032000D02*
X164177714Y-165503714D01*
X164468000Y-165249714D01*
X164468000Y-165358571D01*
X164504285Y-165431142D01*
X164540571Y-165467428D01*
X164613142Y-165503714D01*
X164794571Y-165503714D01*
X164867142Y-165467428D01*
X164903428Y-165431142D01*
X164939714Y-165358571D01*
X164939714Y-165140857D01*
X164903428Y-165068285D01*
X164867142Y-165032000D01*
X170679654Y-160643751D02*
X169917654Y-160643751D01*
X169917654Y-160825180D01*
X169953940Y-160934037D01*
X170026511Y-161006608D01*
X170099082Y-161042894D01*
X170244225Y-161079180D01*
X170353082Y-161079180D01*
X170498225Y-161042894D01*
X170570797Y-161006608D01*
X170643368Y-160934037D01*
X170679654Y-160825180D01*
X170679654Y-160643751D01*
X169917654Y-161768608D02*
X169917654Y-161405751D01*
X170280511Y-161369465D01*
X170244225Y-161405751D01*
X170207940Y-161478322D01*
X170207940Y-161659751D01*
X170244225Y-161732322D01*
X170280511Y-161768608D01*
X170353082Y-161804894D01*
X170534511Y-161804894D01*
X170607082Y-161768608D01*
X170643368Y-161732322D01*
X170679654Y-161659751D01*
X170679654Y-161478322D01*
X170643368Y-161405751D01*
X170607082Y-161369465D01*
X163070540Y-163465691D02*
X163324540Y-163465691D01*
X163324540Y-163864834D02*
X163324540Y-163102834D01*
X162961682Y-163102834D01*
X162272254Y-163864834D02*
X162707682Y-163864834D01*
X162489968Y-163864834D02*
X162489968Y-163102834D01*
X162562540Y-163211691D01*
X162635111Y-163284262D01*
X162707682Y-163320548D01*
X164917482Y-156852620D02*
X164953768Y-156816334D01*
X164990054Y-156707477D01*
X164990054Y-156634905D01*
X164953768Y-156526048D01*
X164881197Y-156453477D01*
X164808625Y-156417191D01*
X164663482Y-156380905D01*
X164554625Y-156380905D01*
X164409482Y-156417191D01*
X164336911Y-156453477D01*
X164264340Y-156526048D01*
X164228054Y-156634905D01*
X164228054Y-156707477D01*
X164264340Y-156816334D01*
X164300625Y-156852620D01*
X164300625Y-157142905D02*
X164264340Y-157179191D01*
X164228054Y-157251762D01*
X164228054Y-157433191D01*
X164264340Y-157505762D01*
X164300625Y-157542048D01*
X164373197Y-157578334D01*
X164445768Y-157578334D01*
X164554625Y-157542048D01*
X164990054Y-157106620D01*
X164990054Y-157578334D01*
X164840194Y-155021280D02*
X164477337Y-154767280D01*
X164840194Y-154585851D02*
X164078194Y-154585851D01*
X164078194Y-154876137D01*
X164114480Y-154948708D01*
X164150765Y-154984994D01*
X164223337Y-155021280D01*
X164332194Y-155021280D01*
X164404765Y-154984994D01*
X164441051Y-154948708D01*
X164477337Y-154876137D01*
X164477337Y-154585851D01*
X164078194Y-155674422D02*
X164078194Y-155529280D01*
X164114480Y-155456708D01*
X164150765Y-155420422D01*
X164259622Y-155347851D01*
X164404765Y-155311565D01*
X164695051Y-155311565D01*
X164767622Y-155347851D01*
X164803908Y-155384137D01*
X164840194Y-155456708D01*
X164840194Y-155601851D01*
X164803908Y-155674422D01*
X164767622Y-155710708D01*
X164695051Y-155746994D01*
X164513622Y-155746994D01*
X164441051Y-155710708D01*
X164404765Y-155674422D01*
X164368480Y-155601851D01*
X164368480Y-155456708D01*
X164404765Y-155384137D01*
X164441051Y-155347851D01*
X164513622Y-155311565D01*
D14*
X155819081Y-153317786D02*
X155516700Y-153106120D01*
X155819081Y-152954929D02*
X155184081Y-152954929D01*
X155184081Y-153196834D01*
X155214320Y-153257310D01*
X155244558Y-153287548D01*
X155305034Y-153317786D01*
X155395748Y-153317786D01*
X155456224Y-153287548D01*
X155486462Y-153257310D01*
X155516700Y-153196834D01*
X155516700Y-152954929D01*
X155819081Y-153922548D02*
X155819081Y-153559691D01*
X155819081Y-153741120D02*
X155184081Y-153741120D01*
X155274796Y-153680643D01*
X155335272Y-153620167D01*
X155365510Y-153559691D01*
X155786545Y-154730026D02*
X155816783Y-154699788D01*
X155847021Y-154609074D01*
X155847021Y-154548598D01*
X155816783Y-154457883D01*
X155756307Y-154397407D01*
X155695831Y-154367169D01*
X155574879Y-154336931D01*
X155484164Y-154336931D01*
X155363212Y-154367169D01*
X155302736Y-154397407D01*
X155242260Y-154457883D01*
X155212021Y-154548598D01*
X155212021Y-154609074D01*
X155242260Y-154699788D01*
X155272498Y-154730026D01*
X155847021Y-155334788D02*
X155847021Y-154971931D01*
X155847021Y-155153360D02*
X155212021Y-155153360D01*
X155302736Y-155092883D01*
X155363212Y-155032407D01*
X155393450Y-154971931D01*
D12*
X233042697Y-180199302D02*
X233090316Y-180246921D01*
X233233173Y-180294540D01*
X233328411Y-180294540D01*
X233471268Y-180246921D01*
X233566506Y-180151683D01*
X233614125Y-180056445D01*
X233661744Y-179865969D01*
X233661744Y-179723112D01*
X233614125Y-179532636D01*
X233566506Y-179437398D01*
X233471268Y-179342160D01*
X233328411Y-179294540D01*
X233233173Y-179294540D01*
X233090316Y-179342160D01*
X233042697Y-179389779D01*
X232709363Y-179294540D02*
X232090316Y-179294540D01*
X232423649Y-179675493D01*
X232280792Y-179675493D01*
X232185554Y-179723112D01*
X232137935Y-179770731D01*
X232090316Y-179865969D01*
X232090316Y-180104064D01*
X232137935Y-180199302D01*
X232185554Y-180246921D01*
X232280792Y-180294540D01*
X232566506Y-180294540D01*
X232661744Y-180246921D01*
X232709363Y-180199302D01*
X231137935Y-180294540D02*
X231709363Y-180294540D01*
X231423649Y-180294540D02*
X231423649Y-179294540D01*
X231518887Y-179437398D01*
X231614125Y-179532636D01*
X231709363Y-179580255D01*
X231180544Y-168651940D02*
X231180544Y-169461464D01*
X231132925Y-169556702D01*
X231085306Y-169604321D01*
X230990068Y-169651940D01*
X230799592Y-169651940D01*
X230704354Y-169604321D01*
X230656735Y-169556702D01*
X230609116Y-169461464D01*
X230609116Y-168651940D01*
X229656735Y-168651940D02*
X230132925Y-168651940D01*
X230180544Y-169128131D01*
X230132925Y-169080512D01*
X230037687Y-169032893D01*
X229799592Y-169032893D01*
X229704354Y-169080512D01*
X229656735Y-169128131D01*
X229609116Y-169223369D01*
X229609116Y-169461464D01*
X229656735Y-169556702D01*
X229704354Y-169604321D01*
X229799592Y-169651940D01*
X230037687Y-169651940D01*
X230132925Y-169604321D01*
X230180544Y-169556702D01*
X251175780Y-157548342D02*
X250699590Y-157215009D01*
X251175780Y-156976914D02*
X250175780Y-156976914D01*
X250175780Y-157357866D01*
X250223400Y-157453104D01*
X250271019Y-157500723D01*
X250366257Y-157548342D01*
X250509114Y-157548342D01*
X250604352Y-157500723D01*
X250651971Y-157453104D01*
X250699590Y-157357866D01*
X250699590Y-156976914D01*
X250271019Y-157929295D02*
X250223400Y-157976914D01*
X250175780Y-158072152D01*
X250175780Y-158310247D01*
X250223400Y-158405485D01*
X250271019Y-158453104D01*
X250366257Y-158500723D01*
X250461495Y-158500723D01*
X250604352Y-158453104D01*
X251175780Y-157881676D01*
X251175780Y-158500723D01*
X251175780Y-159453104D02*
X251175780Y-158881676D01*
X251175780Y-159167390D02*
X250175780Y-159167390D01*
X250318638Y-159072152D01*
X250413876Y-158976914D01*
X250461495Y-158881676D01*
D10*
X192939851Y-150433314D02*
X192939851Y-151050171D01*
X192903565Y-151122742D01*
X192867280Y-151159028D01*
X192794708Y-151195314D01*
X192649565Y-151195314D01*
X192576994Y-151159028D01*
X192540708Y-151122742D01*
X192504422Y-151050171D01*
X192504422Y-150433314D01*
X191814994Y-150687314D02*
X191814994Y-151195314D01*
X191996422Y-150397028D02*
X192177851Y-150941314D01*
X191706137Y-150941314D01*
X202610508Y-150726180D02*
X203039080Y-150726180D01*
X203081937Y-151202371D01*
X203039080Y-151154752D01*
X202953365Y-151107133D01*
X202739080Y-151107133D01*
X202653365Y-151154752D01*
X202610508Y-151202371D01*
X202567651Y-151297609D01*
X202567651Y-151535704D01*
X202610508Y-151630942D01*
X202653365Y-151678561D01*
X202739080Y-151726180D01*
X202953365Y-151726180D01*
X203039080Y-151678561D01*
X203081937Y-151630942D01*
X201710508Y-151726180D02*
X202224794Y-151726180D01*
X201967651Y-151726180D02*
X201967651Y-150726180D01*
X202053365Y-150869038D01*
X202139080Y-150964276D01*
X202224794Y-151011895D01*
X201367651Y-150821419D02*
X201324794Y-150773800D01*
X201239080Y-150726180D01*
X201024794Y-150726180D01*
X200939080Y-150773800D01*
X200896222Y-150821419D01*
X200853365Y-150916657D01*
X200853365Y-151011895D01*
X200896222Y-151154752D01*
X201410508Y-151726180D01*
X200853365Y-151726180D01*
X200424794Y-151726180D02*
X200253365Y-151726180D01*
X200167651Y-151678561D01*
X200124794Y-151630942D01*
X200039080Y-151488085D01*
X199996222Y-151297609D01*
X199996222Y-150916657D01*
X200039080Y-150821419D01*
X200081937Y-150773800D01*
X200167651Y-150726180D01*
X200339080Y-150726180D01*
X200424794Y-150773800D01*
X200467651Y-150821419D01*
X200510508Y-150916657D01*
X200510508Y-151154752D01*
X200467651Y-151249990D01*
X200424794Y-151297609D01*
X200339080Y-151345228D01*
X200167651Y-151345228D01*
X200081937Y-151297609D01*
X200039080Y-151249990D01*
X199996222Y-151154752D01*
X199224794Y-150726180D02*
X199396222Y-150726180D01*
X199481937Y-150773800D01*
X199524794Y-150821419D01*
X199610508Y-150964276D01*
X199653365Y-151154752D01*
X199653365Y-151535704D01*
X199610508Y-151630942D01*
X199567651Y-151678561D01*
X199481937Y-151726180D01*
X199310508Y-151726180D01*
X199224794Y-151678561D01*
X199181937Y-151630942D01*
X199139080Y-151535704D01*
X199139080Y-151297609D01*
X199181937Y-151202371D01*
X199224794Y-151154752D01*
X199310508Y-151107133D01*
X199481937Y-151107133D01*
X199567651Y-151154752D01*
X199610508Y-151202371D01*
X199653365Y-151297609D01*
X198753365Y-151345228D02*
X198067651Y-151345228D01*
X197210508Y-150726180D02*
X197639080Y-150726180D01*
X197681937Y-151202371D01*
X197639080Y-151154752D01*
X197553365Y-151107133D01*
X197339080Y-151107133D01*
X197253365Y-151154752D01*
X197210508Y-151202371D01*
X197167651Y-151297609D01*
X197167651Y-151535704D01*
X197210508Y-151630942D01*
X197253365Y-151678561D01*
X197339080Y-151726180D01*
X197553365Y-151726180D01*
X197639080Y-151678561D01*
X197681937Y-151630942D01*
X196396222Y-151059514D02*
X196396222Y-151726180D01*
X196610508Y-150678561D02*
X196824794Y-151392847D01*
X196267651Y-151392847D01*
X195881937Y-151726180D02*
X195710508Y-151726180D01*
X195624794Y-151678561D01*
X195581937Y-151630942D01*
X195496222Y-151488085D01*
X195453365Y-151297609D01*
X195453365Y-150916657D01*
X195496222Y-150821419D01*
X195539080Y-150773800D01*
X195624794Y-150726180D01*
X195796222Y-150726180D01*
X195881937Y-150773800D01*
X195924794Y-150821419D01*
X195967651Y-150916657D01*
X195967651Y-151154752D01*
X195924794Y-151249990D01*
X195881937Y-151297609D01*
X195796222Y-151345228D01*
X195624794Y-151345228D01*
X195539080Y-151297609D01*
X195496222Y-151249990D01*
X195453365Y-151154752D01*
X194681937Y-151059514D02*
X194681937Y-151726180D01*
X194896222Y-150678561D02*
X195110508Y-151392847D01*
X194553365Y-151392847D01*
X202524794Y-153426180D02*
X202953365Y-153426180D01*
X202953365Y-152426180D01*
X201624794Y-153521419D02*
X201710508Y-153473800D01*
X201796222Y-153378561D01*
X201924794Y-153235704D01*
X202010508Y-153188085D01*
X202096222Y-153188085D01*
X202053365Y-153426180D02*
X202139080Y-153378561D01*
X202224794Y-153283323D01*
X202267651Y-153092847D01*
X202267651Y-152759514D01*
X202224794Y-152569038D01*
X202139080Y-152473800D01*
X202053365Y-152426180D01*
X201881937Y-152426180D01*
X201796222Y-152473800D01*
X201710508Y-152569038D01*
X201667651Y-152759514D01*
X201667651Y-153092847D01*
X201710508Y-153283323D01*
X201796222Y-153378561D01*
X201881937Y-153426180D01*
X202053365Y-153426180D01*
X201110508Y-152426180D02*
X201024794Y-152426180D01*
X200939080Y-152473800D01*
X200896222Y-152521419D01*
X200853365Y-152616657D01*
X200810508Y-152807133D01*
X200810508Y-153045228D01*
X200853365Y-153235704D01*
X200896222Y-153330942D01*
X200939080Y-153378561D01*
X201024794Y-153426180D01*
X201110508Y-153426180D01*
X201196222Y-153378561D01*
X201239080Y-153330942D01*
X201281937Y-153235704D01*
X201324794Y-153045228D01*
X201324794Y-152807133D01*
X201281937Y-152616657D01*
X201239080Y-152521419D01*
X201196222Y-152473800D01*
X201110508Y-152426180D01*
X200510508Y-152426180D02*
X199953365Y-152426180D01*
X200253365Y-152807133D01*
X200124794Y-152807133D01*
X200039080Y-152854752D01*
X199996222Y-152902371D01*
X199953365Y-152997609D01*
X199953365Y-153235704D01*
X199996222Y-153330942D01*
X200039080Y-153378561D01*
X200124794Y-153426180D01*
X200381937Y-153426180D01*
X200467651Y-153378561D01*
X200510508Y-153330942D01*
X199139080Y-152426180D02*
X199567651Y-152426180D01*
X199610508Y-152902371D01*
X199567651Y-152854752D01*
X199481937Y-152807133D01*
X199267651Y-152807133D01*
X199181937Y-152854752D01*
X199139080Y-152902371D01*
X199096222Y-152997609D01*
X199096222Y-153235704D01*
X199139080Y-153330942D01*
X199181937Y-153378561D01*
X199267651Y-153426180D01*
X199481937Y-153426180D01*
X199567651Y-153378561D01*
X199610508Y-153330942D01*
X198710508Y-153426180D02*
X198710508Y-152426180D01*
X198196222Y-153426180D01*
X198196222Y-152426180D01*
X197253365Y-153330942D02*
X197296222Y-153378561D01*
X197424794Y-153426180D01*
X197510508Y-153426180D01*
X197639080Y-153378561D01*
X197724794Y-153283323D01*
X197767651Y-153188085D01*
X197810508Y-152997609D01*
X197810508Y-152854752D01*
X197767651Y-152664276D01*
X197724794Y-152569038D01*
X197639080Y-152473800D01*
X197510508Y-152426180D01*
X197424794Y-152426180D01*
X197296222Y-152473800D01*
X197253365Y-152521419D01*
X196396222Y-153426180D02*
X196910508Y-153426180D01*
X196653365Y-153426180D02*
X196653365Y-152426180D01*
X196739080Y-152569038D01*
X196824794Y-152664276D01*
X196910508Y-152711895D01*
X195539080Y-153426180D02*
X196053365Y-153426180D01*
X195796222Y-153426180D02*
X195796222Y-152426180D01*
X195881937Y-152569038D01*
X195967651Y-152664276D01*
X196053365Y-152711895D01*
X194681937Y-153426180D02*
X195196222Y-153426180D01*
X194939080Y-153426180D02*
X194939080Y-152426180D01*
X195024794Y-152569038D01*
X195110508Y-152664276D01*
X195196222Y-152711895D01*
D12*
X198574897Y-162891742D02*
X198622516Y-162939361D01*
X198765373Y-162986980D01*
X198860611Y-162986980D01*
X199003468Y-162939361D01*
X199098706Y-162844123D01*
X199146325Y-162748885D01*
X199193944Y-162558409D01*
X199193944Y-162415552D01*
X199146325Y-162225076D01*
X199098706Y-162129838D01*
X199003468Y-162034600D01*
X198860611Y-161986980D01*
X198765373Y-161986980D01*
X198622516Y-162034600D01*
X198574897Y-162082219D01*
X197622516Y-162986980D02*
X198193944Y-162986980D01*
X197908230Y-162986980D02*
X197908230Y-161986980D01*
X198003468Y-162129838D01*
X198098706Y-162225076D01*
X198193944Y-162272695D01*
X196765373Y-162320314D02*
X196765373Y-162986980D01*
X197003468Y-161939361D02*
X197241563Y-162653647D01*
X196622516Y-162653647D01*
X261398839Y-149972960D02*
X261251312Y-149942771D01*
X261045115Y-149823723D01*
X260986446Y-149734865D01*
X260969016Y-149669816D01*
X260975396Y-149563528D01*
X261023015Y-149481049D01*
X261111873Y-149422380D01*
X261176922Y-149404951D01*
X261283210Y-149411330D01*
X261471977Y-149465329D01*
X261578265Y-149471709D01*
X261643314Y-149454279D01*
X261732172Y-149395610D01*
X261779791Y-149313131D01*
X261786171Y-149206843D01*
X261768741Y-149141794D01*
X261710072Y-149052936D01*
X261503876Y-148933888D01*
X261356348Y-148903699D01*
X261091483Y-148695793D02*
X260385286Y-149442771D01*
X260577472Y-148728943D01*
X260055372Y-149252295D01*
X260349175Y-148267222D01*
X259681257Y-148376471D02*
X259787545Y-148382851D01*
X259852594Y-148365421D01*
X259941453Y-148306752D01*
X259965262Y-148265512D01*
X259971642Y-148159224D01*
X259954212Y-148094175D01*
X259895543Y-148005317D01*
X259730586Y-147910079D01*
X259624298Y-147903699D01*
X259559249Y-147921129D01*
X259470390Y-147979798D01*
X259446581Y-148021037D01*
X259440201Y-148127325D01*
X259457631Y-148192374D01*
X259516300Y-148281233D01*
X259681257Y-148376471D01*
X259739926Y-148465329D01*
X259757356Y-148530378D01*
X259750976Y-148636666D01*
X259655738Y-148801623D01*
X259566880Y-148860292D01*
X259501831Y-148877722D01*
X259395543Y-148871342D01*
X259230586Y-148776104D01*
X259171917Y-148687246D01*
X259154487Y-148622197D01*
X259160867Y-148515909D01*
X259256105Y-148350952D01*
X259344963Y-148292283D01*
X259410012Y-148274853D01*
X259516300Y-148281233D01*
X171750442Y-148487227D02*
X171650534Y-148599895D01*
X171444337Y-148718942D01*
X171338049Y-148725322D01*
X171273000Y-148707892D01*
X171184142Y-148649223D01*
X171136523Y-148566745D01*
X171130143Y-148460457D01*
X171147573Y-148395408D01*
X171206242Y-148306549D01*
X171347390Y-148170072D01*
X171406059Y-148081214D01*
X171423488Y-148016165D01*
X171417109Y-147909877D01*
X171369490Y-147827398D01*
X171280631Y-147768729D01*
X171215582Y-147751299D01*
X171109294Y-147757679D01*
X170903098Y-147876727D01*
X170803189Y-147989394D01*
X170490705Y-148114822D02*
X170784508Y-149099895D01*
X170262408Y-148576543D01*
X170454594Y-149290371D01*
X169748397Y-148543393D01*
X169500961Y-148686250D02*
X168964850Y-148995774D01*
X169444002Y-149159022D01*
X169320284Y-149230451D01*
X169261615Y-149319309D01*
X169244185Y-149384358D01*
X169250565Y-149490646D01*
X169369612Y-149696842D01*
X169458471Y-149755511D01*
X169523520Y-149772941D01*
X169629808Y-149766561D01*
X169877243Y-149623704D01*
X169935913Y-149534846D01*
X169953342Y-149469797D01*
D10*
X274234714Y-168694000D02*
X274779000Y-168694000D01*
X274887857Y-168657714D01*
X274960428Y-168585142D01*
X274996714Y-168476285D01*
X274996714Y-168403714D01*
X274234714Y-168984285D02*
X274234714Y-169456000D01*
X274525000Y-169202000D01*
X274525000Y-169310857D01*
X274561285Y-169383428D01*
X274597571Y-169419714D01*
X274670142Y-169456000D01*
X274851571Y-169456000D01*
X274924142Y-169419714D01*
X274960428Y-169383428D01*
X274996714Y-169310857D01*
X274996714Y-169093142D01*
X274960428Y-169020571D01*
X274924142Y-168984285D01*
X166462891Y-173195705D02*
X166535462Y-173159420D01*
X166608034Y-173086848D01*
X166716891Y-172977991D01*
X166789462Y-172941705D01*
X166862034Y-172941705D01*
X166825748Y-173123134D02*
X166898320Y-173086848D01*
X166970891Y-173014277D01*
X167007177Y-172869134D01*
X167007177Y-172615134D01*
X166970891Y-172469991D01*
X166898320Y-172397420D01*
X166825748Y-172361134D01*
X166680605Y-172361134D01*
X166608034Y-172397420D01*
X166535462Y-172469991D01*
X166499177Y-172615134D01*
X166499177Y-172869134D01*
X166535462Y-173014277D01*
X166608034Y-173086848D01*
X166680605Y-173123134D01*
X166825748Y-173123134D01*
X166208891Y-172433705D02*
X166172605Y-172397420D01*
X166100034Y-172361134D01*
X165918605Y-172361134D01*
X165846034Y-172397420D01*
X165809748Y-172433705D01*
X165773462Y-172506277D01*
X165773462Y-172578848D01*
X165809748Y-172687705D01*
X166245177Y-173123134D01*
X165773462Y-173123134D01*
D14*
X161445181Y-166622790D02*
X161959229Y-166622790D01*
X162019705Y-166653028D01*
X162049943Y-166683266D01*
X162080181Y-166743742D01*
X162080181Y-166864695D01*
X162049943Y-166925171D01*
X162019705Y-166955409D01*
X161959229Y-166985647D01*
X161445181Y-166985647D01*
X162080181Y-167620647D02*
X162080181Y-167257790D01*
X162080181Y-167439219D02*
X161445181Y-167439219D01*
X161535896Y-167378742D01*
X161596372Y-167318266D01*
X161626610Y-167257790D01*
D10*
X157319714Y-175391571D02*
X157210857Y-175427857D01*
X157174571Y-175464142D01*
X157138285Y-175536714D01*
X157138285Y-175645571D01*
X157174571Y-175718142D01*
X157210857Y-175754428D01*
X157283428Y-175790714D01*
X157573714Y-175790714D01*
X157573714Y-175028714D01*
X157319714Y-175028714D01*
X157247142Y-175065000D01*
X157210857Y-175101285D01*
X157174571Y-175173857D01*
X157174571Y-175246428D01*
X157210857Y-175319000D01*
X157247142Y-175355285D01*
X157319714Y-175391571D01*
X157573714Y-175391571D01*
X156920571Y-175028714D02*
X156485142Y-175028714D01*
X156702857Y-175790714D02*
X156702857Y-175028714D01*
X155832000Y-175790714D02*
X156267428Y-175790714D01*
X156049714Y-175790714D02*
X156049714Y-175028714D01*
X156122285Y-175137571D01*
X156194857Y-175210142D01*
X156267428Y-175246428D01*
X189280800Y-173218834D02*
X189280800Y-173763120D01*
X189317085Y-173871977D01*
X189389657Y-173944548D01*
X189498514Y-173980834D01*
X189571085Y-173980834D01*
X188954228Y-173291405D02*
X188917942Y-173255120D01*
X188845371Y-173218834D01*
X188663942Y-173218834D01*
X188591371Y-173255120D01*
X188555085Y-173291405D01*
X188518800Y-173363977D01*
X188518800Y-173436548D01*
X188555085Y-173545405D01*
X188990514Y-173980834D01*
X188518800Y-173980834D01*
X167606714Y-158754571D02*
X166844714Y-158754571D01*
X166844714Y-158936000D01*
X166881000Y-159044857D01*
X166953571Y-159117428D01*
X167026142Y-159153714D01*
X167171285Y-159190000D01*
X167280142Y-159190000D01*
X167425285Y-159153714D01*
X167497857Y-159117428D01*
X167570428Y-159044857D01*
X167606714Y-158936000D01*
X167606714Y-158754571D01*
X167606714Y-159915714D02*
X167606714Y-159480285D01*
X167606714Y-159698000D02*
X166844714Y-159698000D01*
X166953571Y-159625428D01*
X167026142Y-159552857D01*
X167062428Y-159480285D01*
X182657568Y-141949714D02*
X182657568Y-141187714D01*
X182476140Y-141187714D01*
X182367282Y-141224000D01*
X182294711Y-141296571D01*
X182258425Y-141369142D01*
X182222140Y-141514285D01*
X182222140Y-141623142D01*
X182258425Y-141768285D01*
X182294711Y-141840857D01*
X182367282Y-141913428D01*
X182476140Y-141949714D01*
X182657568Y-141949714D01*
X181568997Y-141441714D02*
X181568997Y-141949714D01*
X181750425Y-141151428D02*
X181931854Y-141695714D01*
X181460140Y-141695714D01*
D14*
X159504621Y-156005953D02*
X159958193Y-156005953D01*
X160048907Y-155975715D01*
X160109383Y-155915239D01*
X160139621Y-155824524D01*
X160139621Y-155764048D01*
X160139621Y-156640953D02*
X160139621Y-156278096D01*
X160139621Y-156459524D02*
X159504621Y-156459524D01*
X159595336Y-156399048D01*
X159655812Y-156338572D01*
X159686050Y-156278096D01*
D10*
X171964894Y-164054608D02*
X172581751Y-164054608D01*
X172654322Y-164090894D01*
X172690608Y-164127180D01*
X172726894Y-164199751D01*
X172726894Y-164344894D01*
X172690608Y-164417465D01*
X172654322Y-164453751D01*
X172581751Y-164490037D01*
X171964894Y-164490037D01*
X172037465Y-164816608D02*
X172001180Y-164852894D01*
X171964894Y-164925465D01*
X171964894Y-165106894D01*
X172001180Y-165179465D01*
X172037465Y-165215751D01*
X172110037Y-165252037D01*
X172182608Y-165252037D01*
X172291465Y-165215751D01*
X172726894Y-164780322D01*
X172726894Y-165252037D01*
X181296854Y-147277908D02*
X181913711Y-147277908D01*
X181986282Y-147314194D01*
X182022568Y-147350480D01*
X182058854Y-147423051D01*
X182058854Y-147568194D01*
X182022568Y-147640765D01*
X181986282Y-147677051D01*
X181913711Y-147713337D01*
X181296854Y-147713337D01*
X181296854Y-148003622D02*
X181296854Y-148475337D01*
X181587140Y-148221337D01*
X181587140Y-148330194D01*
X181623425Y-148402765D01*
X181659711Y-148439051D01*
X181732282Y-148475337D01*
X181913711Y-148475337D01*
X181986282Y-148439051D01*
X182022568Y-148402765D01*
X182058854Y-148330194D01*
X182058854Y-148112480D01*
X182022568Y-148039908D01*
X181986282Y-148003622D01*
X227288271Y-156204194D02*
X227288271Y-156821051D01*
X227251985Y-156893622D01*
X227215700Y-156929908D01*
X227143128Y-156966194D01*
X226997985Y-156966194D01*
X226925414Y-156929908D01*
X226889128Y-156893622D01*
X226852842Y-156821051D01*
X226852842Y-156204194D01*
X226163414Y-156204194D02*
X226308557Y-156204194D01*
X226381128Y-156240480D01*
X226417414Y-156276765D01*
X226489985Y-156385622D01*
X226526271Y-156530765D01*
X226526271Y-156821051D01*
X226489985Y-156893622D01*
X226453700Y-156929908D01*
X226381128Y-156966194D01*
X226235985Y-156966194D01*
X226163414Y-156929908D01*
X226127128Y-156893622D01*
X226090842Y-156821051D01*
X226090842Y-156639622D01*
X226127128Y-156567051D01*
X226163414Y-156530765D01*
X226235985Y-156494480D01*
X226381128Y-156494480D01*
X226453700Y-156530765D01*
X226489985Y-156567051D01*
X226526271Y-156639622D01*
M02*
