G04 #@! TF.GenerationSoftware,KiCad,Pcbnew,5.1.3-ffb9f22~84~ubuntu18.10.1*
G04 #@! TF.CreationDate,2019-11-11T13:28:35-06:00*
G04 #@! TF.ProjectId,BurnedHead,4275726e-6564-4486-9561-642e6b696361,rev?*
G04 #@! TF.SameCoordinates,Original*
G04 #@! TF.FileFunction,Paste,Top*
G04 #@! TF.FilePolarity,Positive*
%FSLAX46Y46*%
G04 Gerber Fmt 4.6, Leading zero omitted, Abs format (unit mm)*
G04 Created by KiCad (PCBNEW 5.1.3-ffb9f22~84~ubuntu18.10.1) date 2019-11-11 13:28:35*
%MOMM*%
%LPD*%
G04 APERTURE LIST*
%ADD10R,0.300000X1.300000*%
%ADD11C,0.100000*%
%ADD12C,0.875000*%
%ADD13R,1.440000X0.550000*%
%ADD14R,1.300000X1.550000*%
%ADD15R,1.550000X1.300000*%
%ADD16R,4.000000X0.500000*%
%ADD17R,0.500000X4.000000*%
G04 APERTURE END LIST*
D10*
X240754660Y-176314620D03*
X241254660Y-176314620D03*
X241754660Y-176314620D03*
X242254660Y-176314620D03*
X242754660Y-176314620D03*
D11*
G36*
X224085982Y-156394288D02*
G01*
X224107217Y-156397438D01*
X224128041Y-156402654D01*
X224148253Y-156409886D01*
X224167659Y-156419065D01*
X224186072Y-156430101D01*
X224203315Y-156442889D01*
X224219221Y-156457305D01*
X224233637Y-156473211D01*
X224246425Y-156490454D01*
X224257461Y-156508867D01*
X224266640Y-156528273D01*
X224273872Y-156548485D01*
X224279088Y-156569309D01*
X224282238Y-156590544D01*
X224283291Y-156611985D01*
X224283291Y-157049485D01*
X224282238Y-157070926D01*
X224279088Y-157092161D01*
X224273872Y-157112985D01*
X224266640Y-157133197D01*
X224257461Y-157152603D01*
X224246425Y-157171016D01*
X224233637Y-157188259D01*
X224219221Y-157204165D01*
X224203315Y-157218581D01*
X224186072Y-157231369D01*
X224167659Y-157242405D01*
X224148253Y-157251584D01*
X224128041Y-157258816D01*
X224107217Y-157264032D01*
X224085982Y-157267182D01*
X224064541Y-157268235D01*
X223552041Y-157268235D01*
X223530600Y-157267182D01*
X223509365Y-157264032D01*
X223488541Y-157258816D01*
X223468329Y-157251584D01*
X223448923Y-157242405D01*
X223430510Y-157231369D01*
X223413267Y-157218581D01*
X223397361Y-157204165D01*
X223382945Y-157188259D01*
X223370157Y-157171016D01*
X223359121Y-157152603D01*
X223349942Y-157133197D01*
X223342710Y-157112985D01*
X223337494Y-157092161D01*
X223334344Y-157070926D01*
X223333291Y-157049485D01*
X223333291Y-156611985D01*
X223334344Y-156590544D01*
X223337494Y-156569309D01*
X223342710Y-156548485D01*
X223349942Y-156528273D01*
X223359121Y-156508867D01*
X223370157Y-156490454D01*
X223382945Y-156473211D01*
X223397361Y-156457305D01*
X223413267Y-156442889D01*
X223430510Y-156430101D01*
X223448923Y-156419065D01*
X223468329Y-156409886D01*
X223488541Y-156402654D01*
X223509365Y-156397438D01*
X223530600Y-156394288D01*
X223552041Y-156393235D01*
X224064541Y-156393235D01*
X224085982Y-156394288D01*
X224085982Y-156394288D01*
G37*
D12*
X223808291Y-156830735D03*
D11*
G36*
X224085982Y-157969288D02*
G01*
X224107217Y-157972438D01*
X224128041Y-157977654D01*
X224148253Y-157984886D01*
X224167659Y-157994065D01*
X224186072Y-158005101D01*
X224203315Y-158017889D01*
X224219221Y-158032305D01*
X224233637Y-158048211D01*
X224246425Y-158065454D01*
X224257461Y-158083867D01*
X224266640Y-158103273D01*
X224273872Y-158123485D01*
X224279088Y-158144309D01*
X224282238Y-158165544D01*
X224283291Y-158186985D01*
X224283291Y-158624485D01*
X224282238Y-158645926D01*
X224279088Y-158667161D01*
X224273872Y-158687985D01*
X224266640Y-158708197D01*
X224257461Y-158727603D01*
X224246425Y-158746016D01*
X224233637Y-158763259D01*
X224219221Y-158779165D01*
X224203315Y-158793581D01*
X224186072Y-158806369D01*
X224167659Y-158817405D01*
X224148253Y-158826584D01*
X224128041Y-158833816D01*
X224107217Y-158839032D01*
X224085982Y-158842182D01*
X224064541Y-158843235D01*
X223552041Y-158843235D01*
X223530600Y-158842182D01*
X223509365Y-158839032D01*
X223488541Y-158833816D01*
X223468329Y-158826584D01*
X223448923Y-158817405D01*
X223430510Y-158806369D01*
X223413267Y-158793581D01*
X223397361Y-158779165D01*
X223382945Y-158763259D01*
X223370157Y-158746016D01*
X223359121Y-158727603D01*
X223349942Y-158708197D01*
X223342710Y-158687985D01*
X223337494Y-158667161D01*
X223334344Y-158645926D01*
X223333291Y-158624485D01*
X223333291Y-158186985D01*
X223334344Y-158165544D01*
X223337494Y-158144309D01*
X223342710Y-158123485D01*
X223349942Y-158103273D01*
X223359121Y-158083867D01*
X223370157Y-158065454D01*
X223382945Y-158048211D01*
X223397361Y-158032305D01*
X223413267Y-158017889D01*
X223430510Y-158005101D01*
X223448923Y-157994065D01*
X223468329Y-157984886D01*
X223488541Y-157977654D01*
X223509365Y-157972438D01*
X223530600Y-157969288D01*
X223552041Y-157968235D01*
X224064541Y-157968235D01*
X224085982Y-157969288D01*
X224085982Y-157969288D01*
G37*
D12*
X223808291Y-158405735D03*
D11*
G36*
X223788212Y-165753223D02*
G01*
X223809447Y-165756373D01*
X223830271Y-165761589D01*
X223850483Y-165768821D01*
X223869889Y-165778000D01*
X223888302Y-165789036D01*
X223905545Y-165801824D01*
X223921451Y-165816240D01*
X223935867Y-165832146D01*
X223948655Y-165849389D01*
X223959691Y-165867802D01*
X223968870Y-165887208D01*
X223976102Y-165907420D01*
X223981318Y-165928244D01*
X223984468Y-165949479D01*
X223985521Y-165970920D01*
X223985521Y-166408420D01*
X223984468Y-166429861D01*
X223981318Y-166451096D01*
X223976102Y-166471920D01*
X223968870Y-166492132D01*
X223959691Y-166511538D01*
X223948655Y-166529951D01*
X223935867Y-166547194D01*
X223921451Y-166563100D01*
X223905545Y-166577516D01*
X223888302Y-166590304D01*
X223869889Y-166601340D01*
X223850483Y-166610519D01*
X223830271Y-166617751D01*
X223809447Y-166622967D01*
X223788212Y-166626117D01*
X223766771Y-166627170D01*
X223254271Y-166627170D01*
X223232830Y-166626117D01*
X223211595Y-166622967D01*
X223190771Y-166617751D01*
X223170559Y-166610519D01*
X223151153Y-166601340D01*
X223132740Y-166590304D01*
X223115497Y-166577516D01*
X223099591Y-166563100D01*
X223085175Y-166547194D01*
X223072387Y-166529951D01*
X223061351Y-166511538D01*
X223052172Y-166492132D01*
X223044940Y-166471920D01*
X223039724Y-166451096D01*
X223036574Y-166429861D01*
X223035521Y-166408420D01*
X223035521Y-165970920D01*
X223036574Y-165949479D01*
X223039724Y-165928244D01*
X223044940Y-165907420D01*
X223052172Y-165887208D01*
X223061351Y-165867802D01*
X223072387Y-165849389D01*
X223085175Y-165832146D01*
X223099591Y-165816240D01*
X223115497Y-165801824D01*
X223132740Y-165789036D01*
X223151153Y-165778000D01*
X223170559Y-165768821D01*
X223190771Y-165761589D01*
X223211595Y-165756373D01*
X223232830Y-165753223D01*
X223254271Y-165752170D01*
X223766771Y-165752170D01*
X223788212Y-165753223D01*
X223788212Y-165753223D01*
G37*
D12*
X223510521Y-166189670D03*
D11*
G36*
X223788212Y-164178223D02*
G01*
X223809447Y-164181373D01*
X223830271Y-164186589D01*
X223850483Y-164193821D01*
X223869889Y-164203000D01*
X223888302Y-164214036D01*
X223905545Y-164226824D01*
X223921451Y-164241240D01*
X223935867Y-164257146D01*
X223948655Y-164274389D01*
X223959691Y-164292802D01*
X223968870Y-164312208D01*
X223976102Y-164332420D01*
X223981318Y-164353244D01*
X223984468Y-164374479D01*
X223985521Y-164395920D01*
X223985521Y-164833420D01*
X223984468Y-164854861D01*
X223981318Y-164876096D01*
X223976102Y-164896920D01*
X223968870Y-164917132D01*
X223959691Y-164936538D01*
X223948655Y-164954951D01*
X223935867Y-164972194D01*
X223921451Y-164988100D01*
X223905545Y-165002516D01*
X223888302Y-165015304D01*
X223869889Y-165026340D01*
X223850483Y-165035519D01*
X223830271Y-165042751D01*
X223809447Y-165047967D01*
X223788212Y-165051117D01*
X223766771Y-165052170D01*
X223254271Y-165052170D01*
X223232830Y-165051117D01*
X223211595Y-165047967D01*
X223190771Y-165042751D01*
X223170559Y-165035519D01*
X223151153Y-165026340D01*
X223132740Y-165015304D01*
X223115497Y-165002516D01*
X223099591Y-164988100D01*
X223085175Y-164972194D01*
X223072387Y-164954951D01*
X223061351Y-164936538D01*
X223052172Y-164917132D01*
X223044940Y-164896920D01*
X223039724Y-164876096D01*
X223036574Y-164854861D01*
X223035521Y-164833420D01*
X223035521Y-164395920D01*
X223036574Y-164374479D01*
X223039724Y-164353244D01*
X223044940Y-164332420D01*
X223052172Y-164312208D01*
X223061351Y-164292802D01*
X223072387Y-164274389D01*
X223085175Y-164257146D01*
X223099591Y-164241240D01*
X223115497Y-164226824D01*
X223132740Y-164214036D01*
X223151153Y-164203000D01*
X223170559Y-164193821D01*
X223190771Y-164186589D01*
X223211595Y-164181373D01*
X223232830Y-164178223D01*
X223254271Y-164177170D01*
X223766771Y-164177170D01*
X223788212Y-164178223D01*
X223788212Y-164178223D01*
G37*
D12*
X223510521Y-164614670D03*
D11*
G36*
X202573116Y-155956137D02*
G01*
X202594351Y-155959287D01*
X202615175Y-155964503D01*
X202635387Y-155971735D01*
X202654793Y-155980914D01*
X202673206Y-155991950D01*
X202690449Y-156004738D01*
X202706355Y-156019154D01*
X202720771Y-156035060D01*
X202733559Y-156052303D01*
X202744595Y-156070716D01*
X202753774Y-156090122D01*
X202761006Y-156110334D01*
X202766222Y-156131158D01*
X202769372Y-156152393D01*
X202770425Y-156173834D01*
X202770425Y-156611334D01*
X202769372Y-156632775D01*
X202766222Y-156654010D01*
X202761006Y-156674834D01*
X202753774Y-156695046D01*
X202744595Y-156714452D01*
X202733559Y-156732865D01*
X202720771Y-156750108D01*
X202706355Y-156766014D01*
X202690449Y-156780430D01*
X202673206Y-156793218D01*
X202654793Y-156804254D01*
X202635387Y-156813433D01*
X202615175Y-156820665D01*
X202594351Y-156825881D01*
X202573116Y-156829031D01*
X202551675Y-156830084D01*
X202039175Y-156830084D01*
X202017734Y-156829031D01*
X201996499Y-156825881D01*
X201975675Y-156820665D01*
X201955463Y-156813433D01*
X201936057Y-156804254D01*
X201917644Y-156793218D01*
X201900401Y-156780430D01*
X201884495Y-156766014D01*
X201870079Y-156750108D01*
X201857291Y-156732865D01*
X201846255Y-156714452D01*
X201837076Y-156695046D01*
X201829844Y-156674834D01*
X201824628Y-156654010D01*
X201821478Y-156632775D01*
X201820425Y-156611334D01*
X201820425Y-156173834D01*
X201821478Y-156152393D01*
X201824628Y-156131158D01*
X201829844Y-156110334D01*
X201837076Y-156090122D01*
X201846255Y-156070716D01*
X201857291Y-156052303D01*
X201870079Y-156035060D01*
X201884495Y-156019154D01*
X201900401Y-156004738D01*
X201917644Y-155991950D01*
X201936057Y-155980914D01*
X201955463Y-155971735D01*
X201975675Y-155964503D01*
X201996499Y-155959287D01*
X202017734Y-155956137D01*
X202039175Y-155955084D01*
X202551675Y-155955084D01*
X202573116Y-155956137D01*
X202573116Y-155956137D01*
G37*
D12*
X202295425Y-156392584D03*
D11*
G36*
X202573116Y-157531137D02*
G01*
X202594351Y-157534287D01*
X202615175Y-157539503D01*
X202635387Y-157546735D01*
X202654793Y-157555914D01*
X202673206Y-157566950D01*
X202690449Y-157579738D01*
X202706355Y-157594154D01*
X202720771Y-157610060D01*
X202733559Y-157627303D01*
X202744595Y-157645716D01*
X202753774Y-157665122D01*
X202761006Y-157685334D01*
X202766222Y-157706158D01*
X202769372Y-157727393D01*
X202770425Y-157748834D01*
X202770425Y-158186334D01*
X202769372Y-158207775D01*
X202766222Y-158229010D01*
X202761006Y-158249834D01*
X202753774Y-158270046D01*
X202744595Y-158289452D01*
X202733559Y-158307865D01*
X202720771Y-158325108D01*
X202706355Y-158341014D01*
X202690449Y-158355430D01*
X202673206Y-158368218D01*
X202654793Y-158379254D01*
X202635387Y-158388433D01*
X202615175Y-158395665D01*
X202594351Y-158400881D01*
X202573116Y-158404031D01*
X202551675Y-158405084D01*
X202039175Y-158405084D01*
X202017734Y-158404031D01*
X201996499Y-158400881D01*
X201975675Y-158395665D01*
X201955463Y-158388433D01*
X201936057Y-158379254D01*
X201917644Y-158368218D01*
X201900401Y-158355430D01*
X201884495Y-158341014D01*
X201870079Y-158325108D01*
X201857291Y-158307865D01*
X201846255Y-158289452D01*
X201837076Y-158270046D01*
X201829844Y-158249834D01*
X201824628Y-158229010D01*
X201821478Y-158207775D01*
X201820425Y-158186334D01*
X201820425Y-157748834D01*
X201821478Y-157727393D01*
X201824628Y-157706158D01*
X201829844Y-157685334D01*
X201837076Y-157665122D01*
X201846255Y-157645716D01*
X201857291Y-157627303D01*
X201870079Y-157610060D01*
X201884495Y-157594154D01*
X201900401Y-157579738D01*
X201917644Y-157566950D01*
X201936057Y-157555914D01*
X201955463Y-157546735D01*
X201975675Y-157539503D01*
X201996499Y-157534287D01*
X202017734Y-157531137D01*
X202039175Y-157530084D01*
X202551675Y-157530084D01*
X202573116Y-157531137D01*
X202573116Y-157531137D01*
G37*
D12*
X202295425Y-157967584D03*
D11*
G36*
X213765725Y-178902695D02*
G01*
X213786960Y-178905845D01*
X213807784Y-178911061D01*
X213827996Y-178918293D01*
X213847402Y-178927472D01*
X213865815Y-178938508D01*
X213883058Y-178951296D01*
X213898964Y-178965712D01*
X213913380Y-178981618D01*
X213926168Y-178998861D01*
X213937204Y-179017274D01*
X213946383Y-179036680D01*
X213953615Y-179056892D01*
X213958831Y-179077716D01*
X213961981Y-179098951D01*
X213963034Y-179120392D01*
X213963034Y-179632892D01*
X213961981Y-179654333D01*
X213958831Y-179675568D01*
X213953615Y-179696392D01*
X213946383Y-179716604D01*
X213937204Y-179736010D01*
X213926168Y-179754423D01*
X213913380Y-179771666D01*
X213898964Y-179787572D01*
X213883058Y-179801988D01*
X213865815Y-179814776D01*
X213847402Y-179825812D01*
X213827996Y-179834991D01*
X213807784Y-179842223D01*
X213786960Y-179847439D01*
X213765725Y-179850589D01*
X213744284Y-179851642D01*
X213306784Y-179851642D01*
X213285343Y-179850589D01*
X213264108Y-179847439D01*
X213243284Y-179842223D01*
X213223072Y-179834991D01*
X213203666Y-179825812D01*
X213185253Y-179814776D01*
X213168010Y-179801988D01*
X213152104Y-179787572D01*
X213137688Y-179771666D01*
X213124900Y-179754423D01*
X213113864Y-179736010D01*
X213104685Y-179716604D01*
X213097453Y-179696392D01*
X213092237Y-179675568D01*
X213089087Y-179654333D01*
X213088034Y-179632892D01*
X213088034Y-179120392D01*
X213089087Y-179098951D01*
X213092237Y-179077716D01*
X213097453Y-179056892D01*
X213104685Y-179036680D01*
X213113864Y-179017274D01*
X213124900Y-178998861D01*
X213137688Y-178981618D01*
X213152104Y-178965712D01*
X213168010Y-178951296D01*
X213185253Y-178938508D01*
X213203666Y-178927472D01*
X213223072Y-178918293D01*
X213243284Y-178911061D01*
X213264108Y-178905845D01*
X213285343Y-178902695D01*
X213306784Y-178901642D01*
X213744284Y-178901642D01*
X213765725Y-178902695D01*
X213765725Y-178902695D01*
G37*
D12*
X213525534Y-179376642D03*
D11*
G36*
X212190725Y-178902695D02*
G01*
X212211960Y-178905845D01*
X212232784Y-178911061D01*
X212252996Y-178918293D01*
X212272402Y-178927472D01*
X212290815Y-178938508D01*
X212308058Y-178951296D01*
X212323964Y-178965712D01*
X212338380Y-178981618D01*
X212351168Y-178998861D01*
X212362204Y-179017274D01*
X212371383Y-179036680D01*
X212378615Y-179056892D01*
X212383831Y-179077716D01*
X212386981Y-179098951D01*
X212388034Y-179120392D01*
X212388034Y-179632892D01*
X212386981Y-179654333D01*
X212383831Y-179675568D01*
X212378615Y-179696392D01*
X212371383Y-179716604D01*
X212362204Y-179736010D01*
X212351168Y-179754423D01*
X212338380Y-179771666D01*
X212323964Y-179787572D01*
X212308058Y-179801988D01*
X212290815Y-179814776D01*
X212272402Y-179825812D01*
X212252996Y-179834991D01*
X212232784Y-179842223D01*
X212211960Y-179847439D01*
X212190725Y-179850589D01*
X212169284Y-179851642D01*
X211731784Y-179851642D01*
X211710343Y-179850589D01*
X211689108Y-179847439D01*
X211668284Y-179842223D01*
X211648072Y-179834991D01*
X211628666Y-179825812D01*
X211610253Y-179814776D01*
X211593010Y-179801988D01*
X211577104Y-179787572D01*
X211562688Y-179771666D01*
X211549900Y-179754423D01*
X211538864Y-179736010D01*
X211529685Y-179716604D01*
X211522453Y-179696392D01*
X211517237Y-179675568D01*
X211514087Y-179654333D01*
X211513034Y-179632892D01*
X211513034Y-179120392D01*
X211514087Y-179098951D01*
X211517237Y-179077716D01*
X211522453Y-179056892D01*
X211529685Y-179036680D01*
X211538864Y-179017274D01*
X211549900Y-178998861D01*
X211562688Y-178981618D01*
X211577104Y-178965712D01*
X211593010Y-178951296D01*
X211610253Y-178938508D01*
X211628666Y-178927472D01*
X211648072Y-178918293D01*
X211668284Y-178911061D01*
X211689108Y-178905845D01*
X211710343Y-178902695D01*
X211731784Y-178901642D01*
X212169284Y-178901642D01*
X212190725Y-178902695D01*
X212190725Y-178902695D01*
G37*
D12*
X211950534Y-179376642D03*
D11*
G36*
X219066371Y-178814493D02*
G01*
X219087606Y-178817643D01*
X219108430Y-178822859D01*
X219128642Y-178830091D01*
X219148048Y-178839270D01*
X219166461Y-178850306D01*
X219183704Y-178863094D01*
X219199610Y-178877510D01*
X219214026Y-178893416D01*
X219226814Y-178910659D01*
X219237850Y-178929072D01*
X219247029Y-178948478D01*
X219254261Y-178968690D01*
X219259477Y-178989514D01*
X219262627Y-179010749D01*
X219263680Y-179032190D01*
X219263680Y-179544690D01*
X219262627Y-179566131D01*
X219259477Y-179587366D01*
X219254261Y-179608190D01*
X219247029Y-179628402D01*
X219237850Y-179647808D01*
X219226814Y-179666221D01*
X219214026Y-179683464D01*
X219199610Y-179699370D01*
X219183704Y-179713786D01*
X219166461Y-179726574D01*
X219148048Y-179737610D01*
X219128642Y-179746789D01*
X219108430Y-179754021D01*
X219087606Y-179759237D01*
X219066371Y-179762387D01*
X219044930Y-179763440D01*
X218607430Y-179763440D01*
X218585989Y-179762387D01*
X218564754Y-179759237D01*
X218543930Y-179754021D01*
X218523718Y-179746789D01*
X218504312Y-179737610D01*
X218485899Y-179726574D01*
X218468656Y-179713786D01*
X218452750Y-179699370D01*
X218438334Y-179683464D01*
X218425546Y-179666221D01*
X218414510Y-179647808D01*
X218405331Y-179628402D01*
X218398099Y-179608190D01*
X218392883Y-179587366D01*
X218389733Y-179566131D01*
X218388680Y-179544690D01*
X218388680Y-179032190D01*
X218389733Y-179010749D01*
X218392883Y-178989514D01*
X218398099Y-178968690D01*
X218405331Y-178948478D01*
X218414510Y-178929072D01*
X218425546Y-178910659D01*
X218438334Y-178893416D01*
X218452750Y-178877510D01*
X218468656Y-178863094D01*
X218485899Y-178850306D01*
X218504312Y-178839270D01*
X218523718Y-178830091D01*
X218543930Y-178822859D01*
X218564754Y-178817643D01*
X218585989Y-178814493D01*
X218607430Y-178813440D01*
X219044930Y-178813440D01*
X219066371Y-178814493D01*
X219066371Y-178814493D01*
G37*
D12*
X218826180Y-179288440D03*
D11*
G36*
X217491371Y-178814493D02*
G01*
X217512606Y-178817643D01*
X217533430Y-178822859D01*
X217553642Y-178830091D01*
X217573048Y-178839270D01*
X217591461Y-178850306D01*
X217608704Y-178863094D01*
X217624610Y-178877510D01*
X217639026Y-178893416D01*
X217651814Y-178910659D01*
X217662850Y-178929072D01*
X217672029Y-178948478D01*
X217679261Y-178968690D01*
X217684477Y-178989514D01*
X217687627Y-179010749D01*
X217688680Y-179032190D01*
X217688680Y-179544690D01*
X217687627Y-179566131D01*
X217684477Y-179587366D01*
X217679261Y-179608190D01*
X217672029Y-179628402D01*
X217662850Y-179647808D01*
X217651814Y-179666221D01*
X217639026Y-179683464D01*
X217624610Y-179699370D01*
X217608704Y-179713786D01*
X217591461Y-179726574D01*
X217573048Y-179737610D01*
X217553642Y-179746789D01*
X217533430Y-179754021D01*
X217512606Y-179759237D01*
X217491371Y-179762387D01*
X217469930Y-179763440D01*
X217032430Y-179763440D01*
X217010989Y-179762387D01*
X216989754Y-179759237D01*
X216968930Y-179754021D01*
X216948718Y-179746789D01*
X216929312Y-179737610D01*
X216910899Y-179726574D01*
X216893656Y-179713786D01*
X216877750Y-179699370D01*
X216863334Y-179683464D01*
X216850546Y-179666221D01*
X216839510Y-179647808D01*
X216830331Y-179628402D01*
X216823099Y-179608190D01*
X216817883Y-179587366D01*
X216814733Y-179566131D01*
X216813680Y-179544690D01*
X216813680Y-179032190D01*
X216814733Y-179010749D01*
X216817883Y-178989514D01*
X216823099Y-178968690D01*
X216830331Y-178948478D01*
X216839510Y-178929072D01*
X216850546Y-178910659D01*
X216863334Y-178893416D01*
X216877750Y-178877510D01*
X216893656Y-178863094D01*
X216910899Y-178850306D01*
X216929312Y-178839270D01*
X216948718Y-178830091D01*
X216968930Y-178822859D01*
X216989754Y-178817643D01*
X217010989Y-178814493D01*
X217032430Y-178813440D01*
X217469930Y-178813440D01*
X217491371Y-178814493D01*
X217491371Y-178814493D01*
G37*
D12*
X217251180Y-179288440D03*
D11*
G36*
X230541391Y-174132773D02*
G01*
X230562626Y-174135923D01*
X230583450Y-174141139D01*
X230603662Y-174148371D01*
X230623068Y-174157550D01*
X230641481Y-174168586D01*
X230658724Y-174181374D01*
X230674630Y-174195790D01*
X230689046Y-174211696D01*
X230701834Y-174228939D01*
X230712870Y-174247352D01*
X230722049Y-174266758D01*
X230729281Y-174286970D01*
X230734497Y-174307794D01*
X230737647Y-174329029D01*
X230738700Y-174350470D01*
X230738700Y-174787970D01*
X230737647Y-174809411D01*
X230734497Y-174830646D01*
X230729281Y-174851470D01*
X230722049Y-174871682D01*
X230712870Y-174891088D01*
X230701834Y-174909501D01*
X230689046Y-174926744D01*
X230674630Y-174942650D01*
X230658724Y-174957066D01*
X230641481Y-174969854D01*
X230623068Y-174980890D01*
X230603662Y-174990069D01*
X230583450Y-174997301D01*
X230562626Y-175002517D01*
X230541391Y-175005667D01*
X230519950Y-175006720D01*
X230007450Y-175006720D01*
X229986009Y-175005667D01*
X229964774Y-175002517D01*
X229943950Y-174997301D01*
X229923738Y-174990069D01*
X229904332Y-174980890D01*
X229885919Y-174969854D01*
X229868676Y-174957066D01*
X229852770Y-174942650D01*
X229838354Y-174926744D01*
X229825566Y-174909501D01*
X229814530Y-174891088D01*
X229805351Y-174871682D01*
X229798119Y-174851470D01*
X229792903Y-174830646D01*
X229789753Y-174809411D01*
X229788700Y-174787970D01*
X229788700Y-174350470D01*
X229789753Y-174329029D01*
X229792903Y-174307794D01*
X229798119Y-174286970D01*
X229805351Y-174266758D01*
X229814530Y-174247352D01*
X229825566Y-174228939D01*
X229838354Y-174211696D01*
X229852770Y-174195790D01*
X229868676Y-174181374D01*
X229885919Y-174168586D01*
X229904332Y-174157550D01*
X229923738Y-174148371D01*
X229943950Y-174141139D01*
X229964774Y-174135923D01*
X229986009Y-174132773D01*
X230007450Y-174131720D01*
X230519950Y-174131720D01*
X230541391Y-174132773D01*
X230541391Y-174132773D01*
G37*
D12*
X230263700Y-174569220D03*
D11*
G36*
X230541391Y-172557773D02*
G01*
X230562626Y-172560923D01*
X230583450Y-172566139D01*
X230603662Y-172573371D01*
X230623068Y-172582550D01*
X230641481Y-172593586D01*
X230658724Y-172606374D01*
X230674630Y-172620790D01*
X230689046Y-172636696D01*
X230701834Y-172653939D01*
X230712870Y-172672352D01*
X230722049Y-172691758D01*
X230729281Y-172711970D01*
X230734497Y-172732794D01*
X230737647Y-172754029D01*
X230738700Y-172775470D01*
X230738700Y-173212970D01*
X230737647Y-173234411D01*
X230734497Y-173255646D01*
X230729281Y-173276470D01*
X230722049Y-173296682D01*
X230712870Y-173316088D01*
X230701834Y-173334501D01*
X230689046Y-173351744D01*
X230674630Y-173367650D01*
X230658724Y-173382066D01*
X230641481Y-173394854D01*
X230623068Y-173405890D01*
X230603662Y-173415069D01*
X230583450Y-173422301D01*
X230562626Y-173427517D01*
X230541391Y-173430667D01*
X230519950Y-173431720D01*
X230007450Y-173431720D01*
X229986009Y-173430667D01*
X229964774Y-173427517D01*
X229943950Y-173422301D01*
X229923738Y-173415069D01*
X229904332Y-173405890D01*
X229885919Y-173394854D01*
X229868676Y-173382066D01*
X229852770Y-173367650D01*
X229838354Y-173351744D01*
X229825566Y-173334501D01*
X229814530Y-173316088D01*
X229805351Y-173296682D01*
X229798119Y-173276470D01*
X229792903Y-173255646D01*
X229789753Y-173234411D01*
X229788700Y-173212970D01*
X229788700Y-172775470D01*
X229789753Y-172754029D01*
X229792903Y-172732794D01*
X229798119Y-172711970D01*
X229805351Y-172691758D01*
X229814530Y-172672352D01*
X229825566Y-172653939D01*
X229838354Y-172636696D01*
X229852770Y-172620790D01*
X229868676Y-172606374D01*
X229885919Y-172593586D01*
X229904332Y-172582550D01*
X229923738Y-172573371D01*
X229943950Y-172566139D01*
X229964774Y-172560923D01*
X229986009Y-172557773D01*
X230007450Y-172556720D01*
X230519950Y-172556720D01*
X230541391Y-172557773D01*
X230541391Y-172557773D01*
G37*
D12*
X230263700Y-172994220D03*
D11*
G36*
X203153304Y-142174004D02*
G01*
X203174539Y-142177154D01*
X203195363Y-142182370D01*
X203215575Y-142189602D01*
X203234981Y-142198781D01*
X203253394Y-142209817D01*
X203270637Y-142222605D01*
X203286543Y-142237021D01*
X203300959Y-142252927D01*
X203313747Y-142270170D01*
X203324783Y-142288583D01*
X203333962Y-142307989D01*
X203341194Y-142328201D01*
X203346410Y-142349025D01*
X203349560Y-142370260D01*
X203350613Y-142391701D01*
X203350613Y-142904201D01*
X203349560Y-142925642D01*
X203346410Y-142946877D01*
X203341194Y-142967701D01*
X203333962Y-142987913D01*
X203324783Y-143007319D01*
X203313747Y-143025732D01*
X203300959Y-143042975D01*
X203286543Y-143058881D01*
X203270637Y-143073297D01*
X203253394Y-143086085D01*
X203234981Y-143097121D01*
X203215575Y-143106300D01*
X203195363Y-143113532D01*
X203174539Y-143118748D01*
X203153304Y-143121898D01*
X203131863Y-143122951D01*
X202694363Y-143122951D01*
X202672922Y-143121898D01*
X202651687Y-143118748D01*
X202630863Y-143113532D01*
X202610651Y-143106300D01*
X202591245Y-143097121D01*
X202572832Y-143086085D01*
X202555589Y-143073297D01*
X202539683Y-143058881D01*
X202525267Y-143042975D01*
X202512479Y-143025732D01*
X202501443Y-143007319D01*
X202492264Y-142987913D01*
X202485032Y-142967701D01*
X202479816Y-142946877D01*
X202476666Y-142925642D01*
X202475613Y-142904201D01*
X202475613Y-142391701D01*
X202476666Y-142370260D01*
X202479816Y-142349025D01*
X202485032Y-142328201D01*
X202492264Y-142307989D01*
X202501443Y-142288583D01*
X202512479Y-142270170D01*
X202525267Y-142252927D01*
X202539683Y-142237021D01*
X202555589Y-142222605D01*
X202572832Y-142209817D01*
X202591245Y-142198781D01*
X202610651Y-142189602D01*
X202630863Y-142182370D01*
X202651687Y-142177154D01*
X202672922Y-142174004D01*
X202694363Y-142172951D01*
X203131863Y-142172951D01*
X203153304Y-142174004D01*
X203153304Y-142174004D01*
G37*
D12*
X202913113Y-142647951D03*
D11*
G36*
X201578304Y-142174004D02*
G01*
X201599539Y-142177154D01*
X201620363Y-142182370D01*
X201640575Y-142189602D01*
X201659981Y-142198781D01*
X201678394Y-142209817D01*
X201695637Y-142222605D01*
X201711543Y-142237021D01*
X201725959Y-142252927D01*
X201738747Y-142270170D01*
X201749783Y-142288583D01*
X201758962Y-142307989D01*
X201766194Y-142328201D01*
X201771410Y-142349025D01*
X201774560Y-142370260D01*
X201775613Y-142391701D01*
X201775613Y-142904201D01*
X201774560Y-142925642D01*
X201771410Y-142946877D01*
X201766194Y-142967701D01*
X201758962Y-142987913D01*
X201749783Y-143007319D01*
X201738747Y-143025732D01*
X201725959Y-143042975D01*
X201711543Y-143058881D01*
X201695637Y-143073297D01*
X201678394Y-143086085D01*
X201659981Y-143097121D01*
X201640575Y-143106300D01*
X201620363Y-143113532D01*
X201599539Y-143118748D01*
X201578304Y-143121898D01*
X201556863Y-143122951D01*
X201119363Y-143122951D01*
X201097922Y-143121898D01*
X201076687Y-143118748D01*
X201055863Y-143113532D01*
X201035651Y-143106300D01*
X201016245Y-143097121D01*
X200997832Y-143086085D01*
X200980589Y-143073297D01*
X200964683Y-143058881D01*
X200950267Y-143042975D01*
X200937479Y-143025732D01*
X200926443Y-143007319D01*
X200917264Y-142987913D01*
X200910032Y-142967701D01*
X200904816Y-142946877D01*
X200901666Y-142925642D01*
X200900613Y-142904201D01*
X200900613Y-142391701D01*
X200901666Y-142370260D01*
X200904816Y-142349025D01*
X200910032Y-142328201D01*
X200917264Y-142307989D01*
X200926443Y-142288583D01*
X200937479Y-142270170D01*
X200950267Y-142252927D01*
X200964683Y-142237021D01*
X200980589Y-142222605D01*
X200997832Y-142209817D01*
X201016245Y-142198781D01*
X201035651Y-142189602D01*
X201055863Y-142182370D01*
X201076687Y-142177154D01*
X201097922Y-142174004D01*
X201119363Y-142172951D01*
X201556863Y-142172951D01*
X201578304Y-142174004D01*
X201578304Y-142174004D01*
G37*
D12*
X201338113Y-142647951D03*
D11*
G36*
X208456520Y-164863084D02*
G01*
X208477755Y-164866234D01*
X208498579Y-164871450D01*
X208518791Y-164878682D01*
X208538197Y-164887861D01*
X208556610Y-164898897D01*
X208573853Y-164911685D01*
X208589759Y-164926101D01*
X208604175Y-164942007D01*
X208616963Y-164959250D01*
X208627999Y-164977663D01*
X208637178Y-164997069D01*
X208644410Y-165017281D01*
X208649626Y-165038105D01*
X208652776Y-165059340D01*
X208653829Y-165080781D01*
X208653829Y-165518281D01*
X208652776Y-165539722D01*
X208649626Y-165560957D01*
X208644410Y-165581781D01*
X208637178Y-165601993D01*
X208627999Y-165621399D01*
X208616963Y-165639812D01*
X208604175Y-165657055D01*
X208589759Y-165672961D01*
X208573853Y-165687377D01*
X208556610Y-165700165D01*
X208538197Y-165711201D01*
X208518791Y-165720380D01*
X208498579Y-165727612D01*
X208477755Y-165732828D01*
X208456520Y-165735978D01*
X208435079Y-165737031D01*
X207922579Y-165737031D01*
X207901138Y-165735978D01*
X207879903Y-165732828D01*
X207859079Y-165727612D01*
X207838867Y-165720380D01*
X207819461Y-165711201D01*
X207801048Y-165700165D01*
X207783805Y-165687377D01*
X207767899Y-165672961D01*
X207753483Y-165657055D01*
X207740695Y-165639812D01*
X207729659Y-165621399D01*
X207720480Y-165601993D01*
X207713248Y-165581781D01*
X207708032Y-165560957D01*
X207704882Y-165539722D01*
X207703829Y-165518281D01*
X207703829Y-165080781D01*
X207704882Y-165059340D01*
X207708032Y-165038105D01*
X207713248Y-165017281D01*
X207720480Y-164997069D01*
X207729659Y-164977663D01*
X207740695Y-164959250D01*
X207753483Y-164942007D01*
X207767899Y-164926101D01*
X207783805Y-164911685D01*
X207801048Y-164898897D01*
X207819461Y-164887861D01*
X207838867Y-164878682D01*
X207859079Y-164871450D01*
X207879903Y-164866234D01*
X207901138Y-164863084D01*
X207922579Y-164862031D01*
X208435079Y-164862031D01*
X208456520Y-164863084D01*
X208456520Y-164863084D01*
G37*
D12*
X208178829Y-165299531D03*
D11*
G36*
X208456520Y-163288084D02*
G01*
X208477755Y-163291234D01*
X208498579Y-163296450D01*
X208518791Y-163303682D01*
X208538197Y-163312861D01*
X208556610Y-163323897D01*
X208573853Y-163336685D01*
X208589759Y-163351101D01*
X208604175Y-163367007D01*
X208616963Y-163384250D01*
X208627999Y-163402663D01*
X208637178Y-163422069D01*
X208644410Y-163442281D01*
X208649626Y-163463105D01*
X208652776Y-163484340D01*
X208653829Y-163505781D01*
X208653829Y-163943281D01*
X208652776Y-163964722D01*
X208649626Y-163985957D01*
X208644410Y-164006781D01*
X208637178Y-164026993D01*
X208627999Y-164046399D01*
X208616963Y-164064812D01*
X208604175Y-164082055D01*
X208589759Y-164097961D01*
X208573853Y-164112377D01*
X208556610Y-164125165D01*
X208538197Y-164136201D01*
X208518791Y-164145380D01*
X208498579Y-164152612D01*
X208477755Y-164157828D01*
X208456520Y-164160978D01*
X208435079Y-164162031D01*
X207922579Y-164162031D01*
X207901138Y-164160978D01*
X207879903Y-164157828D01*
X207859079Y-164152612D01*
X207838867Y-164145380D01*
X207819461Y-164136201D01*
X207801048Y-164125165D01*
X207783805Y-164112377D01*
X207767899Y-164097961D01*
X207753483Y-164082055D01*
X207740695Y-164064812D01*
X207729659Y-164046399D01*
X207720480Y-164026993D01*
X207713248Y-164006781D01*
X207708032Y-163985957D01*
X207704882Y-163964722D01*
X207703829Y-163943281D01*
X207703829Y-163505781D01*
X207704882Y-163484340D01*
X207708032Y-163463105D01*
X207713248Y-163442281D01*
X207720480Y-163422069D01*
X207729659Y-163402663D01*
X207740695Y-163384250D01*
X207753483Y-163367007D01*
X207767899Y-163351101D01*
X207783805Y-163336685D01*
X207801048Y-163323897D01*
X207819461Y-163312861D01*
X207838867Y-163303682D01*
X207859079Y-163296450D01*
X207879903Y-163291234D01*
X207901138Y-163288084D01*
X207922579Y-163287031D01*
X208435079Y-163287031D01*
X208456520Y-163288084D01*
X208456520Y-163288084D01*
G37*
D12*
X208178829Y-163724531D03*
D13*
X221585000Y-156079000D03*
X221585000Y-156879000D03*
X221585000Y-157679000D03*
X221585000Y-158479000D03*
X221585000Y-159279000D03*
X221585000Y-160079000D03*
X221585000Y-160879000D03*
X221585000Y-161679000D03*
X221585000Y-162479000D03*
X221585000Y-163279000D03*
X221585000Y-164079000D03*
X221585000Y-164879000D03*
X221585000Y-165679000D03*
X221585000Y-166479000D03*
X221585000Y-167279000D03*
X221585000Y-168079000D03*
X221585000Y-168879000D03*
X221585000Y-169679000D03*
X221585000Y-170479000D03*
X221585000Y-171279000D03*
X221585000Y-172079000D03*
X221585000Y-172879000D03*
X221585000Y-173679000D03*
X221585000Y-174479000D03*
X221585000Y-175279000D03*
X221585000Y-176079000D03*
X221585000Y-176879000D03*
X210345000Y-176879000D03*
X210345000Y-176079000D03*
X210345000Y-175279000D03*
X210345000Y-174479000D03*
X210345000Y-173679000D03*
X210345000Y-172879000D03*
X210345000Y-172079000D03*
X210345000Y-171279000D03*
X210345000Y-170479000D03*
X210345000Y-169679000D03*
X210345000Y-168879000D03*
X210345000Y-168079000D03*
X210345000Y-167279000D03*
X210345000Y-166479000D03*
X210345000Y-165679000D03*
X210345000Y-164879000D03*
X210345000Y-164079000D03*
X210345000Y-163279000D03*
X210345000Y-162479000D03*
X210345000Y-161679000D03*
X210345000Y-160879000D03*
X210345000Y-160079000D03*
X210345000Y-159279000D03*
X210345000Y-158479000D03*
X210345000Y-157679000D03*
X210345000Y-156879000D03*
X210345000Y-156079000D03*
D10*
X203497940Y-174920160D03*
X203997940Y-174920160D03*
X204497940Y-174920160D03*
X204997940Y-174920160D03*
X205497940Y-174920160D03*
D14*
X269253140Y-179963900D03*
X273753140Y-179963900D03*
X273753140Y-172003900D03*
X269253140Y-172003900D03*
D15*
X245360000Y-148430000D03*
X245360000Y-143930000D03*
X237400000Y-143930000D03*
X237400000Y-148430000D03*
X233640000Y-148370000D03*
X233640000Y-143870000D03*
X225680000Y-143870000D03*
X225680000Y-148370000D03*
D16*
X252685000Y-148835000D03*
D17*
X255485000Y-150085000D03*
D16*
X253685000Y-151835000D03*
X252685000Y-150735000D03*
D17*
X250935000Y-150585000D03*
X255715000Y-173235000D03*
D16*
X253915000Y-174985000D03*
X252915000Y-171985000D03*
D17*
X251165000Y-173735000D03*
D16*
X252915000Y-173885000D03*
X241155000Y-160535000D03*
X241155000Y-162435000D03*
D17*
X239405000Y-162285000D03*
D16*
X242155000Y-163535000D03*
D17*
X243955000Y-161785000D03*
X267115000Y-161675000D03*
D16*
X265315000Y-163425000D03*
D17*
X262565000Y-162175000D03*
D16*
X264315000Y-162325000D03*
X264315000Y-160425000D03*
X176485000Y-150835000D03*
D17*
X179285000Y-152085000D03*
D16*
X177485000Y-153835000D03*
X176485000Y-152735000D03*
D17*
X174735000Y-152585000D03*
X179515000Y-171235000D03*
D16*
X177715000Y-172985000D03*
X176715000Y-169985000D03*
D17*
X174965000Y-171735000D03*
D16*
X176715000Y-171885000D03*
X166655000Y-160535000D03*
X166655000Y-162435000D03*
D17*
X164905000Y-162285000D03*
D16*
X167655000Y-163535000D03*
D17*
X169455000Y-161785000D03*
X189015000Y-161675000D03*
D16*
X187215000Y-163425000D03*
D17*
X184465000Y-162175000D03*
D16*
X186215000Y-162325000D03*
X186215000Y-160425000D03*
M02*
