G04 #@! TF.GenerationSoftware,KiCad,Pcbnew,5.1.3-ffb9f22~84~ubuntu18.10.1*
G04 #@! TF.CreationDate,2019-11-16T15:14:42-06:00*
G04 #@! TF.ProjectId,BurnedHead,4275726e-6564-4486-9561-642e6b696361,rev?*
G04 #@! TF.SameCoordinates,Original*
G04 #@! TF.FileFunction,Soldermask,Top*
G04 #@! TF.FilePolarity,Negative*
%FSLAX46Y46*%
G04 Gerber Fmt 4.6, Leading zero omitted, Abs format (unit mm)*
G04 Created by KiCad (PCBNEW 5.1.3-ffb9f22~84~ubuntu18.10.1) date 2019-11-16 15:14:42*
%MOMM*%
%LPD*%
G04 APERTURE LIST*
%ADD10R,4.076200X0.576200*%
%ADD11R,0.576200X4.076200*%
%ADD12C,0.100000*%
%ADD13C,0.951200*%
%ADD14O,1.776200X1.776200*%
%ADD15R,1.776200X1.776200*%
%ADD16R,0.376200X1.376200*%
%ADD17R,1.516200X0.626200*%
%ADD18R,1.376200X1.626200*%
%ADD19R,1.626200X1.376200*%
%ADD20C,0.826200*%
%ADD21R,1.376200X0.876200*%
%ADD22O,1.376200X0.876200*%
%ADD23O,2.276200X3.576200*%
%ADD24O,1.576200X2.576200*%
%ADD25R,1.576200X2.576200*%
G04 APERTURE END LIST*
D10*
X176469040Y-150825120D03*
D11*
X179269040Y-152075120D03*
D10*
X177469040Y-153825120D03*
X177469040Y-151725120D03*
X176469040Y-152725120D03*
D11*
X174719040Y-152575120D03*
D10*
X177699040Y-170875120D03*
D11*
X179499040Y-171225120D03*
D10*
X177699040Y-172975120D03*
X176699040Y-169975120D03*
D11*
X174949040Y-171725120D03*
D10*
X176699040Y-171875120D03*
X166639040Y-160525120D03*
X166639040Y-162425120D03*
D11*
X164889040Y-162275120D03*
D10*
X167639040Y-163525120D03*
D11*
X169439040Y-161775120D03*
D10*
X167639040Y-161425120D03*
X187199040Y-161315120D03*
D11*
X188999040Y-161665120D03*
D10*
X187199040Y-163415120D03*
D11*
X184449040Y-162165120D03*
D10*
X186199040Y-162315120D03*
X186199040Y-160415120D03*
X264259120Y-160450400D03*
X264259120Y-162350400D03*
D11*
X262509120Y-162200400D03*
D10*
X265259120Y-163450400D03*
D11*
X267059120Y-161700400D03*
D10*
X265259120Y-161350400D03*
X242099120Y-161460400D03*
D11*
X243899120Y-161810400D03*
D10*
X242099120Y-163560400D03*
D11*
X239349120Y-162310400D03*
D10*
X241099120Y-162460400D03*
X241099120Y-160560400D03*
X252859120Y-173910400D03*
D11*
X251109120Y-173760400D03*
D10*
X252859120Y-172010400D03*
X253859120Y-175010400D03*
D11*
X255659120Y-173260400D03*
D10*
X253859120Y-172910400D03*
D11*
X250879120Y-150610400D03*
D10*
X252629120Y-150760400D03*
X253629120Y-149760400D03*
X253629120Y-151860400D03*
D11*
X255429120Y-150110400D03*
D10*
X252629120Y-148860400D03*
D12*
G36*
X208799588Y-159845365D02*
G01*
X208822672Y-159848789D01*
X208845310Y-159854460D01*
X208867282Y-159862321D01*
X208888378Y-159872299D01*
X208908395Y-159884297D01*
X208927139Y-159898198D01*
X208944430Y-159913870D01*
X208960102Y-159931161D01*
X208974003Y-159949905D01*
X208986001Y-159969922D01*
X208995979Y-159991018D01*
X209003840Y-160012990D01*
X209009511Y-160035628D01*
X209012935Y-160058712D01*
X209014080Y-160082020D01*
X209014080Y-160557620D01*
X209012935Y-160580928D01*
X209009511Y-160604012D01*
X209003840Y-160626650D01*
X208995979Y-160648622D01*
X208986001Y-160669718D01*
X208974003Y-160689735D01*
X208960102Y-160708479D01*
X208944430Y-160725770D01*
X208927139Y-160741442D01*
X208908395Y-160755343D01*
X208888378Y-160767341D01*
X208867282Y-160777319D01*
X208845310Y-160785180D01*
X208822672Y-160790851D01*
X208799588Y-160794275D01*
X208776280Y-160795420D01*
X208225680Y-160795420D01*
X208202372Y-160794275D01*
X208179288Y-160790851D01*
X208156650Y-160785180D01*
X208134678Y-160777319D01*
X208113582Y-160767341D01*
X208093565Y-160755343D01*
X208074821Y-160741442D01*
X208057530Y-160725770D01*
X208041858Y-160708479D01*
X208027957Y-160689735D01*
X208015959Y-160669718D01*
X208005981Y-160648622D01*
X207998120Y-160626650D01*
X207992449Y-160604012D01*
X207989025Y-160580928D01*
X207987880Y-160557620D01*
X207987880Y-160082020D01*
X207989025Y-160058712D01*
X207992449Y-160035628D01*
X207998120Y-160012990D01*
X208005981Y-159991018D01*
X208015959Y-159969922D01*
X208027957Y-159949905D01*
X208041858Y-159931161D01*
X208057530Y-159913870D01*
X208074821Y-159898198D01*
X208093565Y-159884297D01*
X208113582Y-159872299D01*
X208134678Y-159862321D01*
X208156650Y-159854460D01*
X208179288Y-159848789D01*
X208202372Y-159845365D01*
X208225680Y-159844220D01*
X208776280Y-159844220D01*
X208799588Y-159845365D01*
X208799588Y-159845365D01*
G37*
D13*
X208500980Y-160319820D03*
D12*
G36*
X208799588Y-158270365D02*
G01*
X208822672Y-158273789D01*
X208845310Y-158279460D01*
X208867282Y-158287321D01*
X208888378Y-158297299D01*
X208908395Y-158309297D01*
X208927139Y-158323198D01*
X208944430Y-158338870D01*
X208960102Y-158356161D01*
X208974003Y-158374905D01*
X208986001Y-158394922D01*
X208995979Y-158416018D01*
X209003840Y-158437990D01*
X209009511Y-158460628D01*
X209012935Y-158483712D01*
X209014080Y-158507020D01*
X209014080Y-158982620D01*
X209012935Y-159005928D01*
X209009511Y-159029012D01*
X209003840Y-159051650D01*
X208995979Y-159073622D01*
X208986001Y-159094718D01*
X208974003Y-159114735D01*
X208960102Y-159133479D01*
X208944430Y-159150770D01*
X208927139Y-159166442D01*
X208908395Y-159180343D01*
X208888378Y-159192341D01*
X208867282Y-159202319D01*
X208845310Y-159210180D01*
X208822672Y-159215851D01*
X208799588Y-159219275D01*
X208776280Y-159220420D01*
X208225680Y-159220420D01*
X208202372Y-159219275D01*
X208179288Y-159215851D01*
X208156650Y-159210180D01*
X208134678Y-159202319D01*
X208113582Y-159192341D01*
X208093565Y-159180343D01*
X208074821Y-159166442D01*
X208057530Y-159150770D01*
X208041858Y-159133479D01*
X208027957Y-159114735D01*
X208015959Y-159094718D01*
X208005981Y-159073622D01*
X207998120Y-159051650D01*
X207992449Y-159029012D01*
X207989025Y-159005928D01*
X207987880Y-158982620D01*
X207987880Y-158507020D01*
X207989025Y-158483712D01*
X207992449Y-158460628D01*
X207998120Y-158437990D01*
X208005981Y-158416018D01*
X208015959Y-158394922D01*
X208027957Y-158374905D01*
X208041858Y-158356161D01*
X208057530Y-158338870D01*
X208074821Y-158323198D01*
X208093565Y-158309297D01*
X208113582Y-158297299D01*
X208134678Y-158287321D01*
X208156650Y-158279460D01*
X208179288Y-158273789D01*
X208202372Y-158270365D01*
X208225680Y-158269220D01*
X208776280Y-158269220D01*
X208799588Y-158270365D01*
X208799588Y-158270365D01*
G37*
D13*
X208500980Y-158744820D03*
D14*
X247604280Y-168516300D03*
D15*
X250144280Y-168516300D03*
D16*
X240754660Y-176314620D03*
X241254660Y-176314620D03*
X241754660Y-176314620D03*
X242254660Y-176314620D03*
X242754660Y-176314620D03*
D12*
G36*
X224048479Y-157862500D02*
G01*
X224071563Y-157865924D01*
X224094201Y-157871595D01*
X224116173Y-157879456D01*
X224137269Y-157889434D01*
X224157286Y-157901432D01*
X224176030Y-157915333D01*
X224193321Y-157931005D01*
X224208993Y-157948296D01*
X224222894Y-157967040D01*
X224234892Y-157987057D01*
X224244870Y-158008153D01*
X224252731Y-158030125D01*
X224258402Y-158052763D01*
X224261826Y-158075847D01*
X224262971Y-158099155D01*
X224262971Y-158574755D01*
X224261826Y-158598063D01*
X224258402Y-158621147D01*
X224252731Y-158643785D01*
X224244870Y-158665757D01*
X224234892Y-158686853D01*
X224222894Y-158706870D01*
X224208993Y-158725614D01*
X224193321Y-158742905D01*
X224176030Y-158758577D01*
X224157286Y-158772478D01*
X224137269Y-158784476D01*
X224116173Y-158794454D01*
X224094201Y-158802315D01*
X224071563Y-158807986D01*
X224048479Y-158811410D01*
X224025171Y-158812555D01*
X223474571Y-158812555D01*
X223451263Y-158811410D01*
X223428179Y-158807986D01*
X223405541Y-158802315D01*
X223383569Y-158794454D01*
X223362473Y-158784476D01*
X223342456Y-158772478D01*
X223323712Y-158758577D01*
X223306421Y-158742905D01*
X223290749Y-158725614D01*
X223276848Y-158706870D01*
X223264850Y-158686853D01*
X223254872Y-158665757D01*
X223247011Y-158643785D01*
X223241340Y-158621147D01*
X223237916Y-158598063D01*
X223236771Y-158574755D01*
X223236771Y-158099155D01*
X223237916Y-158075847D01*
X223241340Y-158052763D01*
X223247011Y-158030125D01*
X223254872Y-158008153D01*
X223264850Y-157987057D01*
X223276848Y-157967040D01*
X223290749Y-157948296D01*
X223306421Y-157931005D01*
X223323712Y-157915333D01*
X223342456Y-157901432D01*
X223362473Y-157889434D01*
X223383569Y-157879456D01*
X223405541Y-157871595D01*
X223428179Y-157865924D01*
X223451263Y-157862500D01*
X223474571Y-157861355D01*
X224025171Y-157861355D01*
X224048479Y-157862500D01*
X224048479Y-157862500D01*
G37*
D13*
X223749871Y-158336955D03*
D12*
G36*
X224048479Y-159437500D02*
G01*
X224071563Y-159440924D01*
X224094201Y-159446595D01*
X224116173Y-159454456D01*
X224137269Y-159464434D01*
X224157286Y-159476432D01*
X224176030Y-159490333D01*
X224193321Y-159506005D01*
X224208993Y-159523296D01*
X224222894Y-159542040D01*
X224234892Y-159562057D01*
X224244870Y-159583153D01*
X224252731Y-159605125D01*
X224258402Y-159627763D01*
X224261826Y-159650847D01*
X224262971Y-159674155D01*
X224262971Y-160149755D01*
X224261826Y-160173063D01*
X224258402Y-160196147D01*
X224252731Y-160218785D01*
X224244870Y-160240757D01*
X224234892Y-160261853D01*
X224222894Y-160281870D01*
X224208993Y-160300614D01*
X224193321Y-160317905D01*
X224176030Y-160333577D01*
X224157286Y-160347478D01*
X224137269Y-160359476D01*
X224116173Y-160369454D01*
X224094201Y-160377315D01*
X224071563Y-160382986D01*
X224048479Y-160386410D01*
X224025171Y-160387555D01*
X223474571Y-160387555D01*
X223451263Y-160386410D01*
X223428179Y-160382986D01*
X223405541Y-160377315D01*
X223383569Y-160369454D01*
X223362473Y-160359476D01*
X223342456Y-160347478D01*
X223323712Y-160333577D01*
X223306421Y-160317905D01*
X223290749Y-160300614D01*
X223276848Y-160281870D01*
X223264850Y-160261853D01*
X223254872Y-160240757D01*
X223247011Y-160218785D01*
X223241340Y-160196147D01*
X223237916Y-160173063D01*
X223236771Y-160149755D01*
X223236771Y-159674155D01*
X223237916Y-159650847D01*
X223241340Y-159627763D01*
X223247011Y-159605125D01*
X223254872Y-159583153D01*
X223264850Y-159562057D01*
X223276848Y-159542040D01*
X223290749Y-159523296D01*
X223306421Y-159506005D01*
X223323712Y-159490333D01*
X223342456Y-159476432D01*
X223362473Y-159464434D01*
X223383569Y-159454456D01*
X223405541Y-159446595D01*
X223428179Y-159440924D01*
X223451263Y-159437500D01*
X223474571Y-159436355D01*
X224025171Y-159436355D01*
X224048479Y-159437500D01*
X224048479Y-159437500D01*
G37*
D13*
X223749871Y-159911955D03*
D12*
G36*
X223809129Y-165715215D02*
G01*
X223832213Y-165718639D01*
X223854851Y-165724310D01*
X223876823Y-165732171D01*
X223897919Y-165742149D01*
X223917936Y-165754147D01*
X223936680Y-165768048D01*
X223953971Y-165783720D01*
X223969643Y-165801011D01*
X223983544Y-165819755D01*
X223995542Y-165839772D01*
X224005520Y-165860868D01*
X224013381Y-165882840D01*
X224019052Y-165905478D01*
X224022476Y-165928562D01*
X224023621Y-165951870D01*
X224023621Y-166427470D01*
X224022476Y-166450778D01*
X224019052Y-166473862D01*
X224013381Y-166496500D01*
X224005520Y-166518472D01*
X223995542Y-166539568D01*
X223983544Y-166559585D01*
X223969643Y-166578329D01*
X223953971Y-166595620D01*
X223936680Y-166611292D01*
X223917936Y-166625193D01*
X223897919Y-166637191D01*
X223876823Y-166647169D01*
X223854851Y-166655030D01*
X223832213Y-166660701D01*
X223809129Y-166664125D01*
X223785821Y-166665270D01*
X223235221Y-166665270D01*
X223211913Y-166664125D01*
X223188829Y-166660701D01*
X223166191Y-166655030D01*
X223144219Y-166647169D01*
X223123123Y-166637191D01*
X223103106Y-166625193D01*
X223084362Y-166611292D01*
X223067071Y-166595620D01*
X223051399Y-166578329D01*
X223037498Y-166559585D01*
X223025500Y-166539568D01*
X223015522Y-166518472D01*
X223007661Y-166496500D01*
X223001990Y-166473862D01*
X222998566Y-166450778D01*
X222997421Y-166427470D01*
X222997421Y-165951870D01*
X222998566Y-165928562D01*
X223001990Y-165905478D01*
X223007661Y-165882840D01*
X223015522Y-165860868D01*
X223025500Y-165839772D01*
X223037498Y-165819755D01*
X223051399Y-165801011D01*
X223067071Y-165783720D01*
X223084362Y-165768048D01*
X223103106Y-165754147D01*
X223123123Y-165742149D01*
X223144219Y-165732171D01*
X223166191Y-165724310D01*
X223188829Y-165718639D01*
X223211913Y-165715215D01*
X223235221Y-165714070D01*
X223785821Y-165714070D01*
X223809129Y-165715215D01*
X223809129Y-165715215D01*
G37*
D13*
X223510521Y-166189670D03*
D12*
G36*
X223809129Y-164140215D02*
G01*
X223832213Y-164143639D01*
X223854851Y-164149310D01*
X223876823Y-164157171D01*
X223897919Y-164167149D01*
X223917936Y-164179147D01*
X223936680Y-164193048D01*
X223953971Y-164208720D01*
X223969643Y-164226011D01*
X223983544Y-164244755D01*
X223995542Y-164264772D01*
X224005520Y-164285868D01*
X224013381Y-164307840D01*
X224019052Y-164330478D01*
X224022476Y-164353562D01*
X224023621Y-164376870D01*
X224023621Y-164852470D01*
X224022476Y-164875778D01*
X224019052Y-164898862D01*
X224013381Y-164921500D01*
X224005520Y-164943472D01*
X223995542Y-164964568D01*
X223983544Y-164984585D01*
X223969643Y-165003329D01*
X223953971Y-165020620D01*
X223936680Y-165036292D01*
X223917936Y-165050193D01*
X223897919Y-165062191D01*
X223876823Y-165072169D01*
X223854851Y-165080030D01*
X223832213Y-165085701D01*
X223809129Y-165089125D01*
X223785821Y-165090270D01*
X223235221Y-165090270D01*
X223211913Y-165089125D01*
X223188829Y-165085701D01*
X223166191Y-165080030D01*
X223144219Y-165072169D01*
X223123123Y-165062191D01*
X223103106Y-165050193D01*
X223084362Y-165036292D01*
X223067071Y-165020620D01*
X223051399Y-165003329D01*
X223037498Y-164984585D01*
X223025500Y-164964568D01*
X223015522Y-164943472D01*
X223007661Y-164921500D01*
X223001990Y-164898862D01*
X222998566Y-164875778D01*
X222997421Y-164852470D01*
X222997421Y-164376870D01*
X222998566Y-164353562D01*
X223001990Y-164330478D01*
X223007661Y-164307840D01*
X223015522Y-164285868D01*
X223025500Y-164264772D01*
X223037498Y-164244755D01*
X223051399Y-164226011D01*
X223067071Y-164208720D01*
X223084362Y-164193048D01*
X223103106Y-164179147D01*
X223123123Y-164167149D01*
X223144219Y-164157171D01*
X223166191Y-164149310D01*
X223188829Y-164143639D01*
X223211913Y-164140215D01*
X223235221Y-164139070D01*
X223785821Y-164139070D01*
X223809129Y-164140215D01*
X223809129Y-164140215D01*
G37*
D13*
X223510521Y-164614670D03*
D12*
G36*
X202594033Y-155918129D02*
G01*
X202617117Y-155921553D01*
X202639755Y-155927224D01*
X202661727Y-155935085D01*
X202682823Y-155945063D01*
X202702840Y-155957061D01*
X202721584Y-155970962D01*
X202738875Y-155986634D01*
X202754547Y-156003925D01*
X202768448Y-156022669D01*
X202780446Y-156042686D01*
X202790424Y-156063782D01*
X202798285Y-156085754D01*
X202803956Y-156108392D01*
X202807380Y-156131476D01*
X202808525Y-156154784D01*
X202808525Y-156630384D01*
X202807380Y-156653692D01*
X202803956Y-156676776D01*
X202798285Y-156699414D01*
X202790424Y-156721386D01*
X202780446Y-156742482D01*
X202768448Y-156762499D01*
X202754547Y-156781243D01*
X202738875Y-156798534D01*
X202721584Y-156814206D01*
X202702840Y-156828107D01*
X202682823Y-156840105D01*
X202661727Y-156850083D01*
X202639755Y-156857944D01*
X202617117Y-156863615D01*
X202594033Y-156867039D01*
X202570725Y-156868184D01*
X202020125Y-156868184D01*
X201996817Y-156867039D01*
X201973733Y-156863615D01*
X201951095Y-156857944D01*
X201929123Y-156850083D01*
X201908027Y-156840105D01*
X201888010Y-156828107D01*
X201869266Y-156814206D01*
X201851975Y-156798534D01*
X201836303Y-156781243D01*
X201822402Y-156762499D01*
X201810404Y-156742482D01*
X201800426Y-156721386D01*
X201792565Y-156699414D01*
X201786894Y-156676776D01*
X201783470Y-156653692D01*
X201782325Y-156630384D01*
X201782325Y-156154784D01*
X201783470Y-156131476D01*
X201786894Y-156108392D01*
X201792565Y-156085754D01*
X201800426Y-156063782D01*
X201810404Y-156042686D01*
X201822402Y-156022669D01*
X201836303Y-156003925D01*
X201851975Y-155986634D01*
X201869266Y-155970962D01*
X201888010Y-155957061D01*
X201908027Y-155945063D01*
X201929123Y-155935085D01*
X201951095Y-155927224D01*
X201973733Y-155921553D01*
X201996817Y-155918129D01*
X202020125Y-155916984D01*
X202570725Y-155916984D01*
X202594033Y-155918129D01*
X202594033Y-155918129D01*
G37*
D13*
X202295425Y-156392584D03*
D12*
G36*
X202594033Y-157493129D02*
G01*
X202617117Y-157496553D01*
X202639755Y-157502224D01*
X202661727Y-157510085D01*
X202682823Y-157520063D01*
X202702840Y-157532061D01*
X202721584Y-157545962D01*
X202738875Y-157561634D01*
X202754547Y-157578925D01*
X202768448Y-157597669D01*
X202780446Y-157617686D01*
X202790424Y-157638782D01*
X202798285Y-157660754D01*
X202803956Y-157683392D01*
X202807380Y-157706476D01*
X202808525Y-157729784D01*
X202808525Y-158205384D01*
X202807380Y-158228692D01*
X202803956Y-158251776D01*
X202798285Y-158274414D01*
X202790424Y-158296386D01*
X202780446Y-158317482D01*
X202768448Y-158337499D01*
X202754547Y-158356243D01*
X202738875Y-158373534D01*
X202721584Y-158389206D01*
X202702840Y-158403107D01*
X202682823Y-158415105D01*
X202661727Y-158425083D01*
X202639755Y-158432944D01*
X202617117Y-158438615D01*
X202594033Y-158442039D01*
X202570725Y-158443184D01*
X202020125Y-158443184D01*
X201996817Y-158442039D01*
X201973733Y-158438615D01*
X201951095Y-158432944D01*
X201929123Y-158425083D01*
X201908027Y-158415105D01*
X201888010Y-158403107D01*
X201869266Y-158389206D01*
X201851975Y-158373534D01*
X201836303Y-158356243D01*
X201822402Y-158337499D01*
X201810404Y-158317482D01*
X201800426Y-158296386D01*
X201792565Y-158274414D01*
X201786894Y-158251776D01*
X201783470Y-158228692D01*
X201782325Y-158205384D01*
X201782325Y-157729784D01*
X201783470Y-157706476D01*
X201786894Y-157683392D01*
X201792565Y-157660754D01*
X201800426Y-157638782D01*
X201810404Y-157617686D01*
X201822402Y-157597669D01*
X201836303Y-157578925D01*
X201851975Y-157561634D01*
X201869266Y-157545962D01*
X201888010Y-157532061D01*
X201908027Y-157520063D01*
X201929123Y-157510085D01*
X201951095Y-157502224D01*
X201973733Y-157496553D01*
X201996817Y-157493129D01*
X202020125Y-157491984D01*
X202570725Y-157491984D01*
X202594033Y-157493129D01*
X202594033Y-157493129D01*
G37*
D13*
X202295425Y-157967584D03*
D12*
G36*
X213786642Y-178864687D02*
G01*
X213809726Y-178868111D01*
X213832364Y-178873782D01*
X213854336Y-178881643D01*
X213875432Y-178891621D01*
X213895449Y-178903619D01*
X213914193Y-178917520D01*
X213931484Y-178933192D01*
X213947156Y-178950483D01*
X213961057Y-178969227D01*
X213973055Y-178989244D01*
X213983033Y-179010340D01*
X213990894Y-179032312D01*
X213996565Y-179054950D01*
X213999989Y-179078034D01*
X214001134Y-179101342D01*
X214001134Y-179651942D01*
X213999989Y-179675250D01*
X213996565Y-179698334D01*
X213990894Y-179720972D01*
X213983033Y-179742944D01*
X213973055Y-179764040D01*
X213961057Y-179784057D01*
X213947156Y-179802801D01*
X213931484Y-179820092D01*
X213914193Y-179835764D01*
X213895449Y-179849665D01*
X213875432Y-179861663D01*
X213854336Y-179871641D01*
X213832364Y-179879502D01*
X213809726Y-179885173D01*
X213786642Y-179888597D01*
X213763334Y-179889742D01*
X213287734Y-179889742D01*
X213264426Y-179888597D01*
X213241342Y-179885173D01*
X213218704Y-179879502D01*
X213196732Y-179871641D01*
X213175636Y-179861663D01*
X213155619Y-179849665D01*
X213136875Y-179835764D01*
X213119584Y-179820092D01*
X213103912Y-179802801D01*
X213090011Y-179784057D01*
X213078013Y-179764040D01*
X213068035Y-179742944D01*
X213060174Y-179720972D01*
X213054503Y-179698334D01*
X213051079Y-179675250D01*
X213049934Y-179651942D01*
X213049934Y-179101342D01*
X213051079Y-179078034D01*
X213054503Y-179054950D01*
X213060174Y-179032312D01*
X213068035Y-179010340D01*
X213078013Y-178989244D01*
X213090011Y-178969227D01*
X213103912Y-178950483D01*
X213119584Y-178933192D01*
X213136875Y-178917520D01*
X213155619Y-178903619D01*
X213175636Y-178891621D01*
X213196732Y-178881643D01*
X213218704Y-178873782D01*
X213241342Y-178868111D01*
X213264426Y-178864687D01*
X213287734Y-178863542D01*
X213763334Y-178863542D01*
X213786642Y-178864687D01*
X213786642Y-178864687D01*
G37*
D13*
X213525534Y-179376642D03*
D12*
G36*
X212211642Y-178864687D02*
G01*
X212234726Y-178868111D01*
X212257364Y-178873782D01*
X212279336Y-178881643D01*
X212300432Y-178891621D01*
X212320449Y-178903619D01*
X212339193Y-178917520D01*
X212356484Y-178933192D01*
X212372156Y-178950483D01*
X212386057Y-178969227D01*
X212398055Y-178989244D01*
X212408033Y-179010340D01*
X212415894Y-179032312D01*
X212421565Y-179054950D01*
X212424989Y-179078034D01*
X212426134Y-179101342D01*
X212426134Y-179651942D01*
X212424989Y-179675250D01*
X212421565Y-179698334D01*
X212415894Y-179720972D01*
X212408033Y-179742944D01*
X212398055Y-179764040D01*
X212386057Y-179784057D01*
X212372156Y-179802801D01*
X212356484Y-179820092D01*
X212339193Y-179835764D01*
X212320449Y-179849665D01*
X212300432Y-179861663D01*
X212279336Y-179871641D01*
X212257364Y-179879502D01*
X212234726Y-179885173D01*
X212211642Y-179888597D01*
X212188334Y-179889742D01*
X211712734Y-179889742D01*
X211689426Y-179888597D01*
X211666342Y-179885173D01*
X211643704Y-179879502D01*
X211621732Y-179871641D01*
X211600636Y-179861663D01*
X211580619Y-179849665D01*
X211561875Y-179835764D01*
X211544584Y-179820092D01*
X211528912Y-179802801D01*
X211515011Y-179784057D01*
X211503013Y-179764040D01*
X211493035Y-179742944D01*
X211485174Y-179720972D01*
X211479503Y-179698334D01*
X211476079Y-179675250D01*
X211474934Y-179651942D01*
X211474934Y-179101342D01*
X211476079Y-179078034D01*
X211479503Y-179054950D01*
X211485174Y-179032312D01*
X211493035Y-179010340D01*
X211503013Y-178989244D01*
X211515011Y-178969227D01*
X211528912Y-178950483D01*
X211544584Y-178933192D01*
X211561875Y-178917520D01*
X211580619Y-178903619D01*
X211600636Y-178891621D01*
X211621732Y-178881643D01*
X211643704Y-178873782D01*
X211666342Y-178868111D01*
X211689426Y-178864687D01*
X211712734Y-178863542D01*
X212188334Y-178863542D01*
X212211642Y-178864687D01*
X212211642Y-178864687D01*
G37*
D13*
X211950534Y-179376642D03*
D12*
G36*
X219087288Y-178776485D02*
G01*
X219110372Y-178779909D01*
X219133010Y-178785580D01*
X219154982Y-178793441D01*
X219176078Y-178803419D01*
X219196095Y-178815417D01*
X219214839Y-178829318D01*
X219232130Y-178844990D01*
X219247802Y-178862281D01*
X219261703Y-178881025D01*
X219273701Y-178901042D01*
X219283679Y-178922138D01*
X219291540Y-178944110D01*
X219297211Y-178966748D01*
X219300635Y-178989832D01*
X219301780Y-179013140D01*
X219301780Y-179563740D01*
X219300635Y-179587048D01*
X219297211Y-179610132D01*
X219291540Y-179632770D01*
X219283679Y-179654742D01*
X219273701Y-179675838D01*
X219261703Y-179695855D01*
X219247802Y-179714599D01*
X219232130Y-179731890D01*
X219214839Y-179747562D01*
X219196095Y-179761463D01*
X219176078Y-179773461D01*
X219154982Y-179783439D01*
X219133010Y-179791300D01*
X219110372Y-179796971D01*
X219087288Y-179800395D01*
X219063980Y-179801540D01*
X218588380Y-179801540D01*
X218565072Y-179800395D01*
X218541988Y-179796971D01*
X218519350Y-179791300D01*
X218497378Y-179783439D01*
X218476282Y-179773461D01*
X218456265Y-179761463D01*
X218437521Y-179747562D01*
X218420230Y-179731890D01*
X218404558Y-179714599D01*
X218390657Y-179695855D01*
X218378659Y-179675838D01*
X218368681Y-179654742D01*
X218360820Y-179632770D01*
X218355149Y-179610132D01*
X218351725Y-179587048D01*
X218350580Y-179563740D01*
X218350580Y-179013140D01*
X218351725Y-178989832D01*
X218355149Y-178966748D01*
X218360820Y-178944110D01*
X218368681Y-178922138D01*
X218378659Y-178901042D01*
X218390657Y-178881025D01*
X218404558Y-178862281D01*
X218420230Y-178844990D01*
X218437521Y-178829318D01*
X218456265Y-178815417D01*
X218476282Y-178803419D01*
X218497378Y-178793441D01*
X218519350Y-178785580D01*
X218541988Y-178779909D01*
X218565072Y-178776485D01*
X218588380Y-178775340D01*
X219063980Y-178775340D01*
X219087288Y-178776485D01*
X219087288Y-178776485D01*
G37*
D13*
X218826180Y-179288440D03*
D12*
G36*
X217512288Y-178776485D02*
G01*
X217535372Y-178779909D01*
X217558010Y-178785580D01*
X217579982Y-178793441D01*
X217601078Y-178803419D01*
X217621095Y-178815417D01*
X217639839Y-178829318D01*
X217657130Y-178844990D01*
X217672802Y-178862281D01*
X217686703Y-178881025D01*
X217698701Y-178901042D01*
X217708679Y-178922138D01*
X217716540Y-178944110D01*
X217722211Y-178966748D01*
X217725635Y-178989832D01*
X217726780Y-179013140D01*
X217726780Y-179563740D01*
X217725635Y-179587048D01*
X217722211Y-179610132D01*
X217716540Y-179632770D01*
X217708679Y-179654742D01*
X217698701Y-179675838D01*
X217686703Y-179695855D01*
X217672802Y-179714599D01*
X217657130Y-179731890D01*
X217639839Y-179747562D01*
X217621095Y-179761463D01*
X217601078Y-179773461D01*
X217579982Y-179783439D01*
X217558010Y-179791300D01*
X217535372Y-179796971D01*
X217512288Y-179800395D01*
X217488980Y-179801540D01*
X217013380Y-179801540D01*
X216990072Y-179800395D01*
X216966988Y-179796971D01*
X216944350Y-179791300D01*
X216922378Y-179783439D01*
X216901282Y-179773461D01*
X216881265Y-179761463D01*
X216862521Y-179747562D01*
X216845230Y-179731890D01*
X216829558Y-179714599D01*
X216815657Y-179695855D01*
X216803659Y-179675838D01*
X216793681Y-179654742D01*
X216785820Y-179632770D01*
X216780149Y-179610132D01*
X216776725Y-179587048D01*
X216775580Y-179563740D01*
X216775580Y-179013140D01*
X216776725Y-178989832D01*
X216780149Y-178966748D01*
X216785820Y-178944110D01*
X216793681Y-178922138D01*
X216803659Y-178901042D01*
X216815657Y-178881025D01*
X216829558Y-178862281D01*
X216845230Y-178844990D01*
X216862521Y-178829318D01*
X216881265Y-178815417D01*
X216901282Y-178803419D01*
X216922378Y-178793441D01*
X216944350Y-178785580D01*
X216966988Y-178779909D01*
X216990072Y-178776485D01*
X217013380Y-178775340D01*
X217488980Y-178775340D01*
X217512288Y-178776485D01*
X217512288Y-178776485D01*
G37*
D13*
X217251180Y-179288440D03*
D12*
G36*
X230562308Y-174094765D02*
G01*
X230585392Y-174098189D01*
X230608030Y-174103860D01*
X230630002Y-174111721D01*
X230651098Y-174121699D01*
X230671115Y-174133697D01*
X230689859Y-174147598D01*
X230707150Y-174163270D01*
X230722822Y-174180561D01*
X230736723Y-174199305D01*
X230748721Y-174219322D01*
X230758699Y-174240418D01*
X230766560Y-174262390D01*
X230772231Y-174285028D01*
X230775655Y-174308112D01*
X230776800Y-174331420D01*
X230776800Y-174807020D01*
X230775655Y-174830328D01*
X230772231Y-174853412D01*
X230766560Y-174876050D01*
X230758699Y-174898022D01*
X230748721Y-174919118D01*
X230736723Y-174939135D01*
X230722822Y-174957879D01*
X230707150Y-174975170D01*
X230689859Y-174990842D01*
X230671115Y-175004743D01*
X230651098Y-175016741D01*
X230630002Y-175026719D01*
X230608030Y-175034580D01*
X230585392Y-175040251D01*
X230562308Y-175043675D01*
X230539000Y-175044820D01*
X229988400Y-175044820D01*
X229965092Y-175043675D01*
X229942008Y-175040251D01*
X229919370Y-175034580D01*
X229897398Y-175026719D01*
X229876302Y-175016741D01*
X229856285Y-175004743D01*
X229837541Y-174990842D01*
X229820250Y-174975170D01*
X229804578Y-174957879D01*
X229790677Y-174939135D01*
X229778679Y-174919118D01*
X229768701Y-174898022D01*
X229760840Y-174876050D01*
X229755169Y-174853412D01*
X229751745Y-174830328D01*
X229750600Y-174807020D01*
X229750600Y-174331420D01*
X229751745Y-174308112D01*
X229755169Y-174285028D01*
X229760840Y-174262390D01*
X229768701Y-174240418D01*
X229778679Y-174219322D01*
X229790677Y-174199305D01*
X229804578Y-174180561D01*
X229820250Y-174163270D01*
X229837541Y-174147598D01*
X229856285Y-174133697D01*
X229876302Y-174121699D01*
X229897398Y-174111721D01*
X229919370Y-174103860D01*
X229942008Y-174098189D01*
X229965092Y-174094765D01*
X229988400Y-174093620D01*
X230539000Y-174093620D01*
X230562308Y-174094765D01*
X230562308Y-174094765D01*
G37*
D13*
X230263700Y-174569220D03*
D12*
G36*
X230562308Y-172519765D02*
G01*
X230585392Y-172523189D01*
X230608030Y-172528860D01*
X230630002Y-172536721D01*
X230651098Y-172546699D01*
X230671115Y-172558697D01*
X230689859Y-172572598D01*
X230707150Y-172588270D01*
X230722822Y-172605561D01*
X230736723Y-172624305D01*
X230748721Y-172644322D01*
X230758699Y-172665418D01*
X230766560Y-172687390D01*
X230772231Y-172710028D01*
X230775655Y-172733112D01*
X230776800Y-172756420D01*
X230776800Y-173232020D01*
X230775655Y-173255328D01*
X230772231Y-173278412D01*
X230766560Y-173301050D01*
X230758699Y-173323022D01*
X230748721Y-173344118D01*
X230736723Y-173364135D01*
X230722822Y-173382879D01*
X230707150Y-173400170D01*
X230689859Y-173415842D01*
X230671115Y-173429743D01*
X230651098Y-173441741D01*
X230630002Y-173451719D01*
X230608030Y-173459580D01*
X230585392Y-173465251D01*
X230562308Y-173468675D01*
X230539000Y-173469820D01*
X229988400Y-173469820D01*
X229965092Y-173468675D01*
X229942008Y-173465251D01*
X229919370Y-173459580D01*
X229897398Y-173451719D01*
X229876302Y-173441741D01*
X229856285Y-173429743D01*
X229837541Y-173415842D01*
X229820250Y-173400170D01*
X229804578Y-173382879D01*
X229790677Y-173364135D01*
X229778679Y-173344118D01*
X229768701Y-173323022D01*
X229760840Y-173301050D01*
X229755169Y-173278412D01*
X229751745Y-173255328D01*
X229750600Y-173232020D01*
X229750600Y-172756420D01*
X229751745Y-172733112D01*
X229755169Y-172710028D01*
X229760840Y-172687390D01*
X229768701Y-172665418D01*
X229778679Y-172644322D01*
X229790677Y-172624305D01*
X229804578Y-172605561D01*
X229820250Y-172588270D01*
X229837541Y-172572598D01*
X229856285Y-172558697D01*
X229876302Y-172546699D01*
X229897398Y-172536721D01*
X229919370Y-172528860D01*
X229942008Y-172523189D01*
X229965092Y-172519765D01*
X229988400Y-172518620D01*
X230539000Y-172518620D01*
X230562308Y-172519765D01*
X230562308Y-172519765D01*
G37*
D13*
X230263700Y-172994220D03*
D12*
G36*
X208477437Y-164825076D02*
G01*
X208500521Y-164828500D01*
X208523159Y-164834171D01*
X208545131Y-164842032D01*
X208566227Y-164852010D01*
X208586244Y-164864008D01*
X208604988Y-164877909D01*
X208622279Y-164893581D01*
X208637951Y-164910872D01*
X208651852Y-164929616D01*
X208663850Y-164949633D01*
X208673828Y-164970729D01*
X208681689Y-164992701D01*
X208687360Y-165015339D01*
X208690784Y-165038423D01*
X208691929Y-165061731D01*
X208691929Y-165537331D01*
X208690784Y-165560639D01*
X208687360Y-165583723D01*
X208681689Y-165606361D01*
X208673828Y-165628333D01*
X208663850Y-165649429D01*
X208651852Y-165669446D01*
X208637951Y-165688190D01*
X208622279Y-165705481D01*
X208604988Y-165721153D01*
X208586244Y-165735054D01*
X208566227Y-165747052D01*
X208545131Y-165757030D01*
X208523159Y-165764891D01*
X208500521Y-165770562D01*
X208477437Y-165773986D01*
X208454129Y-165775131D01*
X207903529Y-165775131D01*
X207880221Y-165773986D01*
X207857137Y-165770562D01*
X207834499Y-165764891D01*
X207812527Y-165757030D01*
X207791431Y-165747052D01*
X207771414Y-165735054D01*
X207752670Y-165721153D01*
X207735379Y-165705481D01*
X207719707Y-165688190D01*
X207705806Y-165669446D01*
X207693808Y-165649429D01*
X207683830Y-165628333D01*
X207675969Y-165606361D01*
X207670298Y-165583723D01*
X207666874Y-165560639D01*
X207665729Y-165537331D01*
X207665729Y-165061731D01*
X207666874Y-165038423D01*
X207670298Y-165015339D01*
X207675969Y-164992701D01*
X207683830Y-164970729D01*
X207693808Y-164949633D01*
X207705806Y-164929616D01*
X207719707Y-164910872D01*
X207735379Y-164893581D01*
X207752670Y-164877909D01*
X207771414Y-164864008D01*
X207791431Y-164852010D01*
X207812527Y-164842032D01*
X207834499Y-164834171D01*
X207857137Y-164828500D01*
X207880221Y-164825076D01*
X207903529Y-164823931D01*
X208454129Y-164823931D01*
X208477437Y-164825076D01*
X208477437Y-164825076D01*
G37*
D13*
X208178829Y-165299531D03*
D12*
G36*
X208477437Y-163250076D02*
G01*
X208500521Y-163253500D01*
X208523159Y-163259171D01*
X208545131Y-163267032D01*
X208566227Y-163277010D01*
X208586244Y-163289008D01*
X208604988Y-163302909D01*
X208622279Y-163318581D01*
X208637951Y-163335872D01*
X208651852Y-163354616D01*
X208663850Y-163374633D01*
X208673828Y-163395729D01*
X208681689Y-163417701D01*
X208687360Y-163440339D01*
X208690784Y-163463423D01*
X208691929Y-163486731D01*
X208691929Y-163962331D01*
X208690784Y-163985639D01*
X208687360Y-164008723D01*
X208681689Y-164031361D01*
X208673828Y-164053333D01*
X208663850Y-164074429D01*
X208651852Y-164094446D01*
X208637951Y-164113190D01*
X208622279Y-164130481D01*
X208604988Y-164146153D01*
X208586244Y-164160054D01*
X208566227Y-164172052D01*
X208545131Y-164182030D01*
X208523159Y-164189891D01*
X208500521Y-164195562D01*
X208477437Y-164198986D01*
X208454129Y-164200131D01*
X207903529Y-164200131D01*
X207880221Y-164198986D01*
X207857137Y-164195562D01*
X207834499Y-164189891D01*
X207812527Y-164182030D01*
X207791431Y-164172052D01*
X207771414Y-164160054D01*
X207752670Y-164146153D01*
X207735379Y-164130481D01*
X207719707Y-164113190D01*
X207705806Y-164094446D01*
X207693808Y-164074429D01*
X207683830Y-164053333D01*
X207675969Y-164031361D01*
X207670298Y-164008723D01*
X207666874Y-163985639D01*
X207665729Y-163962331D01*
X207665729Y-163486731D01*
X207666874Y-163463423D01*
X207670298Y-163440339D01*
X207675969Y-163417701D01*
X207683830Y-163395729D01*
X207693808Y-163374633D01*
X207705806Y-163354616D01*
X207719707Y-163335872D01*
X207735379Y-163318581D01*
X207752670Y-163302909D01*
X207771414Y-163289008D01*
X207791431Y-163277010D01*
X207812527Y-163267032D01*
X207834499Y-163259171D01*
X207857137Y-163253500D01*
X207880221Y-163250076D01*
X207903529Y-163248931D01*
X208454129Y-163248931D01*
X208477437Y-163250076D01*
X208477437Y-163250076D01*
G37*
D13*
X208178829Y-163724531D03*
D17*
X210345000Y-156079000D03*
X210345000Y-156879000D03*
X210345000Y-157679000D03*
X210345000Y-158479000D03*
X210345000Y-159279000D03*
X210345000Y-160079000D03*
X210345000Y-160879000D03*
X210345000Y-161679000D03*
X210345000Y-162479000D03*
X210345000Y-163279000D03*
X210345000Y-164079000D03*
X210345000Y-164879000D03*
X210345000Y-165679000D03*
X210345000Y-166479000D03*
X210345000Y-167279000D03*
X210345000Y-168079000D03*
X210345000Y-168879000D03*
X210345000Y-169679000D03*
X210345000Y-170479000D03*
X210345000Y-171279000D03*
X210345000Y-172079000D03*
X210345000Y-172879000D03*
X210345000Y-173679000D03*
X210345000Y-174479000D03*
X210345000Y-175279000D03*
X210345000Y-176079000D03*
X210345000Y-176879000D03*
X221585000Y-176879000D03*
X221585000Y-176079000D03*
X221585000Y-175279000D03*
X221585000Y-174479000D03*
X221585000Y-173679000D03*
X221585000Y-172879000D03*
X221585000Y-172079000D03*
X221585000Y-171279000D03*
X221585000Y-170479000D03*
X221585000Y-169679000D03*
X221585000Y-168879000D03*
X221585000Y-168079000D03*
X221585000Y-167279000D03*
X221585000Y-166479000D03*
X221585000Y-165679000D03*
X221585000Y-164879000D03*
X221585000Y-164079000D03*
X221585000Y-163279000D03*
X221585000Y-162479000D03*
X221585000Y-161679000D03*
X221585000Y-160879000D03*
X221585000Y-160079000D03*
X221585000Y-159279000D03*
X221585000Y-158479000D03*
X221585000Y-157679000D03*
X221585000Y-156879000D03*
X221585000Y-156079000D03*
D16*
X203497940Y-174920160D03*
X203997940Y-174920160D03*
X204497940Y-174920160D03*
X204997940Y-174920160D03*
X205497940Y-174920160D03*
D18*
X269253140Y-179963900D03*
X273753140Y-179963900D03*
X273753140Y-172003900D03*
X269253140Y-172003900D03*
D19*
X245360000Y-148430000D03*
X245360000Y-143930000D03*
X237400000Y-143930000D03*
X237400000Y-148430000D03*
X233640000Y-148370000D03*
X233640000Y-143870000D03*
X225680000Y-143870000D03*
X225680000Y-148370000D03*
D20*
X261567500Y-147240785D03*
X262942500Y-144859215D03*
X168962500Y-147240785D03*
X167587500Y-144859215D03*
D21*
X156721000Y-171382000D03*
D22*
X156721000Y-172632000D03*
D23*
X164695060Y-178917600D03*
X156495060Y-178917600D03*
D24*
X162595060Y-178917600D03*
X160595060Y-178917600D03*
D25*
X158595060Y-178917600D03*
M02*
