G04 #@! TF.GenerationSoftware,KiCad,Pcbnew,5.1.3-ffb9f22~84~ubuntu18.10.1*
G04 #@! TF.CreationDate,2019-11-11T13:28:35-06:00*
G04 #@! TF.ProjectId,BurnedHead,4275726e-6564-4486-9561-642e6b696361,rev?*
G04 #@! TF.SameCoordinates,Original*
G04 #@! TF.FileFunction,Legend,Top*
G04 #@! TF.FilePolarity,Positive*
%FSLAX46Y46*%
G04 Gerber Fmt 4.6, Leading zero omitted, Abs format (unit mm)*
G04 Created by KiCad (PCBNEW 5.1.3-ffb9f22~84~ubuntu18.10.1) date 2019-11-11 13:28:35*
%MOMM*%
%LPD*%
G04 APERTURE LIST*
%ADD10C,0.127000*%
%ADD11C,0.150000*%
%ADD12C,0.120000*%
%ADD13C,0.200000*%
G04 APERTURE END LIST*
D10*
X156415014Y-170407148D02*
X156995585Y-170407148D01*
X156435334Y-173767568D02*
X157015905Y-173767568D01*
X156725620Y-174057854D02*
X156725620Y-173477282D01*
D11*
X241754660Y-176664620D02*
X237704660Y-176664620D01*
X241754660Y-176664620D02*
X245804660Y-176664620D01*
X245804660Y-176664620D02*
X245804660Y-181064620D01*
X245804660Y-181064620D02*
X237704660Y-181064620D01*
X237704660Y-181064620D02*
X237704660Y-176664620D01*
D12*
X224318291Y-157781014D02*
X224318291Y-157455456D01*
X223298291Y-157781014D02*
X223298291Y-157455456D01*
X223000521Y-165239391D02*
X223000521Y-165564949D01*
X224020521Y-165239391D02*
X224020521Y-165564949D01*
X202805425Y-157342863D02*
X202805425Y-157017305D01*
X201785425Y-157342863D02*
X201785425Y-157017305D01*
X212575255Y-179886642D02*
X212900813Y-179886642D01*
X212575255Y-178866642D02*
X212900813Y-178866642D01*
X217875901Y-179798440D02*
X218201459Y-179798440D01*
X217875901Y-178778440D02*
X218201459Y-178778440D01*
X229753700Y-173618941D02*
X229753700Y-173944499D01*
X230773700Y-173618941D02*
X230773700Y-173944499D01*
X201962834Y-143157951D02*
X202288392Y-143157951D01*
X201962834Y-142137951D02*
X202288392Y-142137951D01*
X207668829Y-164349252D02*
X207668829Y-164674810D01*
X208688829Y-164349252D02*
X208688829Y-164674810D01*
D13*
X209265000Y-155529000D02*
G75*
G03X209265000Y-155529000I-100000J0D01*
G01*
D10*
X221085000Y-155329000D02*
X221085000Y-155579000D01*
X210845000Y-155329000D02*
X210845000Y-155579000D01*
X221085000Y-177629000D02*
X221085000Y-177379000D01*
X210845000Y-177629000D02*
X210845000Y-177379000D01*
X210845000Y-155329000D02*
X221085000Y-155329000D01*
X221085000Y-177629000D02*
X210845000Y-177629000D01*
D11*
X204497940Y-175270160D02*
X200447940Y-175270160D01*
X204497940Y-175270160D02*
X208547940Y-175270160D01*
X208547940Y-175270160D02*
X208547940Y-179670160D01*
X208547940Y-179670160D02*
X200447940Y-179670160D01*
X200447940Y-179670160D02*
X200447940Y-175270160D01*
D12*
X268273140Y-172753900D02*
X268273140Y-179213900D01*
X272803140Y-172753900D02*
X270203140Y-172753900D01*
X274733140Y-172753900D02*
X274733140Y-179213900D01*
X272803140Y-179213900D02*
X270203140Y-179213900D01*
X274703140Y-172753900D02*
X274733140Y-172753900D01*
X268273140Y-172753900D02*
X268303140Y-172753900D01*
X268273140Y-179213900D02*
X268303140Y-179213900D01*
X274733140Y-179213900D02*
X274703140Y-179213900D01*
X238150000Y-149410000D02*
X244610000Y-149410000D01*
X238150000Y-144880000D02*
X238150000Y-147480000D01*
X238150000Y-142950000D02*
X244610000Y-142950000D01*
X244610000Y-144880000D02*
X244610000Y-147480000D01*
X238150000Y-142980000D02*
X238150000Y-142950000D01*
X238150000Y-149410000D02*
X238150000Y-149380000D01*
X244610000Y-149410000D02*
X244610000Y-149380000D01*
X244610000Y-142950000D02*
X244610000Y-142980000D01*
X226430000Y-149350000D02*
X232890000Y-149350000D01*
X226430000Y-144820000D02*
X226430000Y-147420000D01*
X226430000Y-142890000D02*
X232890000Y-142890000D01*
X232890000Y-144820000D02*
X232890000Y-147420000D01*
X226430000Y-142920000D02*
X226430000Y-142890000D01*
X226430000Y-149350000D02*
X226430000Y-149320000D01*
X232890000Y-149350000D02*
X232890000Y-149320000D01*
X232890000Y-142890000D02*
X232890000Y-142920000D01*
D11*
X256865000Y-161925000D02*
G75*
G03X256865000Y-161925000I-3500000J0D01*
G01*
X271765000Y-167325000D02*
X271765000Y-161925000D01*
X271765000Y-161925000D02*
X271765000Y-156525000D01*
X247965000Y-180325000D02*
X253365000Y-180325000D01*
X253365000Y-180325000D02*
X258765000Y-180325000D01*
X234965000Y-167325000D02*
X234965000Y-161925000D01*
X234965000Y-161925000D02*
X234965000Y-156525000D01*
X247965000Y-143525000D02*
X253365000Y-143525000D01*
X253365000Y-143525000D02*
X258765000Y-143525000D01*
X180165000Y-161925000D02*
G75*
G03X180165000Y-161925000I-3000000J0D01*
G01*
X193665000Y-167325000D02*
X193665000Y-161925000D01*
X193665000Y-161925000D02*
X193665000Y-156525000D01*
X171765000Y-178425000D02*
X177165000Y-178425000D01*
X177165000Y-178425000D02*
X182565000Y-178425000D01*
X160665000Y-167325000D02*
X160665000Y-161925000D01*
X160665000Y-161925000D02*
X160665000Y-156525000D01*
X171765000Y-145425000D02*
X177165000Y-145425000D01*
X177165000Y-145425000D02*
X182565000Y-145425000D01*
X156295060Y-176617600D02*
X164895060Y-176617600D01*
X156295060Y-181217600D02*
X158495060Y-181217600D01*
X162595060Y-181217600D02*
X164895060Y-181217600D01*
D10*
X236420660Y-180057334D02*
X236420660Y-180601620D01*
X236384374Y-180710477D01*
X236311802Y-180783048D01*
X236202945Y-180819334D01*
X236130374Y-180819334D01*
X237146374Y-180057334D02*
X236783517Y-180057334D01*
X236747231Y-180420191D01*
X236783517Y-180383905D01*
X236856088Y-180347620D01*
X237037517Y-180347620D01*
X237110088Y-180383905D01*
X237146374Y-180420191D01*
X237182660Y-180492762D01*
X237182660Y-180674191D01*
X237146374Y-180746762D01*
X237110088Y-180783048D01*
X237037517Y-180819334D01*
X236856088Y-180819334D01*
X236783517Y-180783048D01*
X236747231Y-180746762D01*
X223289222Y-155453442D02*
X223252937Y-155489728D01*
X223144080Y-155526014D01*
X223071508Y-155526014D01*
X222962651Y-155489728D01*
X222890080Y-155417157D01*
X222853794Y-155344585D01*
X222817508Y-155199442D01*
X222817508Y-155090585D01*
X222853794Y-154945442D01*
X222890080Y-154872871D01*
X222962651Y-154800300D01*
X223071508Y-154764014D01*
X223144080Y-154764014D01*
X223252937Y-154800300D01*
X223289222Y-154836585D01*
X223579508Y-154836585D02*
X223615794Y-154800300D01*
X223688365Y-154764014D01*
X223869794Y-154764014D01*
X223942365Y-154800300D01*
X223978651Y-154836585D01*
X224014937Y-154909157D01*
X224014937Y-154981728D01*
X223978651Y-155090585D01*
X223543222Y-155526014D01*
X224014937Y-155526014D01*
X224268937Y-154764014D02*
X224776937Y-154764014D01*
X224450365Y-155526014D01*
X225237402Y-165861637D02*
X225273688Y-165897922D01*
X225309974Y-166006780D01*
X225309974Y-166079351D01*
X225273688Y-166188208D01*
X225201117Y-166260780D01*
X225128545Y-166297065D01*
X224983402Y-166333351D01*
X224874545Y-166333351D01*
X224729402Y-166297065D01*
X224656831Y-166260780D01*
X224584260Y-166188208D01*
X224547974Y-166079351D01*
X224547974Y-166006780D01*
X224584260Y-165897922D01*
X224620545Y-165861637D01*
X224620545Y-165571351D02*
X224584260Y-165535065D01*
X224547974Y-165462494D01*
X224547974Y-165281065D01*
X224584260Y-165208494D01*
X224620545Y-165172208D01*
X224693117Y-165135922D01*
X224765688Y-165135922D01*
X224874545Y-165172208D01*
X225309974Y-165607637D01*
X225309974Y-165135922D01*
X224801974Y-164482780D02*
X225309974Y-164482780D01*
X224511688Y-164664208D02*
X225055974Y-164845637D01*
X225055974Y-164373922D01*
X201810982Y-155217222D02*
X201774697Y-155253508D01*
X201665840Y-155289794D01*
X201593268Y-155289794D01*
X201484411Y-155253508D01*
X201411840Y-155180937D01*
X201375554Y-155108365D01*
X201339268Y-154963222D01*
X201339268Y-154854365D01*
X201375554Y-154709222D01*
X201411840Y-154636651D01*
X201484411Y-154564080D01*
X201593268Y-154527794D01*
X201665840Y-154527794D01*
X201774697Y-154564080D01*
X201810982Y-154600365D01*
X202536697Y-155289794D02*
X202101268Y-155289794D01*
X202318982Y-155289794D02*
X202318982Y-154527794D01*
X202246411Y-154636651D01*
X202173840Y-154709222D01*
X202101268Y-154745508D01*
X202826982Y-154600365D02*
X202863268Y-154564080D01*
X202935840Y-154527794D01*
X203117268Y-154527794D01*
X203189840Y-154564080D01*
X203226125Y-154600365D01*
X203262411Y-154672937D01*
X203262411Y-154745508D01*
X203226125Y-154854365D01*
X202790697Y-155289794D01*
X203262411Y-155289794D01*
X212200142Y-181162142D02*
X212163857Y-181198428D01*
X212055000Y-181234714D01*
X211982428Y-181234714D01*
X211873571Y-181198428D01*
X211801000Y-181125857D01*
X211764714Y-181053285D01*
X211728428Y-180908142D01*
X211728428Y-180799285D01*
X211764714Y-180654142D01*
X211801000Y-180581571D01*
X211873571Y-180509000D01*
X211982428Y-180472714D01*
X212055000Y-180472714D01*
X212163857Y-180509000D01*
X212200142Y-180545285D01*
X212490428Y-180545285D02*
X212526714Y-180509000D01*
X212599285Y-180472714D01*
X212780714Y-180472714D01*
X212853285Y-180509000D01*
X212889571Y-180545285D01*
X212925857Y-180617857D01*
X212925857Y-180690428D01*
X212889571Y-180799285D01*
X212454142Y-181234714D01*
X212925857Y-181234714D01*
X213579000Y-180472714D02*
X213433857Y-180472714D01*
X213361285Y-180509000D01*
X213325000Y-180545285D01*
X213252428Y-180654142D01*
X213216142Y-180799285D01*
X213216142Y-181089571D01*
X213252428Y-181162142D01*
X213288714Y-181198428D01*
X213361285Y-181234714D01*
X213506428Y-181234714D01*
X213579000Y-181198428D01*
X213615285Y-181162142D01*
X213651571Y-181089571D01*
X213651571Y-180908142D01*
X213615285Y-180835571D01*
X213579000Y-180799285D01*
X213506428Y-180763000D01*
X213361285Y-180763000D01*
X213288714Y-180799285D01*
X213252428Y-180835571D01*
X213216142Y-180908142D01*
X217698999Y-180946036D02*
X217662714Y-180982322D01*
X217553857Y-181018608D01*
X217481285Y-181018608D01*
X217372428Y-180982322D01*
X217299857Y-180909751D01*
X217263571Y-180837179D01*
X217227285Y-180692036D01*
X217227285Y-180583179D01*
X217263571Y-180438036D01*
X217299857Y-180365465D01*
X217372428Y-180292894D01*
X217481285Y-180256608D01*
X217553857Y-180256608D01*
X217662714Y-180292894D01*
X217698999Y-180329179D01*
X218424714Y-181018608D02*
X217989285Y-181018608D01*
X218206999Y-181018608D02*
X218206999Y-180256608D01*
X218134428Y-180365465D01*
X218061857Y-180438036D01*
X217989285Y-180474322D01*
X218678714Y-180256608D02*
X219186714Y-180256608D01*
X218860142Y-181018608D01*
X231704242Y-174012497D02*
X231740528Y-174048782D01*
X231776814Y-174157640D01*
X231776814Y-174230211D01*
X231740528Y-174339068D01*
X231667957Y-174411640D01*
X231595385Y-174447925D01*
X231450242Y-174484211D01*
X231341385Y-174484211D01*
X231196242Y-174447925D01*
X231123671Y-174411640D01*
X231051100Y-174339068D01*
X231014814Y-174230211D01*
X231014814Y-174157640D01*
X231051100Y-174048782D01*
X231087385Y-174012497D01*
X231776814Y-173286782D02*
X231776814Y-173722211D01*
X231776814Y-173504497D02*
X231014814Y-173504497D01*
X231123671Y-173577068D01*
X231196242Y-173649640D01*
X231232528Y-173722211D01*
X231014814Y-172815068D02*
X231014814Y-172742497D01*
X231051100Y-172669925D01*
X231087385Y-172633640D01*
X231159957Y-172597354D01*
X231305100Y-172561068D01*
X231486528Y-172561068D01*
X231631671Y-172597354D01*
X231704242Y-172633640D01*
X231740528Y-172669925D01*
X231776814Y-172742497D01*
X231776814Y-172815068D01*
X231740528Y-172887640D01*
X231704242Y-172923925D01*
X231631671Y-172960211D01*
X231486528Y-172996497D01*
X231305100Y-172996497D01*
X231159957Y-172960211D01*
X231087385Y-172923925D01*
X231051100Y-172887640D01*
X231014814Y-172815068D01*
X201620142Y-141724714D02*
X201366142Y-141361857D01*
X201184714Y-141724714D02*
X201184714Y-140962714D01*
X201475000Y-140962714D01*
X201547571Y-140999000D01*
X201583857Y-141035285D01*
X201620142Y-141107857D01*
X201620142Y-141216714D01*
X201583857Y-141289285D01*
X201547571Y-141325571D01*
X201475000Y-141361857D01*
X201184714Y-141361857D01*
X202345857Y-141724714D02*
X201910428Y-141724714D01*
X202128142Y-141724714D02*
X202128142Y-140962714D01*
X202055571Y-141071571D01*
X201983000Y-141144142D01*
X201910428Y-141180428D01*
X202817571Y-140962714D02*
X202890142Y-140962714D01*
X202962714Y-140999000D01*
X202999000Y-141035285D01*
X203035285Y-141107857D01*
X203071571Y-141253000D01*
X203071571Y-141434428D01*
X203035285Y-141579571D01*
X202999000Y-141652142D01*
X202962714Y-141688428D01*
X202890142Y-141724714D01*
X202817571Y-141724714D01*
X202745000Y-141688428D01*
X202708714Y-141652142D01*
X202672428Y-141579571D01*
X202636142Y-141434428D01*
X202636142Y-141253000D01*
X202672428Y-141107857D01*
X202708714Y-141035285D01*
X202745000Y-140999000D01*
X202817571Y-140962714D01*
X206982422Y-166410277D02*
X207018708Y-166446562D01*
X207054994Y-166555420D01*
X207054994Y-166627991D01*
X207018708Y-166736848D01*
X206946137Y-166809420D01*
X206873565Y-166845705D01*
X206728422Y-166881991D01*
X206619565Y-166881991D01*
X206474422Y-166845705D01*
X206401851Y-166809420D01*
X206329280Y-166736848D01*
X206292994Y-166627991D01*
X206292994Y-166555420D01*
X206329280Y-166446562D01*
X206365565Y-166410277D01*
X206365565Y-166119991D02*
X206329280Y-166083705D01*
X206292994Y-166011134D01*
X206292994Y-165829705D01*
X206329280Y-165757134D01*
X206365565Y-165720848D01*
X206438137Y-165684562D01*
X206510708Y-165684562D01*
X206619565Y-165720848D01*
X207054994Y-166156277D01*
X207054994Y-165684562D01*
X206365565Y-165394277D02*
X206329280Y-165357991D01*
X206292994Y-165285420D01*
X206292994Y-165103991D01*
X206329280Y-165031420D01*
X206365565Y-164995134D01*
X206438137Y-164958848D01*
X206510708Y-164958848D01*
X206619565Y-164995134D01*
X207054994Y-165430562D01*
X207054994Y-164958848D01*
X208535088Y-154319514D02*
X208535088Y-154936371D01*
X208571374Y-155008942D01*
X208607660Y-155045228D01*
X208680231Y-155081514D01*
X208825374Y-155081514D01*
X208897945Y-155045228D01*
X208934231Y-155008942D01*
X208970517Y-154936371D01*
X208970517Y-154319514D01*
X209260802Y-154319514D02*
X209768802Y-154319514D01*
X209442231Y-155081514D01*
X199296020Y-178848294D02*
X199296020Y-179392580D01*
X199259734Y-179501437D01*
X199187162Y-179574008D01*
X199078305Y-179610294D01*
X199005734Y-179610294D01*
X199985448Y-179102294D02*
X199985448Y-179610294D01*
X199804020Y-178812008D02*
X199622591Y-179356294D01*
X200094305Y-179356294D01*
D11*
X267277481Y-177322313D02*
X267325100Y-177179456D01*
X267325100Y-176941360D01*
X267277481Y-176846122D01*
X267229862Y-176798503D01*
X267134624Y-176750884D01*
X267039386Y-176750884D01*
X266944148Y-176798503D01*
X266896529Y-176846122D01*
X266848910Y-176941360D01*
X266801291Y-177131837D01*
X266753672Y-177227075D01*
X266706053Y-177274694D01*
X266610815Y-177322313D01*
X266515577Y-177322313D01*
X266420339Y-177274694D01*
X266372720Y-177227075D01*
X266325100Y-177131837D01*
X266325100Y-176893741D01*
X266372720Y-176750884D01*
X266325100Y-176417551D02*
X267325100Y-176179456D01*
X266610815Y-175988980D01*
X267325100Y-175798503D01*
X266325100Y-175560408D01*
X266420339Y-175227075D02*
X266372720Y-175179456D01*
X266325100Y-175084218D01*
X266325100Y-174846122D01*
X266372720Y-174750884D01*
X266420339Y-174703265D01*
X266515577Y-174655646D01*
X266610815Y-174655646D01*
X266753672Y-174703265D01*
X267325100Y-175274694D01*
X267325100Y-174655646D01*
X240046666Y-150904761D02*
X240189523Y-150952380D01*
X240427619Y-150952380D01*
X240522857Y-150904761D01*
X240570476Y-150857142D01*
X240618095Y-150761904D01*
X240618095Y-150666666D01*
X240570476Y-150571428D01*
X240522857Y-150523809D01*
X240427619Y-150476190D01*
X240237142Y-150428571D01*
X240141904Y-150380952D01*
X240094285Y-150333333D01*
X240046666Y-150238095D01*
X240046666Y-150142857D01*
X240094285Y-150047619D01*
X240141904Y-150000000D01*
X240237142Y-149952380D01*
X240475238Y-149952380D01*
X240618095Y-150000000D01*
X240951428Y-149952380D02*
X241189523Y-150952380D01*
X241380000Y-150238095D01*
X241570476Y-150952380D01*
X241808571Y-149952380D01*
X242618095Y-149952380D02*
X242427619Y-149952380D01*
X242332380Y-150000000D01*
X242284761Y-150047619D01*
X242189523Y-150190476D01*
X242141904Y-150380952D01*
X242141904Y-150761904D01*
X242189523Y-150857142D01*
X242237142Y-150904761D01*
X242332380Y-150952380D01*
X242522857Y-150952380D01*
X242618095Y-150904761D01*
X242665714Y-150857142D01*
X242713333Y-150761904D01*
X242713333Y-150523809D01*
X242665714Y-150428571D01*
X242618095Y-150380952D01*
X242522857Y-150333333D01*
X242332380Y-150333333D01*
X242237142Y-150380952D01*
X242189523Y-150428571D01*
X242141904Y-150523809D01*
X228136666Y-150714761D02*
X228279523Y-150762380D01*
X228517619Y-150762380D01*
X228612857Y-150714761D01*
X228660476Y-150667142D01*
X228708095Y-150571904D01*
X228708095Y-150476666D01*
X228660476Y-150381428D01*
X228612857Y-150333809D01*
X228517619Y-150286190D01*
X228327142Y-150238571D01*
X228231904Y-150190952D01*
X228184285Y-150143333D01*
X228136666Y-150048095D01*
X228136666Y-149952857D01*
X228184285Y-149857619D01*
X228231904Y-149810000D01*
X228327142Y-149762380D01*
X228565238Y-149762380D01*
X228708095Y-149810000D01*
X229041428Y-149762380D02*
X229279523Y-150762380D01*
X229470000Y-150048095D01*
X229660476Y-150762380D01*
X229898571Y-149762380D01*
X230755714Y-149762380D02*
X230279523Y-149762380D01*
X230231904Y-150238571D01*
X230279523Y-150190952D01*
X230374761Y-150143333D01*
X230612857Y-150143333D01*
X230708095Y-150190952D01*
X230755714Y-150238571D01*
X230803333Y-150333809D01*
X230803333Y-150571904D01*
X230755714Y-150667142D01*
X230708095Y-150714761D01*
X230612857Y-150762380D01*
X230374761Y-150762380D01*
X230279523Y-150714761D01*
X230231904Y-150667142D01*
D10*
X252346460Y-162253748D02*
X252455317Y-162290034D01*
X252636745Y-162290034D01*
X252709317Y-162253748D01*
X252745602Y-162217462D01*
X252781888Y-162144891D01*
X252781888Y-162072320D01*
X252745602Y-161999748D01*
X252709317Y-161963462D01*
X252636745Y-161927177D01*
X252491602Y-161890891D01*
X252419031Y-161854605D01*
X252382745Y-161818320D01*
X252346460Y-161745748D01*
X252346460Y-161673177D01*
X252382745Y-161600605D01*
X252419031Y-161564320D01*
X252491602Y-161528034D01*
X252673031Y-161528034D01*
X252781888Y-161564320D01*
X253035888Y-161528034D02*
X253217317Y-162290034D01*
X253362460Y-161745748D01*
X253507602Y-162290034D01*
X253689031Y-161528034D01*
X253906745Y-161528034D02*
X254414745Y-161528034D01*
X254088174Y-162290034D01*
X176143920Y-162304548D02*
X176252777Y-162340834D01*
X176434205Y-162340834D01*
X176506777Y-162304548D01*
X176543062Y-162268262D01*
X176579348Y-162195691D01*
X176579348Y-162123120D01*
X176543062Y-162050548D01*
X176506777Y-162014262D01*
X176434205Y-161977977D01*
X176289062Y-161941691D01*
X176216491Y-161905405D01*
X176180205Y-161869120D01*
X176143920Y-161796548D01*
X176143920Y-161723977D01*
X176180205Y-161651405D01*
X176216491Y-161615120D01*
X176289062Y-161578834D01*
X176470491Y-161578834D01*
X176579348Y-161615120D01*
X176833348Y-161578834D02*
X177014777Y-162340834D01*
X177159920Y-161796548D01*
X177305062Y-162340834D01*
X177486491Y-161578834D01*
X178103348Y-161832834D02*
X178103348Y-162340834D01*
X177921920Y-161542548D02*
X177740491Y-162086834D01*
X178212205Y-162086834D01*
X167252468Y-178770280D02*
X167288754Y-178661422D01*
X167288754Y-178479994D01*
X167252468Y-178407422D01*
X167216182Y-178371137D01*
X167143611Y-178334851D01*
X167071040Y-178334851D01*
X166998468Y-178371137D01*
X166962182Y-178407422D01*
X166925897Y-178479994D01*
X166889611Y-178625137D01*
X166853325Y-178697708D01*
X166817040Y-178733994D01*
X166744468Y-178770280D01*
X166671897Y-178770280D01*
X166599325Y-178733994D01*
X166563040Y-178697708D01*
X166526754Y-178625137D01*
X166526754Y-178443708D01*
X166563040Y-178334851D01*
X166526754Y-178080851D02*
X167288754Y-177899422D01*
X166744468Y-177754280D01*
X167288754Y-177609137D01*
X166526754Y-177427708D01*
X167288754Y-176738280D02*
X167288754Y-177173708D01*
X167288754Y-176955994D02*
X166526754Y-176955994D01*
X166635611Y-177028565D01*
X166708182Y-177101137D01*
X166744468Y-177173708D01*
M02*
